<?xml version="1.0" standalone="no"?>
<!DOCTYPE svg PUBLIC "-//W3C//DTD SVG 1.1//EN" "http://www.w3.org/Graphics/SVG/1.1/DTD/svg11.dtd" >
<svg xmlns="http://www.w3.org/2000/svg" xmlns:xlink="http://www.w3.org/1999/xlink" version="1.1">
<metadata>
Created by FontForge 20170104 at Fri Jan 15 00:50:35 2010
 By mytaste
Copyright 1990, 1991, 1992, 1994, 1997, 1998, 2000, 2002, 2004 Adobe Systems Incorporated. All rights reserved. Minion is either a registered trademark or a trademark of Adobe Systems Incorporated in the United States and/or other countries.
</metadata>
<defs>
<font id="MinionPro-It" horiz-adv-x="400" >
  <font-face 
    font-family="Minion Pro"
    font-weight="400"
    font-style="italic"
    font-stretch="normal"
    units-per-em="1000"
    panose-1="2 4 5 3 5 2 1 9 2 3"
    ascent="727"
    descent="-273"
    x-height="449"
    cap-height="649"
    bbox="-201 -360 1684 1002"
    underline-thickness="50"
    underline-position="-100"
    slope="-12"
    stemh="34"
    stemv="77"
    unicode-range="U+0020-FB06"
  />
<missing-glyph horiz-adv-x="500" 
d="M0 0v700h500v-700h-500zM250 395l170 255h-340zM280 350l170 -255v510zM80 50h340l-170 255zM50 605v-510l170 255z" />
    <glyph glyph-name="T_h" unicode="Th" horiz-adv-x="1033" 
d="M987 107l11 -24c-54 -60 -116 -95 -144 -95c-26 0 -32 28 -16 96l53 235c12 51 9 68 -8 68c-42 0 -160 -112 -209 -195c-11 -43 -30 -132 -39 -185c-23 -4 -49 -11 -71 -18l-8 7c39 170 89 408 128 610c-56 5 -107 9 -174 9h-67l-101 -485c-19 -90 -10 -96 82 -103
l-6 -27h-277l6 27c86 7 92 13 112 103l106 485h-72c-85 0 -109 -9 -128 -31c-15 -18 -31 -46 -50 -89l-30 1c18 58 36 123 47 178h21c10 -24 19 -25 46 -25h387c89 0 103 3 112 18l4 21c21 11 55 26 69 26c9 0 10 -9 4 -34c-30 -140 -58 -270 -89 -417h2
c70 91 146 144 188 165c26 14 47 21 63 21c27 0 51 -19 30 -110l-55 -241c-7 -29 -5 -36 2 -36c10 0 42 19 71 45z" />
    <glyph glyph-name="f_b" unicode="fb" horiz-adv-x="757" 
d="M330 431l-19 -31l-100 -10c-19 -107 -29 -169 -51 -278c-35 -174 -71 -249 -125 -307c-44 -47 -85 -62 -112 -62s-59 19 -59 42c0 13 13 32 27 44c8 7 13 6 19 0c16 -15 42 -24 60 -24c17 0 31 8 42 19c13 15 36 56 70 255c22 132 35 216 52 313h-81l-4 10l30 29h63
c15 76 45 155 98 208c40 41 103 73 147 73c36 0 62 -11 79 -25c16 8 49 25 65 25c9 0 9 -10 4 -30c-33 -139 -60 -255 -86 -377h2c85 99 169 144 215 144c45 0 71 -44 71 -110c0 -110 -65 -237 -152 -295c-61 -41 -115 -56 -153 -56c-34 0 -65 18 -80 43
c-15 24 -18 60 -5 126c32 155 65 309 100 463c-20 32 -52 52 -86 52c-62 0 -111 -64 -143 -241h112zM619 392c-37 0 -103 -45 -180 -149c-6 -18 -12 -44 -19 -82c-18 -99 20 -125 62 -125c18 0 40 6 55 15c59 35 117 149 117 271c0 50 -14 70 -35 70z" />
    <glyph glyph-name="f_f" unicode="ff" horiz-adv-x="530" 
d="M76 431h65c11 52 34 123 87 177c44 45 114 80 180 80c49 0 82 -23 97 -42c41 39 92 66 132 66c34 0 60 -23 59 -42c-1 -12 -10 -30 -25 -42c-9 -7 -20 -6 -27 1c-19 21 -41 30 -62 30c-41 0 -69 -42 -100 -228h112l-19 -30l-100 -8c-17 -97 -26 -156 -43 -242
c-35 -184 -75 -260 -141 -320c-46 -43 -107 -63 -142 -63c-37 0 -78 10 -112 42c-33 -35 -79 -67 -117 -67c-28 0 -59 16 -59 37c0 12 13 31 23 40c7 6 18 15 28 8c16 -12 40 -22 57 -22c18 0 31 7 42 21c14 18 38 61 68 240c25 146 39 229 54 325h-82l-4 11zM217 431h188
c12 63 31 123 61 167c-19 28 -58 49 -97 49c-91 0 -126 -77 -152 -216zM397 392h-187c-19 -110 -31 -183 -50 -279c-26 -135 -52 -201 -83 -250c20 -26 66 -44 102 -44c43 0 75 14 93 37c19 22 47 71 76 239c22 130 36 212 49 297z" />
    <glyph glyph-name="f_f_b" unicode="ffb" horiz-adv-x="1019" 
d="M591 431l-20 -32l-97 -8c-17 -99 -27 -156 -42 -239c-36 -191 -78 -265 -142 -323c-45 -42 -105 -61 -142 -61c-33 0 -74 10 -107 46c-36 -39 -85 -70 -122 -70c-26 0 -57 15 -57 37c0 12 11 28 21 38c8 7 19 17 30 10c16 -10 36 -22 57 -22c17 0 32 7 43 21
c14 18 36 60 66 240c24 148 37 228 53 323h-83l-3 11l29 29h65c11 52 34 122 88 177c43 45 113 80 173 80c51 0 85 -23 101 -47c45 44 104 70 149 71c30 0 61 -11 78 -25c16 8 49 25 65 25c9 0 9 -10 4 -30c-33 -139 -60 -255 -86 -377h2c86 100 168 144 213 144
s73 -44 73 -110c0 -110 -66 -237 -153 -296c-61 -41 -114 -55 -153 -55c-33 0 -64 18 -79 43c-15 24 -18 61 -5 126c32 155 66 308 100 462c-19 32 -53 54 -87 54c-62 0 -111 -61 -142 -242h110zM881 392c-33 0 -102 -45 -179 -149c-6 -18 -12 -44 -19 -82
c-18 -99 19 -126 61 -126c18 0 39 6 54 15c59 35 119 150 119 272c0 50 -15 70 -36 70zM217 431h188c12 64 32 122 58 161c-18 33 -51 55 -100 55c-73 0 -117 -59 -146 -216zM397 391h-188c-19 -109 -28 -170 -51 -281c-26 -133 -50 -197 -81 -245c24 -27 67 -47 102 -47
c43 0 74 16 91 38c19 21 45 59 78 245c21 122 36 208 49 290z" />
    <glyph glyph-name="f_f_h" unicode="ffh" horiz-adv-x="1055" 
d="M1009 109l12 -25c-54 -61 -116 -96 -144 -96c-26 0 -32 28 -16 96l54 235c12 51 10 68 -8 68c-42 0 -159 -112 -209 -195c-10 -44 -30 -132 -39 -185c-23 -4 -50 -11 -72 -18l-7 7c44 192 88 403 132 625c-21 30 -54 52 -90 52c-64 0 -109 -65 -140 -242h110l-20 -32
l-97 -8c-17 -97 -26 -157 -43 -242c-36 -188 -79 -262 -143 -321c-43 -41 -101 -61 -140 -61c-32 0 -75 10 -107 47c-35 -38 -84 -70 -121 -70c-26 0 -59 15 -59 37c0 11 11 31 22 40c8 8 19 15 30 8c15 -11 36 -22 57 -22c16 0 31 7 42 21c14 18 37 60 67 241
c24 148 37 227 53 322h-83l-3 11l29 29h65c11 52 36 122 89 178c43 45 112 80 171 80c52 0 87 -24 103 -45c41 42 104 68 149 68c30 0 61 -11 79 -26c17 9 48 26 62 26c9 -1 9 -10 5 -29l-91 -423h2c73 95 149 147 190 169c26 14 47 20 63 20c27 0 51 -19 30 -110l-56 -240
c-7 -29 -5 -35 2 -37c10 0 42 20 70 47zM217 431h188c12 64 32 122 60 164c-16 28 -48 53 -99 53c-78 0 -121 -62 -149 -217zM397 391h-188c-20 -111 -29 -172 -51 -282c-27 -133 -50 -196 -80 -244c22 -27 67 -48 102 -48c43 0 72 16 89 39c17 21 47 58 79 245
c21 122 36 208 49 290z" />
    <glyph glyph-name="f_f_i" unicode="ffi" horiz-adv-x="791" 
d="M744 111l12 -22c-33 -43 -113 -101 -150 -101c-16 0 -37 12 -16 104c19 75 37 154 56 235c14 60 7 65 -45 65h-124c-17 -97 -27 -155 -43 -237c-36 -189 -78 -271 -150 -332c-40 -36 -94 -56 -130 -56c-34 0 -75 10 -108 46c-31 -37 -83 -70 -123 -70
c-28 0 -60 16 -59 38c0 12 12 31 24 41c8 9 18 13 27 6c18 -12 38 -22 57 -22c18 0 32 7 43 21c14 18 37 70 66 242c24 148 37 229 53 323h-83l-3 9l28 30h65c13 55 36 122 93 180c42 43 109 77 170 77c52 0 87 -23 102 -43c43 42 96 67 150 67c78 0 102 -48 102 -68
c0 -17 -12 -34 -33 -43c-23 -9 -37 -4 -41 13c-9 35 -25 63 -62 63c-77 0 -117 -109 -139 -246h115c66 0 98 7 126 16c20 0 17 -34 7 -73c-21 -84 -40 -165 -64 -264c-9 -40 -5 -48 1 -49c11 0 49 24 76 50zM218 431h187c13 63 33 122 63 166c-19 31 -57 52 -96 52
c-78 0 -125 -62 -154 -218zM399 392h-188c-20 -109 -32 -185 -50 -282c-25 -133 -48 -196 -78 -247c20 -26 60 -45 100 -45c41 0 70 15 88 38c20 23 49 75 76 232c24 136 38 226 52 304z" />
    <glyph glyph-name="f_f_j" unicode="ffj" horiz-adv-x="764" 
d="M74 431h64c13 55 34 121 92 179c40 43 109 78 172 78c51 0 86 -23 101 -43c43 42 95 67 149 67c78 0 103 -47 103 -67c0 -19 -13 -37 -35 -46s-34 -2 -39 15c-10 36 -25 61 -62 61c-76 0 -117 -106 -140 -244h117c66 0 101 9 127 14c12 -8 15 -21 5 -70
c-16 -78 -38 -192 -57 -285c-24 -119 -64 -209 -118 -260c-49 -48 -90 -63 -108 -63c-19 0 -43 12 -43 31c0 15 13 34 25 44c7 6 14 9 22 5c14 -9 31 -15 48 -15c27 0 49 27 69 109c18 79 41 198 78 390c11 54 8 61 -45 61h-127c-17 -97 -27 -156 -43 -238
c-35 -196 -74 -267 -141 -327c-43 -39 -101 -60 -135 -60c-36 0 -77 11 -113 47c-35 -39 -86 -71 -122 -71c-26 0 -56 14 -56 34c0 13 12 31 22 40c7 7 18 15 29 9c15 -9 36 -20 56 -20c18 0 32 8 42 22c14 18 34 55 65 240c24 147 38 228 54 324h-82l-2 9zM214 431h188
c12 61 32 122 63 166c-19 31 -57 52 -97 52c-78 0 -125 -62 -154 -218zM394 392h-188c-20 -110 -31 -185 -49 -282c-26 -134 -50 -200 -81 -247c22 -27 65 -46 104 -46c46 0 72 15 91 39c18 20 46 78 73 234c23 137 37 223 50 302z" />
    <glyph glyph-name="f_f_k" unicode="ffk" horiz-adv-x="1006" 
d="M699 235c32 38 58 64 86 92c57 58 130 122 175 122c28 0 42 -17 42 -31c0 -13 -9 -30 -20 -40c-6 -6 -12 -7 -16 -6c-9 5 -21 8 -38 8c-47 0 -100 -51 -129 -83c19 -63 58 -151 81 -195c19 -37 29 -49 40 -49c10 0 33 17 57 47l17 -21c-47 -74 -88 -91 -110 -91
c-21 0 -40 12 -65 66c-25 51 -52 115 -76 186c-27 -28 -47 -50 -57 -67c-11 -54 -23 -109 -33 -166c-26 -5 -52 -12 -71 -19l-7 6c46 203 91 406 138 631c-20 27 -52 47 -89 47c-62 0 -110 -55 -142 -241h110l-20 -32l-97 -8c-17 -98 -26 -157 -42 -239
c-37 -191 -76 -263 -141 -321c-45 -42 -107 -63 -142 -63s-75 10 -109 45c-34 -38 -84 -69 -121 -69c-26 0 -57 14 -57 35c0 13 13 31 23 40c7 6 17 15 28 8c16 -11 37 -21 56 -21c18 0 32 7 44 21c13 18 36 61 66 240c24 148 38 228 54 324h-84l-3 11l29 29h65
c12 52 35 122 89 179c43 44 113 79 173 79c52 0 87 -26 101 -45c42 41 105 68 149 68c29 0 61 -11 79 -26c17 9 48 26 62 26c9 0 9 -9 5 -27c-34 -150 -67 -298 -100 -450zM218 431h187c13 64 33 123 60 165c-19 29 -50 51 -98 51c-76 0 -121 -59 -149 -216zM397 391h-187
c-19 -110 -29 -171 -50 -280c-26 -135 -50 -199 -80 -247c22 -27 67 -47 102 -47c43 0 73 17 90 40c20 21 45 57 76 238c22 127 36 210 49 296z" />
    <glyph glyph-name="f_f_l" unicode="ffl" horiz-adv-x="793" 
d="M594 431l-20 -31l-97 -9c-18 -96 -26 -153 -43 -237c-37 -193 -77 -271 -150 -332c-39 -35 -93 -55 -129 -55c-34 0 -77 10 -111 46c-33 -37 -83 -70 -123 -70c-28 0 -60 16 -60 38c1 11 12 30 25 41c8 9 18 12 27 5c18 -12 38 -22 56 -22c19 0 35 7 45 22
c15 17 37 56 67 242c24 147 38 228 53 323h-82l-4 11l29 28h65c12 53 35 122 90 179c40 42 110 78 172 78c53 0 86 -24 104 -44c41 40 109 68 155 68c29 0 62 -12 75 -24c21 11 46 24 57 24c8 0 10 -12 4 -39c-43 -190 -83 -380 -120 -569c-7 -36 -2 -44 5 -44
c10 0 51 28 76 54l14 -22c-47 -59 -120 -104 -150 -104c-20 0 -37 23 -17 119c36 173 74 355 108 521c-10 17 -37 43 -85 43c-82 0 -124 -102 -146 -240h110zM218 431h189c12 62 29 119 61 166c-17 29 -56 51 -99 51c-71 0 -120 -52 -151 -217zM400 392h-188
c-20 -110 -32 -185 -51 -282c-25 -134 -49 -200 -78 -246c20 -26 62 -46 102 -46s73 16 90 39c20 22 47 76 74 231c23 137 37 226 51 304z" />
    <glyph glyph-name="f_f_t" unicode="fft" horiz-adv-x="826" 
d="M858 431l-26 -36l-101 -4l-58 -273c-10 -46 -5 -60 6 -60c17 0 66 33 90 58l13 -23c-31 -38 -109 -106 -159 -106c-24 0 -45 30 -22 133l59 271h-186c-18 -100 -31 -173 -46 -248c-33 -180 -73 -252 -137 -311c-45 -44 -106 -64 -144 -64c-34 0 -76 10 -107 44
c-36 -37 -85 -68 -122 -68c-26 0 -57 17 -57 39c1 11 11 30 22 40c8 8 18 14 29 7c16 -12 37 -23 57 -23c18 0 32 7 44 21c13 17 36 58 66 237c24 147 37 230 53 326h-83l-4 10l29 30h66c11 52 33 119 87 174c43 46 115 83 175 83c50 0 81 -22 98 -47c41 44 97 71 143 71
c37 0 63 -25 62 -43c0 -16 -14 -35 -27 -44c-8 -6 -16 -7 -22 0c-21 22 -41 37 -72 37c-43 1 -76 -65 -103 -231h188l19 78l75 63l9 -7l-31 -134h117zM217 431h187c12 66 31 122 57 162c-19 33 -56 55 -97 55c-75 0 -122 -68 -147 -217zM396 391h-188
c-19 -112 -28 -172 -49 -282c-25 -133 -49 -197 -80 -245c19 -26 61 -47 98 -47c43 0 72 15 91 38c20 21 47 66 78 238c23 127 37 216 50 298z" />
    <glyph glyph-name="f_h" unicode="fh" horiz-adv-x="789" 
d="M744 108l13 -24c-54 -61 -116 -96 -144 -96c-26 0 -32 28 -16 96l53 233c12 51 10 70 -8 70c-42 0 -158 -111 -208 -194c-11 -44 -30 -133 -40 -186c-23 -4 -49 -11 -71 -18l-7 7c43 192 87 404 131 626c-20 30 -54 48 -89 48c-65 0 -109 -58 -141 -239h111l-20 -31
l-98 -10c-19 -110 -28 -169 -52 -280c-35 -171 -72 -248 -127 -306c-44 -46 -85 -61 -112 -61s-60 19 -59 42c0 13 12 32 27 44c8 7 13 6 19 0c16 -15 42 -27 60 -27c17 0 32 8 42 20c23 24 44 86 72 252c23 137 36 221 53 318h-82l-4 10l29 29h65c15 78 46 153 99 207
c41 43 103 74 150 74c30 0 60 -11 77 -25c16 8 48 25 62 25c9 -1 9 -10 6 -28l-91 -422h2c74 94 148 145 189 166c26 15 48 21 64 21c27 0 50 -19 29 -110l-55 -240c-7 -29 -5 -35 2 -37c10 0 41 20 69 46z" />
    <glyph glyph-name="f_i" unicode="fi" horiz-adv-x="531" 
d="M481 112l14 -21c-30 -39 -111 -103 -151 -103c-19 0 -38 13 -17 98c19 78 37 160 56 243c13 58 8 64 -41 64h-131c-20 -114 -31 -176 -52 -271c-38 -179 -70 -254 -125 -313c-47 -50 -91 -65 -116 -65c-28 0 -58 17 -58 40c0 12 13 30 29 44c8 6 13 5 21 0
c13 -12 36 -22 56 -22s33 8 43 19c15 14 39 59 72 252c23 132 36 215 53 316h-78l-4 10l28 28h61c18 81 51 163 108 216c37 34 90 65 146 65c76 0 97 -45 97 -65c-1 -20 -15 -41 -36 -46c-22 -7 -32 -2 -35 12c-8 38 -27 60 -61 60c-73 0 -115 -94 -141 -242h111
c62 0 103 8 133 15c10 -6 14 -28 3 -72c-21 -86 -40 -169 -63 -268c-9 -35 -6 -44 2 -45c11 0 50 27 76 51z" />
    <glyph glyph-name="f_j" unicode="fj" horiz-adv-x="501" 
d="M76 431h61c18 81 51 164 108 217c37 34 91 64 146 64c76 0 97 -46 97 -66s-12 -40 -34 -45c-22 -8 -34 -3 -37 11c-8 38 -27 63 -61 63c-72 0 -115 -97 -142 -244h112c61 0 101 7 131 15c10 -9 14 -29 4 -79c-15 -75 -37 -184 -56 -277c-24 -120 -63 -208 -117 -259
c-49 -48 -89 -64 -107 -64c-19 0 -44 13 -44 32c0 12 13 34 25 45c6 5 14 8 22 4c14 -8 32 -15 49 -15c29 0 47 24 67 107c19 80 42 198 79 389c10 55 10 63 -40 63h-132c-21 -115 -32 -173 -52 -268c-39 -181 -70 -256 -125 -315c-47 -51 -91 -66 -118 -66
c-26 0 -56 17 -56 40c0 12 12 30 29 44c7 6 13 5 19 0c14 -12 36 -22 55 -22c20 0 33 7 44 19c14 14 37 59 71 253c23 132 38 215 55 315h-78l-4 11z" />
    <glyph glyph-name="f_k" unicode="fk" horiz-adv-x="747" 
d="M437 237c31 38 57 63 85 92c58 58 126 120 176 120c27 0 41 -17 41 -31c0 -13 -9 -29 -19 -40c-6 -5 -12 -7 -16 -5c-9 4 -21 7 -38 7c-47 0 -103 -51 -131 -83c19 -62 59 -152 82 -196c19 -37 29 -48 40 -48s32 17 57 47l17 -21c-47 -74 -88 -91 -110 -91
c-21 0 -40 12 -65 66c-24 51 -53 117 -78 186c-27 -28 -45 -48 -54 -65c-12 -54 -23 -111 -34 -168c-25 -5 -51 -12 -71 -19l-7 6c46 203 92 405 138 630c-20 29 -55 49 -88 49c-63 0 -112 -63 -144 -242h110l-21 -32l-97 -10c-20 -112 -29 -170 -52 -279
c-35 -174 -71 -247 -126 -305c-44 -47 -86 -62 -112 -62c-28 0 -60 19 -60 42c0 13 12 32 27 44c8 6 13 5 19 0c16 -14 42 -25 60 -25c17 0 31 7 41 19c13 15 39 57 72 251c24 137 38 219 54 316h-82l-4 11l30 30h65c15 76 46 155 99 208c41 41 103 73 149 73
c35 0 62 -11 79 -25c16 8 47 25 62 25c9 0 9 -9 5 -28c-34 -149 -66 -296 -99 -447z" />
    <glyph glyph-name="f_l" unicode="fl" horiz-adv-x="525" 
d="M330 431l-20 -31l-99 -10c-19 -109 -29 -170 -52 -285c-33 -165 -67 -240 -123 -298c-45 -47 -88 -63 -115 -63s-57 19 -56 41c0 14 11 32 27 44c8 6 13 5 20 0c14 -13 37 -23 57 -23s34 9 44 20c14 14 38 62 70 255c22 131 35 211 51 311h-80l-3 10l29 29h62
c14 77 41 150 97 206c43 43 109 75 158 75c33 0 61 -12 74 -25c19 11 45 25 56 25c8 0 9 -13 5 -29c-42 -194 -83 -388 -122 -583c-6 -32 -2 -37 5 -39c11 0 52 28 77 56l14 -22c-45 -62 -121 -107 -151 -107c-19 0 -35 23 -14 127c49 233 65 313 107 513
c-11 18 -41 43 -81 43c-87 0 -126 -104 -148 -240h111z" />
    <glyph glyph-name="f_t" unicode="ft" horiz-adv-x="567" 
d="M598 431l-26 -36l-101 -4l-58 -273c-10 -48 -5 -59 6 -59c17 0 64 31 88 56l15 -22c-33 -39 -109 -106 -160 -106c-23 0 -43 29 -21 133l59 271h-189c-20 -110 -29 -170 -49 -266c-37 -184 -69 -260 -124 -318c-45 -48 -89 -63 -114 -63c-28 0 -58 17 -58 40
c0 12 13 32 29 46c8 6 13 5 19 0c14 -12 38 -24 58 -24s32 8 42 19c14 14 36 62 68 253c22 132 35 213 52 313h-78l-4 10l29 30h61c16 83 45 154 95 206c41 42 95 75 142 75c38 0 64 -27 63 -45c-1 -15 -15 -35 -27 -44c-8 -6 -17 -7 -23 0c-20 22 -44 37 -70 37
c-43 0 -76 -63 -104 -229h191l19 80l75 62l9 -6l-31 -136h117z" />
    <glyph glyph-name="longs_b" unicode="&#x17f;b" horiz-adv-x="713" 
d="M409 305h2c86 100 167 144 213 144c45 0 71 -44 71 -109c0 -111 -63 -238 -150 -297c-61 -41 -113 -55 -151 -55c-33 0 -66 18 -81 43c-15 24 -18 59 -5 127c27 133 61 280 100 466c-17 29 -47 49 -78 49c-54 0 -105 -55 -145 -314c-13 -81 -29 -181 -47 -274
c-31 -156 -65 -225 -120 -281c-48 -49 -89 -61 -114 -61c-29 0 -62 22 -62 44c0 13 13 31 27 43c9 8 15 7 21 1c15 -14 41 -27 62 -27c18 0 31 7 43 20c15 14 37 59 67 253c18 113 30 197 43 266c23 134 58 229 111 290c38 47 97 79 143 79c33 0 59 -12 72 -24
c22 13 48 24 59 24c9 0 11 -8 6 -29c-33 -139 -60 -255 -87 -378zM577 392c-34 0 -102 -48 -177 -149c-6 -18 -12 -42 -19 -81c-17 -97 19 -128 63 -128c18 0 36 7 51 16c59 35 117 149 117 271c0 51 -14 71 -35 71z" />
    <glyph glyph-name="longs_h" unicode="&#x17f;h" horiz-adv-x="751" 
d="M707 108l12 -24c-54 -61 -116 -96 -145 -96c-25 0 -31 28 -15 96l53 235c12 51 10 68 -8 68c-42 0 -156 -112 -206 -195c-11 -43 -30 -132 -40 -185c-23 -4 -49 -11 -71 -18l-7 7c43 189 87 396 132 627c-16 31 -49 50 -78 50c-55 0 -110 -55 -150 -314
c-12 -81 -28 -180 -47 -273c-30 -156 -64 -226 -119 -281c-47 -49 -90 -62 -115 -62c-29 0 -61 22 -61 44c0 13 11 30 26 42c9 8 15 7 21 2c15 -15 42 -27 62 -27c19 0 31 7 44 20c15 14 37 59 67 254c17 112 29 195 41 265c23 134 59 229 113 290c37 46 102 79 147 79
c34 0 58 -12 72 -24c20 13 47 24 58 24c9 0 10 -7 6 -27l-90 -423h2c72 93 145 145 186 167c26 14 47 20 63 20c27 0 51 -19 30 -110l-55 -241c-7 -29 -5 -35 2 -36c10 0 42 20 70 46z" />
    <glyph glyph-name="longs_i" unicode="&#x17f;i" horiz-adv-x="494" 
d="M359 712c74 0 93 -44 93 -65c0 -17 -11 -35 -35 -44c-22 -8 -31 -4 -35 12c-6 36 -27 58 -57 58c-51 -1 -100 -54 -139 -301c-15 -97 -32 -200 -52 -296c-31 -150 -63 -215 -119 -271c-47 -49 -90 -62 -115 -62c-29 0 -61 23 -61 44c0 14 12 30 27 42c9 8 14 7 20 2
c16 -15 42 -27 62 -27c19 0 32 7 44 20c16 15 38 60 68 248c18 113 31 196 44 267c24 136 61 236 115 297c38 45 91 76 140 76zM448 109l12 -21c-33 -41 -111 -100 -146 -100c-19 0 -33 16 -13 98l63 256c6 22 6 30 0 31c-8 0 -39 -18 -69 -42l-12 23c55 54 123 95 150 95
c22 0 23 -31 11 -79l-69 -276c-6 -24 -5 -32 1 -32c13 0 48 26 72 47z" />
    <glyph glyph-name="longs_k" unicode="&#x17f;k" horiz-adv-x="711" 
d="M402 238c31 37 57 62 86 90c56 57 128 121 174 121c28 0 42 -17 42 -31c0 -13 -9 -29 -19 -39c-6 -6 -12 -8 -17 -6c-8 4 -19 8 -36 8c-47 0 -103 -51 -131 -83c18 -62 58 -152 81 -196c19 -37 29 -49 39 -49c11 0 32 17 57 46l18 -20c-47 -74 -88 -91 -109 -91
c-22 0 -41 12 -66 66c-25 51 -52 115 -77 186c-27 -27 -46 -50 -56 -67c-11 -54 -22 -109 -33 -166c-25 -5 -51 -12 -72 -19l-6 6c46 203 91 406 139 632c-15 28 -46 47 -79 47c-58 0 -110 -58 -151 -316c-14 -80 -30 -179 -49 -275c-30 -152 -62 -220 -118 -277
c-47 -49 -91 -62 -115 -62c-29 0 -62 22 -62 44c0 13 12 30 26 42c10 8 15 7 21 1c15 -14 41 -26 61 -26c19 0 32 7 45 19c15 15 37 62 67 255c17 112 30 194 43 263c26 138 60 230 115 291c38 47 98 80 141 80c38 0 62 -12 76 -24c21 13 47 24 58 24c9 0 11 -7 7 -26
c-34 -150 -68 -298 -100 -448z" />
    <glyph glyph-name="longs_l" unicode="&#x17f;l" horiz-adv-x="492" 
d="M458 117l15 -22c-51 -62 -122 -107 -153 -107c-20 0 -36 23 -15 121c36 170 72 340 108 513c-20 36 -50 51 -78 51c-56 0 -110 -54 -149 -306c-12 -84 -29 -188 -47 -280c-31 -158 -64 -225 -120 -281c-47 -48 -90 -63 -114 -63c-29 0 -62 22 -62 44c0 13 12 30 27 42
c9 7 14 7 21 1c15 -15 41 -27 61 -27c19 0 32 7 44 20c15 15 37 59 67 251c17 117 30 198 41 259c24 145 59 240 114 301c38 45 98 78 142 78c34 0 59 -12 74 -25c21 13 48 25 59 25c8 0 9 -9 6 -27c-41 -194 -82 -388 -124 -585c-6 -30 -2 -38 4 -38c12 0 51 26 79 55z" />
    <glyph glyph-name="longs_longs" unicode="&#x17f;&#x17f;" horiz-adv-x="482" 
d="M604 712c32 0 58 -25 57 -43c-1 -13 -12 -32 -26 -42c-8 -6 -19 -5 -25 2c-16 18 -41 31 -60 31c-41 0 -72 -48 -108 -282c-11 -72 -26 -176 -43 -260c-30 -159 -67 -232 -133 -292c-44 -41 -99 -58 -135 -58c-38 0 -74 13 -105 46c-37 -40 -85 -70 -125 -70
c-26 0 -57 16 -57 38c0 12 12 30 22 39c8 7 17 14 26 8c15 -11 38 -24 58 -24c19 0 33 8 44 19c16 15 40 62 68 249c17 112 29 191 36 236c24 145 62 244 127 309c34 34 92 70 148 70c50 0 84 -20 99 -44c39 38 86 68 132 68zM163 -183c40 0 68 14 84 36c21 22 46 70 75 248
c16 92 29 177 40 248c19 124 43 196 74 246c-20 31 -56 53 -94 53c-67 0 -123 -57 -165 -326c-13 -84 -23 -159 -41 -249c-20 -102 -43 -166 -71 -208c18 -25 59 -48 98 -48z" />
    <glyph glyph-name="longs_t" unicode="&#x17f;t" horiz-adv-x="530" 
d="M363 712c56 0 78 -36 78 -55c-1 -16 -12 -33 -33 -43c-12 -6 -20 -5 -25 6c-11 26 -35 46 -64 46c-45 -1 -93 -45 -134 -305c-14 -85 -30 -189 -50 -285c-31 -150 -63 -216 -119 -271c-47 -49 -89 -62 -114 -62c-29 0 -62 22 -62 43c0 14 12 29 26 41c10 8 15 7 21 1
c16 -14 43 -25 63 -25c18 0 30 7 42 20c15 14 39 61 69 249c17 110 27 176 41 252c26 149 64 249 118 309c38 44 92 79 143 79zM566 431l-26 -33l-101 -5l-58 -274c-11 -49 -5 -60 6 -60c17 0 64 32 88 58l15 -23c-33 -39 -109 -106 -161 -106c-23 0 -42 29 -20 132l58 272
h-74l-3 9l25 30h61l16 64l75 62l10 -7l-29 -119h118z" />
    <glyph glyph-name="longs_longs_i" unicode="&#x17f;&#x17f;i" horiz-adv-x="751" 
d="M610 712c72 0 94 -45 94 -66c0 -17 -11 -35 -35 -44c-22 -8 -30 -4 -35 12c-8 35 -27 58 -57 58c-56 -1 -99 -72 -135 -302c-12 -76 -26 -165 -42 -247c-31 -162 -72 -238 -139 -299c-44 -41 -94 -56 -130 -56c-38 0 -74 13 -105 46c-35 -40 -83 -70 -123 -70
c-26 0 -59 18 -59 39c0 13 11 30 22 39c8 7 16 13 25 8c15 -12 40 -26 60 -26c19 0 31 8 42 19c16 15 38 62 69 248c18 113 30 184 39 237c24 138 63 244 128 309c34 34 93 70 148 70c50 0 80 -21 97 -44c35 36 87 69 136 69zM162 -184c40 0 65 14 82 37c21 23 49 71 79 251
c14 89 28 173 36 228c21 133 48 208 80 261c-21 33 -53 56 -91 56c-67 0 -126 -62 -170 -342c-12 -75 -23 -140 -42 -233c-19 -103 -45 -168 -73 -210c19 -26 60 -48 99 -48zM703 109l13 -21c-33 -41 -110 -100 -145 -100c-20 0 -35 16 -14 98l63 255c6 23 5 31 -1 32
c-8 0 -38 -18 -68 -43l-12 24c55 54 123 95 150 95c23 0 24 -30 12 -78l-70 -276c-6 -25 -5 -33 1 -33c13 0 47 26 71 47z" />
    <glyph glyph-name="longs_longs_l" unicode="&#x17f;&#x17f;l" horiz-adv-x="755" 
d="M718 117l13 -22c-50 -62 -122 -107 -153 -107c-19 0 -36 23 -15 121c36 170 72 340 108 512c-17 32 -47 53 -80 52c-62 0 -111 -56 -151 -318c-13 -86 -25 -163 -41 -243c-28 -154 -66 -228 -133 -287c-44 -41 -97 -57 -133 -57c-39 0 -75 13 -106 46
c-35 -40 -84 -70 -124 -70c-28 0 -58 18 -59 40c0 12 12 30 22 39c9 7 18 14 26 8c17 -14 38 -26 60 -26c17 0 32 8 43 19c16 15 39 63 67 250c17 111 28 188 36 232c24 149 62 249 127 313c34 35 94 69 150 69c49 0 84 -22 102 -45c34 38 93 69 140 69c35 0 62 -15 74 -26
c17 13 47 26 59 26c9 0 11 -9 7 -26c-41 -195 -82 -389 -123 -586c-7 -30 -4 -39 2 -39c12 0 54 27 82 56zM345 648c-66 0 -126 -55 -170 -344c-10 -63 -21 -141 -39 -227c-22 -108 -41 -170 -70 -213c19 -25 56 -47 99 -47c38 0 66 16 83 38c20 23 47 68 73 235
c17 102 29 181 37 232c20 128 46 212 81 272c-21 32 -56 54 -94 54z" />
    <glyph glyph-name="Tcommaaccent_h" unicode="&#x162;h" horiz-adv-x="1033" 
d="M986 107l11 -24c-54 -60 -115 -95 -144 -95c-25 0 -31 28 -16 96l54 234c12 52 9 69 -8 69c-42 0 -160 -112 -209 -195c-11 -44 -29 -132 -39 -185c-23 -5 -49 -11 -71 -19l-8 8c39 170 89 408 129 610c-57 5 -108 9 -175 9h-67l-101 -485c-19 -90 -10 -96 82 -103
l-6 -27h-277l6 27c86 7 93 13 112 103l106 485h-71c-86 0 -109 -9 -128 -31c-15 -18 -32 -46 -50 -89l-30 1c18 58 35 123 47 178h20c11 -24 19 -25 46 -25h387c89 0 103 3 112 18l4 21c21 11 55 26 69 26c9 0 10 -9 4 -34c-30 -140 -58 -270 -89 -417h2
c70 91 146 144 188 165c26 14 47 21 63 21c27 0 51 -19 30 -110l-55 -241c-7 -29 -5 -36 2 -36c10 0 42 19 70 45zM279 -30c31 0 58 -25 58 -64c1 -72 -67 -103 -117 -114l-9 27c39 14 68 30 68 58c0 19 -17 29 -35 35c-8 1 -12 7 -12 19c0 23 20 39 47 39z" />
    <glyph glyph-name="Tcaron_h" unicode="&#x164;h" horiz-adv-x="1033" 
d="M987 107l11 -24c-54 -60 -116 -95 -144 -95c-26 0 -32 28 -16 96l53 235c12 51 9 68 -8 68c-42 0 -160 -112 -209 -195c-11 -43 -30 -132 -39 -185c-23 -4 -49 -11 -71 -18l-8 7c39 170 89 408 128 610c-56 5 -107 9 -174 9h-67l-101 -485c-19 -90 -10 -96 82 -103
l-6 -27h-277l6 27c86 7 92 13 112 103l106 485h-72c-85 0 -109 -9 -128 -31c-15 -18 -31 -46 -50 -89l-30 1c18 58 36 123 47 178h21c10 -24 19 -25 46 -25h387c89 0 103 3 112 18l4 21c21 11 55 26 69 26c9 0 10 -9 4 -34c-30 -140 -58 -270 -89 -417h2
c70 91 146 144 188 165c26 14 47 21 63 21c27 0 51 -19 30 -110l-55 -241c-7 -29 -5 -36 2 -36c10 0 42 19 71 45zM550 814l13 -22c-45 -30 -91 -63 -135 -105h-25c-34 42 -69 74 -104 105l19 22c36 -16 71 -36 107 -59c42 24 83 44 125 59z" />
    <glyph glyph-name=".notdef" horiz-adv-x="500" 
d="M0 0v700h500v-700h-500zM250 395l170 255h-340zM280 350l170 -255v510zM80 50h340l-170 255zM50 605v-510l170 255z" />
    <glyph glyph-name="space" unicode=" " horiz-adv-x="229" 
 />
    <glyph glyph-name="exclam" unicode="!" horiz-adv-x="259" 
d="M269 634c-3 -15 -9 -38 -21 -79c-34 -120 -66 -238 -100 -359c-6 -7 -28 -7 -31 0c12 120 26 239 37 359c4 42 6 64 9 80c4 22 22 29 58 29h1c36 0 51 -9 47 -30zM160 51c0 -40 -30 -63 -60 -63h-1c-30 0 -51 23 -51 55c0 38 25 66 61 66c30 0 51 -24 51 -58z" />
    <glyph glyph-name="quotedbl" unicode="&#x22;" horiz-adv-x="345" 
d="M234 710l8 -7c-11 -37 -54 -155 -84 -213l-30 -13c19 103 30 183 31 211zM388 710l9 -7c-11 -37 -54 -154 -84 -213l-30 -13c18 100 31 185 31 211z" />
    <glyph glyph-name="numbersign" unicode="#" horiz-adv-x="477" 
d="M484 455l-12 -59h-91l-41 -138h82l-11 -59h-88l-53 -178h-39l51 178h-110l-52 -178h-40l51 178h-95l13 59h100l41 138h-92l12 59h97l46 157h41l-47 -157h110l46 157h40l-46 -157h87zM340 396h-109l-41 -138h109z" />
    <glyph glyph-name="dollar" unicode="$" horiz-adv-x="477" 
d="M458 453l-29 -3c-2 60 -19 121 -90 137l-44 -229l22 -15c63 -40 113 -84 113 -161c0 -110 -97 -174 -204 -178l-16 -85h-35l16 85c-79 5 -134 40 -150 59c0 17 0 69 -2 137l28 3c9 -65 41 -156 131 -167l48 253l-22 14c-61 37 -110 84 -110 152c0 105 93 164 196 165
l15 77h36l-15 -78c41 -1 86 -21 118 -38c-3 -35 -4 -74 -6 -128zM263 375l41 214c-82 -2 -117 -55 -117 -107c0 -44 26 -76 76 -107zM277 272l-44 -237c77 6 117 59 117 120c0 52 -22 81 -73 117z" />
    <glyph glyph-name="percent" unicode="%" horiz-adv-x="751" 
d="M660 631l-493 -658l-28 24l493 657zM379 497c0 -99 -70 -224 -177 -224c-76 0 -110 66 -110 137c0 100 69 225 177 225c78 0 110 -66 110 -138zM312 527c0 38 -8 78 -48 78c-74 0 -104 -151 -104 -213c0 -39 5 -89 47 -89c78 0 105 166 105 224zM707 212
c0 -99 -70 -224 -177 -224c-76 0 -110 65 -110 136c0 100 70 226 177 226c78 0 110 -66 110 -138zM640 241c0 38 -8 79 -48 79c-74 0 -104 -151 -104 -214c0 -38 5 -89 47 -89c78 0 105 166 105 224z" />
    <glyph glyph-name="ampersand" unicode="&#x26;" horiz-adv-x="762" 
d="M723 405h31c2 -17 3 -40 3 -59c0 -108 -40 -117 -55 -117c-11 0 -29 8 -48 22c-16 11 -45 34 -64 46c-20 -76 -48 -143 -95 -199c-54 -63 -125 -110 -221 -110c-115 0 -209 82 -209 226c0 69 25 140 82 198c34 35 83 68 118 68c36 0 58 -31 58 -70c0 -7 0 -11 -3 -26h2
c56 52 127 126 127 208c0 15 -4 28 -6 36c-3 18 15 41 39 41c25 0 40 -23 40 -55c0 -50 -36 -119 -117 -198c-89 -87 -190 -160 -266 -205c16 -99 88 -154 175 -154c119 0 209 106 246 261c-30 19 -52 34 -80 34s-44 -20 -44 -45c0 -22 5 -37 10 -46c4 -7 7 -11 7 -17
c-2 -12 -23 -20 -36 -20c-24 0 -42 25 -42 52c0 35 29 66 60 90c27 20 67 36 84 36c46 0 122 -56 157 -84c11 -9 21 -15 28 -15c10 0 18 25 19 102zM227 429c-39 0 -92 -67 -92 -166c0 -6 0 -11 1 -17c29 17 101 66 125 91c3 11 5 19 5 35c1 31 -14 57 -39 57z" />
    <glyph glyph-name="quoteright" unicode="&#x2019;" horiz-adv-x="214" 
d="M114 480l-10 28c48 18 86 46 88 88c2 32 -19 49 -49 57c-6 1 -12 7 -11 17c1 26 25 40 44 40c35 0 79 -35 77 -95c-3 -78 -78 -118 -139 -135z" />
    <glyph glyph-name="parenleft" unicode="(" horiz-adv-x="338" 
d="M373 712l16 -24c-146 -96 -244 -308 -244 -529c0 -103 22 -229 86 -308l-23 -20c-94 75 -131 218 -131 340c0 245 120 452 296 541z" />
    <glyph glyph-name="parenright" unicode=")" horiz-adv-x="333" 
d="M140 692l23 20c97 -76 141 -232 127 -387c-11 -209 -116 -404 -292 -494l-16 23c145 98 229 292 239 485c14 131 -14 278 -81 353z" />
    <glyph glyph-name="asterisk" unicode="*" horiz-adv-x="391" 
d="M432 510l-1 -27l-134 -15l31 -139l-24 -10l-61 135l-126 -69l-15 24l110 85l-99 109l18 21l114 -90l66 130l26 -8l-38 -137z" />
    <glyph glyph-name="plus" unicode="+" horiz-adv-x="596" 
d="M550 230h-210v-230h-57v230h-210v50h210v207h57v-207h210v-50z" />
    <glyph glyph-name="comma" unicode="," horiz-adv-x="235" 
d="M7 -113l-10 29c47 20 85 51 86 89c1 32 -18 52 -46 62c-4 1 -8 6 -8 13c1 28 25 48 49 48c41 0 75 -47 71 -99c-4 -79 -77 -121 -142 -142z" />
    <glyph glyph-name="hyphen" unicode="-" horiz-adv-x="334" 
d="M298 253l-18 -55h-230l18 55h230z" />
    <glyph glyph-name="period" unicode="." horiz-adv-x="235" 
d="M87 -12c-28 0 -48 22 -48 52c0 36 24 62 58 62c28 0 48 -23 48 -53c0 -40 -28 -61 -58 -61z" />
    <glyph glyph-name="slash" unicode="/" horiz-adv-x="322" 
d="M357 664l-322 -709h-53l322 709h53z" />
    <glyph glyph-name="zero" unicode="0" horiz-adv-x="477" 
d="M320 635c117 0 154 -114 151 -226c-3 -159 -85 -421 -267 -421c-116 0 -156 112 -154 233c2 157 92 414 270 414zM313 602c-121 0 -177 -264 -179 -407c-2 -88 13 -174 77 -174c121 0 174 291 177 418c3 77 -9 163 -75 163z" />
    <glyph glyph-name="one" unicode="1" horiz-adv-x="477" 
d="M374 635l-100 -514c-16 -83 -11 -88 86 -95l-6 -26h-276l6 26c91 8 96 11 112 95l73 371c12 60 6 66 -54 66h-33l5 25c64 10 129 27 187 52z" />
    <glyph glyph-name="two" unicode="2" horiz-adv-x="477" 
d="M112 501l64 80c36 33 81 54 131 54c96 0 155 -60 155 -156c0 -102 -77 -172 -189 -268l-159 -139h179c55 0 72 6 112 63l24 -12c-21 -42 -37 -82 -56 -123h-370l1 21c64 54 134 113 200 177c98 95 173 179 173 266c0 59 -30 107 -105 107c-64 0 -109 -53 -139 -91z" />
    <glyph glyph-name="three" unicode="3" horiz-adv-x="477" 
d="M130 522l48 60c28 28 70 53 127 53c86 0 131 -58 131 -121c0 -42 -22 -72 -47 -92c-21 -17 -43 -32 -75 -52v-2c71 -19 117 -70 117 -143c0 -64 -36 -124 -110 -176c-60 -42 -133 -61 -177 -61c-37 0 -77 16 -96 35c-16 15 -21 28 -19 41c2 11 13 25 27 34
c7 5 13 6 20 -1c27 -29 63 -59 121 -59c80 0 146 50 146 163c0 81 -54 119 -114 119c-24 0 -47 -6 -60 -9l-6 26c116 33 191 80 191 157c0 52 -31 84 -84 84c-55 0 -92 -42 -120 -77z" />
    <glyph glyph-name="four" unicode="4" horiz-adv-x="477" 
d="M461 222l-9 -43h-95l-12 -66c-13 -74 -8 -80 69 -87l-6 -26h-253l6 26c87 7 92 12 107 87l13 66h-259l6 27c115 141 249 299 373 423h43l-78 -407h95zM354 533h-3c-92 -101 -178 -205 -260 -311h197z" />
    <glyph glyph-name="five" unicode="5" horiz-adv-x="477" 
d="M470 623l-30 -72h-230l-56 -183c50 15 82 24 104 24c113 0 171 -79 171 -160c0 -76 -46 -146 -126 -195c-49 -32 -108 -49 -152 -49c-48 0 -91 21 -109 40c-12 13 -18 24 -15 37c1 12 13 27 27 35c8 5 13 5 21 -3c24 -26 65 -59 127 -59c82 0 141 55 141 163
c0 79 -40 138 -139 138c-40 0 -78 -12 -91 -16l-7 8l81 292h283z" />
    <glyph glyph-name="six" unicode="6" horiz-adv-x="477" 
d="M497 640l6 -30c-31 -6 -71 -16 -111 -33c-75 -31 -177 -92 -230 -225l1 -2l65 31c19 10 45 18 61 18c97 0 158 -72 158 -172c0 -136 -106 -239 -223 -239c-110 0 -177 88 -177 208c0 203 136 356 323 415c46 15 87 23 127 29zM246 346c-34 0 -73 -19 -96 -33
c-9 -24 -18 -61 -18 -118c0 -89 31 -174 107 -174c73 0 123 84 123 190c0 61 -23 135 -116 135z" />
    <glyph glyph-name="seven" unicode="7" horiz-adv-x="477" 
d="M517 623l8 -12c-124 -203 -257 -409 -383 -613l-79 -10l-7 12c148 184 281 370 390 551h-210c-62 0 -73 -9 -109 -77l-27 8c18 45 31 95 43 141h374z" />
    <glyph glyph-name="eight" unicode="8" horiz-adv-x="477" 
d="M314 635c74 0 146 -51 146 -137c0 -35 -17 -72 -44 -95c-14 -11 -37 -29 -92 -65c63 -47 111 -90 111 -162c0 -102 -98 -188 -219 -188c-91 0 -175 55 -175 155c0 43 18 75 54 106c25 21 71 50 111 76c-42 33 -82 75 -82 141c0 92 86 169 190 169zM298 602
c-59 0 -99 -51 -99 -109c0 -73 56 -107 99 -137c56 37 87 85 87 143c0 62 -35 103 -87 103zM231 21c68 0 120 51 120 131c0 67 -51 106 -118 153c-65 -39 -110 -91 -110 -162c0 -69 40 -122 108 -122z" />
    <glyph glyph-name="nine" unicode="9" horiz-adv-x="477" 
d="M307 635c122 0 171 -108 171 -207c0 -206 -140 -355 -301 -414c-50 -18 -109 -29 -131 -29l-4 29c131 24 268 118 326 275l-73 -35c-21 -10 -41 -14 -57 -14c-81 0 -148 68 -148 167c0 123 102 228 217 228zM294 602c-69 0 -120 -79 -120 -172c0 -78 38 -134 113 -134
c29 0 69 13 89 29c10 28 18 68 18 118c0 45 -7 159 -100 159z" />
    <glyph glyph-name="colon" unicode=":" horiz-adv-x="235" 
d="M132 298c-28 0 -48 23 -48 52c0 36 24 62 57 62c28 0 49 -22 49 -53c0 -38 -28 -61 -58 -61zM87 -12c-29 0 -48 22 -48 52c0 36 24 62 58 62c28 0 48 -23 48 -53c0 -39 -28 -61 -58 -61z" />
    <glyph glyph-name="semicolon" unicode=";" horiz-adv-x="235" 
d="M129 298c-27 0 -47 23 -47 52c0 36 23 62 57 62c28 0 49 -22 49 -53c0 -38 -28 -61 -59 -61zM8 -114l-12 29c51 21 86 53 86 89c0 32 -16 53 -45 62c-5 1 -9 6 -8 14c1 27 25 47 49 47c44 0 71 -48 71 -92c0 -84 -77 -128 -141 -149z" />
    <glyph glyph-name="less" unicode="&#x3c;" horiz-adv-x="597" 
d="M517 0l-452 230v47l452 230v-55l-393 -198v-2l393 -197v-55z" />
    <glyph glyph-name="equal" unicode="=" horiz-adv-x="596" 
d="M552 321h-486v50h486v-50zM552 138h-486v50h486v-50z" />
    <glyph glyph-name="greater" unicode="&#x3e;" horiz-adv-x="597" 
d="M552 230l-451 -230v55l393 197v2l-393 198v55l451 -230v-47z" />
    <glyph glyph-name="question" unicode="?" horiz-adv-x="354" 
d="M201 212l-20 -21c-37 20 -86 66 -86 115c0 53 49 93 105 128c50 30 123 71 123 117c0 31 -21 51 -56 51c-64 1 -103 -51 -115 -51c-14 0 -34 19 -34 41c1 13 9 25 28 38c30 22 69 34 91 34h1c70 0 132 -68 132 -146c0 -46 -20 -79 -66 -109c-96 -63 -138 -86 -138 -127
c0 -25 14 -50 35 -70zM132 -12c-30 0 -51 23 -51 55c0 38 25 66 61 66c30 0 51 -24 51 -57c0 -41 -30 -64 -61 -64z" />
    <glyph glyph-name="at" unicode="@" horiz-adv-x="738" 
d="M541 -20l11 -28c-66 -36 -131 -52 -200 -52c-157 0 -298 107 -298 299c0 239 194 379 384 379c178 0 276 -117 276 -257c0 -137 -107 -250 -244 -250c-49 0 -50 31 -41 73l13 54l-2 1c-33 -49 -124 -128 -167 -128c-24 0 -48 31 -48 84c0 58 25 137 84 192
c40 39 99 69 159 71c14 1 40 -6 52 -8c10 -3 20 -4 31 -4c-15 -60 -35 -139 -54 -234c-9 -45 -5 -60 16 -59c64 1 154 67 154 209c0 139 -104 218 -237 218c-185 0 -311 -139 -311 -331c0 -124 68 -264 266 -264c65 0 123 18 156 35zM427 380c-26 0 -48 -12 -67 -32
c-27 -30 -61 -104 -61 -174c0 -31 8 -41 20 -41c19 0 71 32 134 127c10 29 21 76 28 108c-13 8 -34 12 -54 12z" />
    <glyph glyph-name="A" unicode="A" horiz-adv-x="664" 
d="M621 27l-7 -27h-236l7 27c69 7 73 18 67 61c-6 42 -15 90 -25 148h-209c-17 -32 -47 -90 -69 -136c-29 -60 -22 -67 54 -73l-6 -27h-215l7 27c62 8 72 13 119 96l300 533l31 8l28 -178c20 -128 42 -253 64 -372c12 -72 19 -80 90 -87zM421 278l-40 258h-2
c-50 -91 -96 -174 -139 -258h181z" />
    <glyph glyph-name="B" unicode="B" horiz-adv-x="579" 
d="M131 649h234c112 0 188 -36 188 -138c0 -90 -74 -139 -162 -157v-2c77 -16 146 -63 146 -156c0 -73 -48 -130 -115 -162c-55 -26 -123 -34 -201 -34h-214l7 27c77 7 85 12 100 93l82 418c14 72 10 77 -71 84zM242 367h51c110 0 170 56 170 143c0 84 -61 107 -118 107
c-22 0 -37 -3 -46 -9s-15 -17 -20 -44zM235 334l-39 -212c-14 -74 12 -88 78 -88c97 0 167 66 167 167c0 102 -72 133 -157 133h-49z" />
    <glyph glyph-name="C" unicode="C" horiz-adv-x="635" 
d="M582 174l26 -14c-16 -39 -57 -119 -79 -151c-31 -7 -102 -24 -172 -24c-167 0 -291 101 -291 288c0 237 184 391 414 391c81 0 144 -21 172 -32c-3 -51 -4 -105 -8 -153l-30 -3c-5 119 -57 154 -157 154c-175 0 -294 -169 -294 -354c0 -143 70 -257 204 -257
c101 0 159 68 215 155z" />
    <glyph glyph-name="D" unicode="D" horiz-adv-x="708" 
d="M129 649h250c192 0 318 -80 318 -271c0 -126 -61 -237 -165 -303c-86 -55 -181 -75 -307 -75h-216l7 27c77 8 83 15 98 93l79 408c14 79 10 84 -70 94zM280 556l-81 -427c-9 -50 -8 -69 11 -79c17 -10 42 -14 72 -14c204 0 319 160 319 347c0 153 -88 233 -234 233
c-29 0 -53 -3 -65 -11c-10 -5 -16 -16 -22 -49z" />
    <glyph glyph-name="E" unicode="E" horiz-adv-x="559" 
d="M129 649h434c-3 -18 -12 -94 -19 -153l-29 -2c0 38 -2 68 -13 88c-10 23 -23 33 -97 33h-78c-34 0 -36 -3 -43 -41l-43 -216h97c83 0 90 7 114 73h29l-38 -190h-29c2 71 2 78 -85 78h-95l-33 -175c-11 -58 -10 -84 4 -96c15 -12 45 -14 101 -14c75 0 104 8 132 34
c24 23 47 60 68 96l28 -10c-11 -27 -49 -123 -64 -154h-468l6 27c82 7 90 12 105 93l80 410c15 80 10 85 -72 92z" />
    <glyph glyph-name="F" unicode="F" horiz-adv-x="527" 
d="M132 649h431c-2 -18 -11 -95 -18 -153l-29 -2c-1 32 -3 66 -11 86c-8 25 -25 35 -97 35h-81c-34 0 -36 -5 -43 -39l-44 -229h105c86 0 90 7 117 72h28l-38 -192h-28c0 73 -2 81 -88 81h-104l-34 -183c-16 -84 -8 -91 83 -98l-7 -27h-263l6 27c75 7 83 13 99 98l76 398
c17 88 13 91 -67 99z" />
    <glyph glyph-name="G" unicode="G" horiz-adv-x="681" 
d="M654 477l-29 -3c1 113 -56 156 -160 156c-185 0 -301 -166 -301 -351c0 -150 76 -260 217 -260c62 0 104 18 114 71l20 94c15 74 10 77 -89 86l6 27h244l-6 -26c-56 -9 -59 -12 -74 -87l-16 -84c-6 -30 -8 -57 -5 -79c-63 -14 -132 -36 -212 -36
c-173 0 -296 103 -296 286c0 228 174 393 423 393c81 0 146 -21 176 -31c-3 -30 -8 -87 -12 -156z" />
    <glyph glyph-name="H" unicode="H" horiz-adv-x="742" 
d="M787 649l-7 -27c-77 -7 -82 -13 -98 -95l-77 -406c-15 -80 -11 -87 70 -94l-6 -27h-254l7 27c79 7 86 14 101 94l38 202h-327l-38 -202c-15 -82 -10 -87 71 -94l-6 -27h-248l6 27c75 7 80 14 95 94l78 406c16 82 11 88 -71 95l7 27h247l-6 -27c-72 -7 -80 -14 -96 -95
l-30 -162h326l31 162c16 82 11 87 -67 95l6 27h248z" />
    <glyph glyph-name="I" unicode="I" horiz-adv-x="335" 
d="M380 649l-6 -27c-79 -7 -83 -13 -98 -86l-80 -420c-15 -77 -9 -83 73 -89l-6 -27h-256l7 27c78 6 85 13 99 89l82 420c14 74 7 79 -76 86l6 27h255z" />
    <glyph glyph-name="J" unicode="J" horiz-adv-x="321" 
d="M375 649l-6 -27c-73 -9 -78 -12 -93 -91l-74 -401c-24 -129 -64 -201 -141 -245c-30 -18 -62 -28 -77 -30l-10 30c44 13 86 43 110 107c17 43 29 96 40 158l71 381c15 81 7 83 -72 91l6 27h246z" />
    <glyph glyph-name="K" unicode="K" horiz-adv-x="653" 
d="M715 649l-7 -26c-74 -11 -92 -19 -154 -68c-59 -47 -131 -110 -219 -186c52 -87 137 -214 182 -275c38 -51 54 -60 110 -67l-7 -27h-144c-62 95 -130 195 -187 290c-21 34 -35 39 -58 29l-34 -191c-17 -89 -13 -94 66 -101l-5 -27h-246l7 27c72 7 80 12 97 101l76 397
c16 84 11 89 -66 97l6 27h242l-6 -27c-76 -8 -80 -13 -96 -97l-35 -177c25 8 51 25 75 45c51 42 130 112 202 183c29 28 28 37 -7 42l-29 4l6 27h231z" />
    <glyph glyph-name="L" unicode="L" horiz-adv-x="532" 
d="M484 166l28 -10c-12 -33 -50 -126 -64 -156h-441l6 26c77 7 84 14 99 90l82 418c15 77 10 81 -71 88l6 27h250l-6 -27c-80 -7 -84 -12 -98 -88l-79 -415c-7 -36 -5 -60 11 -72c14 -11 46 -13 90 -13c58 0 92 6 117 31c22 21 44 51 70 101z" />
    <glyph glyph-name="M" unicode="M" horiz-adv-x="876" 
d="M910 649l-7 -27c-87 -7 -89 -11 -102 -94c-22 -144 -37 -261 -54 -393c-13 -98 -6 -101 74 -108l-7 -27h-253l7 27c77 7 83 12 97 108c22 148 44 280 66 421h-2l-331 -552h-23c-32 179 -64 350 -102 541h-2l-72 -263c-28 -103 -43 -157 -47 -193c-7 -43 2 -55 76 -62
l-6 -27h-226l7 27c58 5 78 19 94 61c16 41 35 101 72 229l56 190c29 100 23 106 -71 115l7 27h166c34 -164 69 -322 109 -501l312 501h162z" />
    <glyph glyph-name="N" unicode="N" horiz-adv-x="705" 
d="M766 649l-6 -27c-60 -3 -74 -19 -87 -63c-8 -25 -21 -77 -38 -170l-76 -397h-30l-296 530h-3l-52 -266c-17 -86 -24 -135 -26 -168c-2 -46 16 -56 85 -61l-6 -27h-229l7 27c52 3 75 15 88 58c11 36 22 81 41 173l52 247c11 50 7 65 -6 87c-12 21 -29 27 -84 30l6 27h143
l295 -509h4l46 249c18 93 25 144 27 172c3 46 -13 56 -87 61l7 27h225z" />
    <glyph glyph-name="O" unicode="O" horiz-adv-x="708" 
d="M430 664c160 0 266 -118 266 -286c0 -212 -152 -393 -365 -393c-157 0 -265 115 -265 284c0 209 155 395 364 395zM422 630c-157 0 -261 -195 -261 -370c0 -135 56 -241 179 -241c167 0 261 204 261 369c0 133 -48 242 -179 242z" />
    <glyph glyph-name="P" unicode="P" horiz-adv-x="554" 
d="M132 649h227c141 0 211 -59 211 -169c0 -142 -131 -210 -239 -217c-13 -1 -26 -1 -38 -1l-67 21l-31 -159c-16 -83 -9 -89 82 -97l-5 -27h-266l7 27c77 8 84 13 101 97l81 406c15 78 11 84 -70 92zM279 562l-46 -247c13 -5 37 -13 73 -13c71 0 174 47 174 182
c0 83 -46 134 -134 134c-16 0 -31 -3 -42 -8c-12 -5 -19 -16 -25 -48z" />
    <glyph glyph-name="Q" unicode="Q" horiz-adv-x="709" 
d="M663 -139l-8 -22c-42 1 -93 10 -118 17c-30 8 -96 38 -214 121l-14 10c-146 10 -243 121 -243 280c0 211 155 397 364 397c160 0 266 -118 266 -287c0 -176 -110 -332 -268 -377l13 -9c73 -53 157 -100 222 -130zM301 23l70 17c8 -5 16 -11 24 -17
c129 35 206 216 206 364c0 133 -49 243 -179 243c-155 0 -261 -195 -261 -372c0 -119 48 -215 140 -235z" />
    <glyph glyph-name="R" unicode="R" horiz-adv-x="599" 
d="M585 17l-9 -25h-10c-95 5 -129 31 -165 98c-26 49 -47 97 -68 148c-16 38 -29 46 -65 46h-42l-29 -157c-17 -88 -11 -93 70 -100l-6 -27h-251l6 27c77 8 83 12 100 100l77 402c16 82 12 86 -68 93l7 27h217c54 0 107 -7 141 -31c35 -23 60 -63 60 -123
c0 -101 -75 -163 -155 -191c11 -28 37 -89 60 -134s41 -77 62 -105c23 -31 43 -40 68 -48zM232 316h47c43 0 78 6 107 25c45 30 75 84 75 146c0 87 -45 131 -118 131c-20 0 -36 -3 -45 -10c-9 -6 -14 -18 -19 -44z" />
    <glyph glyph-name="S" unicode="S" horiz-adv-x="468" 
d="M38 195l27 3c10 -76 52 -180 161 -180c72 0 122 50 122 129c0 57 -35 96 -94 142l-29 22c-45 36 -111 91 -111 174c0 104 82 179 203 179c33 0 67 -6 95 -16c19 -7 36 -13 43 -16c-3 -42 -1 -95 -2 -141l-29 -3c-8 76 -35 143 -120 143c-70 0 -112 -55 -112 -116
c0 -59 41 -95 93 -134l30 -23c69 -51 116 -104 116 -183c0 -116 -102 -190 -218 -190c-80 0 -150 36 -172 61c-1 24 -1 78 -3 149z" />
    <glyph glyph-name="T" unicode="T" horiz-adv-x="603" 
d="M635 674h22c-8 -45 -17 -122 -23 -176l-31 -2c1 38 -2 68 -11 89c-10 24 -30 30 -107 30h-61l-93 -495c-15 -81 -7 -87 83 -93l-6 -27h-272l6 27c84 6 91 13 106 93l95 495h-52c-85 0 -104 -7 -122 -29c-16 -19 -32 -50 -50 -91l-30 1c18 58 36 123 48 178h21
c10 -23 21 -25 48 -25h376c27 0 35 6 53 25z" />
    <glyph glyph-name="U" unicode="U" horiz-adv-x="707" 
d="M773 649l-6 -27c-67 -3 -78 -18 -88 -54c-10 -35 -22 -87 -40 -180l-16 -77c-21 -108 -51 -199 -118 -261c-49 -45 -112 -65 -170 -65c-56 0 -112 15 -154 54c-45 43 -68 118 -45 242l48 252c15 77 10 82 -69 89l7 27h247l-6 -27c-76 -7 -82 -10 -97 -89l-46 -245
c-35 -183 39 -251 137 -251c120 0 189 87 227 281l14 70c18 94 25 147 26 180c3 41 -15 50 -87 54l6 27h230z" />
    <glyph glyph-name="V" unicode="V" horiz-adv-x="675" 
d="M749 649l-7 -26c-64 -8 -74 -12 -125 -94c-44 -69 -189 -328 -304 -540h-30c-30 186 -74 430 -97 546c-15 77 -25 81 -87 88l7 26h229l-7 -26l-27 -4c-39 -6 -43 -14 -38 -49c9 -71 49 -274 80 -450h2c82 147 189 337 233 430c26 55 19 63 -25 68l-30 5l7 26h219z" />
    <glyph glyph-name="W" unicode="W" horiz-adv-x="949" 
d="M1009 649l-6 -27c-66 -9 -72 -13 -113 -93c-38 -72 -126 -260 -255 -540h-31l-81 497h-3l-239 -497h-30l-61 537c-9 85 -13 89 -81 96l6 27h226l-7 -27l-24 -3c-41 -6 -47 -12 -41 -66l43 -418h3l236 502h29l83 -503h2c62 135 148 319 186 419c19 51 14 59 -36 65l-26 4
l6 27h214z" />
    <glyph glyph-name="X" unicode="X" horiz-adv-x="642" 
d="M680 649l-6 -27c-69 -8 -79 -10 -132 -68c-29 -33 -75 -86 -162 -193l111 -246c34 -76 41 -81 118 -88l-6 -27h-252l6 27l31 4c36 5 42 13 28 48c-14 33 -37 88 -93 214c-67 -85 -121 -154 -161 -214c-20 -31 -19 -42 23 -49l24 -3l-6 -27h-227l7 27c64 6 79 13 128 65
c33 36 109 127 195 235l-96 217c-30 67 -39 71 -106 78l6 27h232l-6 -27l-26 -4c-33 -6 -38 -10 -28 -39c18 -48 46 -106 82 -185c48 58 95 119 138 179c22 31 17 39 -16 45l-29 4l6 27h217z" />
    <glyph glyph-name="Y" unicode="Y" horiz-adv-x="611" 
d="M686 649l-8 -27c-63 -7 -75 -12 -125 -75c-45 -57 -99 -131 -165 -226c-14 -19 -19 -33 -24 -56l-28 -141c-17 -85 -9 -89 80 -97l-7 -27h-266l7 27c81 6 88 11 105 97l26 135c5 21 4 35 -5 59c-23 63 -48 129 -88 234c-23 58 -28 63 -92 70l7 27h231l-6 -27l-35 -4
c-35 -5 -37 -13 -28 -42c20 -56 63 -173 92 -242c47 67 120 168 160 236c21 35 14 42 -23 48l-31 4l7 27h216z" />
    <glyph glyph-name="Z" unicode="Z" horiz-adv-x="588" 
d="M611 649l6 -13c-166 -199 -328 -395 -491 -596c40 -4 89 -6 155 -6c97 0 153 4 184 31c27 23 48 59 74 111l28 -12c-11 -33 -44 -130 -60 -164h-499l-7 15c167 199 331 397 496 600h-158c-100 0 -118 -10 -138 -35c-14 -17 -30 -44 -50 -95l-29 2c17 63 32 134 41 187h21
c12 -23 22 -25 50 -25h377z" />
    <glyph glyph-name="bracketleft" unicode="[" horiz-adv-x="338" 
d="M384 704l-7 -27c-104 -10 -107 -12 -123 -95l-119 -622c-16 -83 -12 -85 92 -95l-7 -27h-171l166 866h169z" />
    <glyph glyph-name="backslash" unicode="\" horiz-adv-x="375" 
d="M325 -45h-53l-192 709h53z" />
    <glyph glyph-name="bracketright" unicode="]" horiz-adv-x="338" 
d="M320 704l-166 -866h-169l7 27c105 10 107 12 123 95l120 622c15 83 11 85 -93 95l7 27h171z" />
    <glyph glyph-name="asciicircum" unicode="^" horiz-adv-x="552" 
d="M503 211h-59l-156 347l-156 -347h-55l192 412h42z" />
    <glyph glyph-name="underscore" unicode="_" horiz-adv-x="500" 
d="M500 -125h-500v50h500v-50z" />
    <glyph glyph-name="quoteleft" unicode="&#x2018;" horiz-adv-x="217" 
d="M254 715l11 -28c-47 -18 -86 -46 -88 -89c-2 -30 19 -48 50 -56c5 -1 11 -7 10 -17c-1 -26 -25 -40 -44 -40c-35 0 -80 34 -78 94c3 79 81 120 139 136z" />
    <glyph glyph-name="a" unicode="a" horiz-adv-x="490" 
d="M454 116l12 -24c-55 -67 -122 -104 -147 -104c-19 0 -32 15 -17 88l20 95h-3c-38 -55 -86 -103 -129 -138c-33 -27 -66 -45 -93 -45c-26 0 -58 33 -58 112c0 101 47 211 120 272c51 42 124 77 187 77c20 0 40 -3 62 -8c13 -3 27 -6 38 -6l2 -4c-16 -62 -46 -198 -69 -325
c-6 -34 -3 -43 2 -43c9 0 43 24 73 53zM149 52c39 0 153 126 186 196c12 39 27 111 33 143c-14 7 -40 14 -66 14c-27 0 -54 -8 -72 -21c-68 -50 -108 -167 -108 -266c0 -45 12 -66 27 -66z" />
    <glyph glyph-name="b" unicode="b" horiz-adv-x="486" 
d="M105 654l2 25c77 8 133 33 149 33c9 0 9 -10 4 -30c-33 -138 -60 -255 -88 -383h2c86 105 171 150 217 150c44 0 71 -44 71 -110c0 -110 -66 -237 -154 -296c-61 -41 -114 -55 -151 -55c-32 0 -65 18 -80 43c-14 24 -18 60 -5 125c28 137 62 287 95 449c9 46 5 48 -33 49
h-29zM206 34c18 0 38 6 53 15c59 35 120 151 120 273c0 51 -15 71 -34 71c-35 0 -118 -63 -182 -154c-6 -18 -12 -45 -18 -78c-17 -98 20 -127 61 -127z" />
    <glyph glyph-name="c" unicode="c" horiz-adv-x="382" 
d="M336 121l15 -22c-61 -71 -141 -111 -200 -111c-64 0 -107 51 -107 146c0 84 39 182 104 240c40 37 110 75 159 75c43 0 75 -25 76 -50c1 -15 -10 -34 -32 -46c-9 -5 -16 -3 -22 6c-21 29 -45 43 -76 43c-35 0 -63 -30 -83 -67c-24 -44 -43 -112 -43 -180
c0 -71 27 -108 70 -108c51 0 112 46 139 74z" />
    <glyph glyph-name="d" unicode="d" horiz-adv-x="508" 
d="M470 112l14 -23c-53 -63 -118 -101 -147 -101c-20 0 -34 16 -18 93l18 85l-2 -1c-45 -60 -97 -104 -132 -131c-37 -30 -69 -46 -97 -46c-33 0 -65 40 -65 120c0 94 43 201 116 264c47 41 130 77 177 77c14 0 35 -1 59 -11l33 164c9 46 6 50 -38 50h-32l3 25
c84 9 138 35 153 35c9 0 11 -8 7 -28c-47 -200 -89 -394 -124 -589c-4 -23 -3 -32 4 -32c12 0 44 22 71 49zM155 53c51 0 161 124 194 184l32 143c-15 14 -51 26 -81 26s-52 -8 -69 -21c-67 -48 -107 -174 -107 -258c0 -51 14 -74 31 -74z" />
    <glyph glyph-name="e" unicode="e" 
d="M349 124l16 -23c-87 -94 -162 -113 -210 -113c-47 0 -111 27 -111 146c0 93 42 198 121 258c42 33 95 57 138 57c53 0 87 -38 87 -80c0 -99 -167 -153 -264 -177c-1 -13 -1 -23 -1 -32c0 -54 16 -113 77 -113c42 0 96 28 147 77zM266 407c-15 0 -31 -4 -42 -11
c-26 -16 -76 -62 -94 -174c143 39 186 84 186 131c0 34 -21 54 -50 54z" />
    <glyph glyph-name="f" unicode="f" horiz-adv-x="271" 
d="M79 431h63c15 76 40 151 85 201c46 51 103 80 143 80c35 0 61 -25 60 -42c0 -16 -15 -34 -25 -42c-9 -6 -18 -7 -25 1c-21 23 -42 35 -63 35c-37 0 -68 -48 -98 -233h113l-20 -32l-100 -10c-19 -110 -29 -168 -52 -279c-35 -172 -72 -247 -127 -304
c-44 -47 -86 -63 -112 -63c-29 0 -63 21 -63 43c0 13 13 30 28 42c8 7 13 6 19 0c15 -15 45 -25 63 -25c17 0 32 8 43 20c13 15 36 57 70 251c23 137 37 219 53 317h-82l-3 12z" />
    <glyph glyph-name="g" unicode="g" horiz-adv-x="420" 
d="M469 444l7 -18c-29 -31 -55 -43 -71 -47c-8 -1 -15 -2 -26 -3c4 -13 8 -29 8 -55c0 -72 -40 -124 -76 -154c-27 -22 -72 -47 -129 -58c-12 -9 -20 -20 -20 -31c0 -16 25 -34 72 -59c96 -50 135 -90 135 -133c0 -82 -140 -143 -236 -143c-97 0 -181 50 -179 112
c2 43 58 88 168 144c-24 16 -38 36 -37 50c0 15 14 33 62 61c-58 13 -88 54 -88 122c0 65 33 127 84 167c41 33 92 50 128 50c32 0 63 -9 85 -28c57 1 93 12 113 23zM200 149c53 0 113 61 113 168c0 57 -23 97 -67 97c-29 0 -55 -18 -72 -45c-22 -31 -38 -77 -38 -130
c0 -59 28 -90 64 -90zM173 -215c75 0 123 35 123 74c0 27 -27 53 -73 80c-33 19 -61 35 -75 42c-67 -32 -110 -72 -110 -109c0 -50 65 -87 135 -87z" />
    <glyph glyph-name="h" unicode="h" horiz-adv-x="511" 
d="M466 108l12 -24c-53 -61 -115 -96 -144 -96c-26 0 -33 28 -17 97l53 231c13 54 8 72 -8 72c-46 0 -163 -112 -211 -199c-11 -45 -29 -134 -38 -182c-23 -5 -49 -11 -71 -19l-7 8c43 193 87 395 127 599c10 53 5 56 -34 56l-29 1l4 25c78 8 132 35 145 35c9 0 10 -8 4 -35
l-89 -415h2c66 89 140 142 185 166c26 14 49 21 68 21c25 0 52 -19 27 -127l-52 -223c-6 -29 -4 -36 3 -37c10 0 42 19 70 46z" />
    <glyph glyph-name="i" unicode="i" horiz-adv-x="273" 
d="M221 640c26 0 40 -21 40 -45c1 -30 -22 -57 -53 -57c-23 0 -40 17 -40 43c-1 26 19 59 53 59zM223 109l13 -22c-34 -40 -111 -99 -145 -99c-20 0 -34 16 -14 98l63 255c5 22 5 32 -1 32c-8 0 -38 -17 -69 -42l-12 22c55 54 125 95 151 95c23 0 22 -32 10 -79l-68 -275
c-6 -24 -4 -32 2 -32c12 0 46 26 70 47z" />
    <glyph glyph-name="j" unicode="j" horiz-adv-x="266" 
d="M216 647c26 0 40 -21 40 -44c0 -31 -22 -58 -53 -58c-24 0 -42 17 -42 44c0 25 20 58 55 58zM68 321l-13 23c60 63 129 105 158 105c22 0 22 -33 8 -104c-16 -84 -34 -168 -56 -279c-24 -120 -64 -209 -118 -260c-49 -47 -89 -63 -107 -63c-19 0 -43 13 -43 32
c0 16 12 34 24 44c6 6 14 9 22 5c14 -9 32 -17 49 -17c29 0 49 31 67 108c25 103 45 216 81 398c10 47 9 57 1 57c-9 0 -46 -25 -73 -49z" />
    <glyph glyph-name="k" unicode="k" horiz-adv-x="470" 
d="M437 99l17 -20c-47 -74 -89 -91 -110 -91s-41 12 -66 66c-25 51 -51 115 -76 186c-26 -27 -46 -47 -56 -64c-11 -54 -24 -112 -34 -169c-26 -5 -51 -12 -73 -19l-6 6c48 203 93 404 136 613c8 40 3 44 -36 45h-31l5 25c81 9 134 35 147 35c10 0 9 -10 5 -30
c-34 -148 -67 -295 -101 -444h2c31 36 57 61 86 89c56 58 129 122 175 122c27 0 41 -17 41 -31c0 -13 -9 -30 -19 -40c-6 -6 -12 -8 -16 -6c-9 4 -21 8 -38 8c-47 0 -102 -51 -131 -83c19 -62 59 -152 82 -196c19 -37 29 -48 40 -48c10 0 32 17 57 46z" />
    <glyph glyph-name="l" unicode="l" horiz-adv-x="249" 
d="M215 117l15 -22c-51 -62 -122 -107 -153 -107c-20 0 -36 23 -15 121c35 164 70 328 104 492c10 44 4 50 -41 51h-28l4 25c78 8 135 35 148 35c9 0 10 -9 6 -30c-41 -193 -82 -388 -123 -585c-6 -29 -2 -35 4 -35c11 0 51 26 79 55z" />
    <glyph glyph-name="m" unicode="m" horiz-adv-x="787" 
d="M735 109l13 -25c-53 -60 -116 -96 -141 -96c-24 0 -33 29 -15 102l53 231c12 49 6 65 -9 65c-48 0 -169 -141 -204 -208c-12 -47 -28 -113 -39 -172c-27 -3 -52 -10 -73 -17l-6 6c25 101 51 203 72 300c14 68 12 91 -8 91c-49 0 -170 -144 -202 -208
c-14 -45 -29 -112 -41 -172c-26 -3 -51 -10 -72 -17l-7 6c30 113 58 227 83 339c8 37 5 42 -1 43c-10 0 -45 -26 -69 -49l-12 25c56 60 115 96 141 96c25 0 29 -37 8 -124l-18 -70h2c69 96 138 149 180 174c23 13 42 20 61 20c28 0 53 -25 24 -152l-9 -41h2
c68 95 140 150 184 174c25 13 42 19 60 19c21 0 53 -12 22 -145l-49 -209c-6 -25 -4 -32 2 -32c9 0 39 18 68 46z" />
    <glyph glyph-name="n" unicode="n" horiz-adv-x="532" 
d="M480 109l15 -24c-59 -65 -115 -97 -141 -97c-24 0 -34 27 -15 104c18 74 35 148 52 222c14 57 8 71 -7 71c-44 0 -160 -123 -210 -208c-12 -49 -27 -108 -39 -169c-26 -5 -53 -12 -72 -19l-6 7c28 109 57 228 82 339c7 32 4 40 -2 40c-9 0 -39 -21 -64 -45l-14 24
c55 58 113 95 141 95c22 0 26 -34 8 -111l-21 -87h2c68 93 142 151 184 175c26 16 47 23 66 23c25 0 53 -15 23 -143c-16 -68 -33 -138 -49 -207c-6 -27 -5 -36 2 -36c9 0 36 17 65 46z" />
    <glyph glyph-name="o" unicode="o" horiz-adv-x="470" 
d="M178 -12c-95 0 -132 75 -132 155c0 130 69 230 152 273c36 20 77 33 109 33c82 0 132 -57 132 -156c0 -86 -37 -184 -107 -242c-43 -36 -98 -63 -154 -63zM214 28c12 0 22 2 33 6c53 23 109 129 108 257c0 81 -35 119 -81 119c-15 0 -27 -3 -38 -8
c-39 -18 -106 -100 -106 -253c0 -74 31 -121 84 -121z" />
    <glyph glyph-name="p" unicode="p" horiz-adv-x="486" 
d="M238 513l-17 -77c28 9 66 13 93 13c103 0 144 -50 144 -139c0 -65 -28 -142 -85 -206c-50 -56 -122 -100 -186 -116c-16 0 -40 2 -59 10l-28 -140c-11 -58 -6 -66 43 -71l25 -2l-4 -26l-231 -11l5 25c62 12 74 21 87 82c37 175 75 349 112 522c-32 -11 -59 -24 -81 -37
l-7 26c27 19 62 36 96 49l11 46c18 22 50 44 73 58zM212 399l-69 -333c12 -16 38 -34 63 -34c71 0 168 135 168 262c0 90 -47 112 -105 112c-16 0 -38 -3 -57 -7z" />
    <glyph glyph-name="q" unicode="q" horiz-adv-x="484" 
d="M416 -216l-4 -24l-232 -12l5 25l17 3c46 11 58 19 70 80l64 308h-2c-31 -40 -82 -90 -127 -126c-37 -29 -76 -50 -105 -50c-35 0 -64 46 -64 112c0 106 49 207 117 267c47 41 113 68 151 76c14 3 35 6 53 6c20 0 61 -8 86 -15l16 -4c-11 -45 -29 -121 -47 -219l-65 -348
c-12 -64 -4 -70 43 -75zM307 405c-27 0 -55 -8 -75 -22c-70 -50 -110 -169 -110 -257c0 -47 13 -71 30 -71c48 0 146 102 191 172c9 33 25 106 35 163c-17 9 -42 15 -71 15z" />
    <glyph glyph-name="r" unicode="r" horiz-adv-x="366" 
d="M189 283h3c52 98 111 166 151 166c17 0 34 -12 43 -26c7 -12 7 -29 -1 -42c-7 -12 -17 -23 -27 -30c-8 -6 -16 -5 -22 0c-11 11 -22 17 -33 17c-12 0 -28 -11 -51 -43c-22 -31 -53 -78 -72 -123c-15 -67 -27 -129 -40 -195c-21 -4 -48 -11 -71 -18l-7 7
c25 107 54 230 73 336c6 34 5 44 -2 44c-9 0 -42 -21 -71 -48l-14 23c51 56 113 98 140 98c26 0 27 -46 12 -116z" />
    <glyph glyph-name="s" unicode="s" horiz-adv-x="337" 
d="M113 -12c-47 0 -101 37 -101 72c-1 17 12 32 29 42c13 6 20 4 25 -3c26 -39 63 -61 96 -61c40 0 67 28 67 60c0 25 -11 47 -59 84c-45 34 -87 71 -87 122c0 29 12 62 52 96c31 27 79 49 112 49c43 0 77 -30 77 -56c0 -17 -10 -32 -25 -42c-9 -6 -16 -4 -22 5
c-20 25 -44 45 -78 45c-29 0 -54 -22 -54 -56c0 -36 29 -61 66 -89c59 -45 83 -74 83 -117c0 -76 -100 -151 -181 -151z" />
    <glyph glyph-name="t" unicode="t" horiz-adv-x="307" 
d="M338 431l-26 -35l-100 -4l-58 -274c-11 -49 -5 -60 6 -60c17 0 65 33 89 58l15 -21c-33 -40 -109 -107 -162 -107c-23 0 -43 29 -20 132l58 271h-74l-3 9l25 31h61l23 94l75 63l10 -6l-36 -151h117z" />
    <glyph glyph-name="u" unicode="u" horiz-adv-x="533" 
d="M492 113l13 -23c-48 -58 -115 -102 -145 -102c-21 0 -35 19 -15 106c8 34 12 54 19 88h-2c-49 -66 -108 -126 -161 -163c-28 -20 -57 -31 -81 -31c-27 0 -59 19 -34 127c19 77 37 153 55 230c6 24 4 32 -2 33c-8 0 -36 -19 -70 -48l-12 25c59 58 121 94 148 94
c22 0 26 -20 11 -87c-18 -80 -37 -160 -56 -240c-11 -49 -4 -66 12 -66c55 0 167 134 207 207c11 46 23 98 36 160l69 26h11c-27 -106 -54 -218 -79 -348c-5 -31 -3 -40 4 -40c9 0 44 24 72 52z" />
    <glyph glyph-name="v" unicode="v" horiz-adv-x="447" 
d="M219 87h2c41 51 155 197 155 264c0 17 -3 33 -10 44c-4 7 -4 16 0 24c6 17 24 30 42 30c24 0 42 -24 43 -57c0 -31 -16 -71 -61 -134c-59 -81 -148 -196 -208 -270h-27c-3 93 -14 250 -19 311c-4 59 -10 77 -18 77s-27 -16 -58 -53l-17 22c36 52 88 104 120 104
c26 0 38 -38 43 -111c5 -88 10 -169 13 -251z" />
    <glyph glyph-name="w" unicode="w" horiz-adv-x="670" 
d="M457 91h2c41 56 141 194 142 257c0 21 -5 36 -11 47c-4 7 -3 16 0 25c7 15 24 29 41 29c25 0 43 -23 43 -57s-18 -68 -41 -105c-34 -55 -154 -222 -211 -299h-28c-8 106 -18 211 -28 311h-2c-64 -106 -137 -223 -191 -311h-26c-1 97 -6 226 -10 322c-2 48 -5 66 -15 66
c-7 0 -23 -12 -60 -51l-16 20c42 55 93 104 127 104c23 0 34 -31 36 -99c2 -80 4 -170 3 -237h2c60 103 127 212 186 320h25c11 -112 20 -228 32 -342z" />
    <glyph glyph-name="x" unicode="x" horiz-adv-x="473" 
d="M87 324l-18 20c43 62 87 105 119 105c27 0 41 -38 64 -110l18 -55c84 122 127 165 170 165c26 0 42 -22 42 -43c-1 -24 -24 -45 -39 -45c-5 0 -10 3 -15 9c-6 7 -13 12 -22 12c-15 0 -35 -17 -61 -50c-21 -25 -43 -51 -64 -82l32 -100c19 -63 34 -92 50 -92s40 20 72 58
l17 -20c-46 -71 -92 -108 -127 -108c-25 0 -47 29 -66 91l-31 98c-89 -140 -135 -189 -182 -189c-26 0 -47 21 -46 48c0 24 22 47 40 47c7 0 12 -4 16 -10c6 -6 14 -10 23 -10c29 0 76 58 139 150l-34 105c-15 48 -24 63 -34 63c-9 0 -28 -13 -63 -57z" />
    <glyph glyph-name="y" unicode="y" horiz-adv-x="442" 
d="M239 75h2c43 66 135 202 135 275c-1 20 -7 35 -12 47c-3 7 -2 17 2 24c7 16 25 28 42 28c23 0 39 -22 40 -55c0 -28 -11 -62 -36 -106c-42 -76 -127 -208 -181 -283c-59 -85 -124 -173 -180 -235l-104 -27l-8 22c107 71 186 158 235 224c-1 79 -17 235 -31 326
c-6 50 -13 62 -21 62s-33 -23 -58 -58l-17 22c32 50 82 108 118 108c28 0 43 -38 52 -118c9 -75 16 -165 22 -256z" />
    <glyph glyph-name="z" unicode="z" horiz-adv-x="418" 
d="M420 463l21 -21c-13 -16 -31 -37 -58 -68c-64 -72 -195 -204 -270 -282c19 2 45 -4 76 -16c31 -11 65 -24 90 -24c27 0 57 17 102 86l22 -19c-54 -108 -94 -139 -138 -139c-32 0 -90 27 -133 49c-32 15 -50 15 -63 5c-11 -7 -23 -21 -31 -35c-4 -6 -7 -8 -12 -8
c-7 11 -25 36 35 100c69 74 186 186 278 285c-16 -3 -38 -4 -61 -2c-26 2 -70 6 -95 6c-46 0 -70 -35 -99 -86l-25 13c13 31 25 55 40 80c24 38 49 59 74 59c27 0 57 -4 106 -12c45 -8 63 -9 80 -9c16 0 37 11 61 38z" />
    <glyph glyph-name="braceleft" unicode="{" horiz-adv-x="338" 
d="M383 710l-2 -27c-73 -9 -91 -45 -99 -91c-5 -28 -8 -66 -10 -95c-2 -28 -4 -81 -10 -109c-10 -56 -41 -102 -101 -115l-1 -4c41 -10 62 -39 62 -82c0 -46 -22 -93 -36 -142c-8 -32 -27 -86 -27 -123c0 -40 29 -58 67 -63l-7 -27c-60 0 -122 18 -122 95
c0 38 17 101 32 152c8 28 27 87 27 117c0 36 -26 57 -73 60l6 29c85 6 96 55 103 89c4 20 6 45 10 89c6 61 11 93 16 123c21 110 109 124 165 124z" />
    <glyph glyph-name="bar" unicode="|" horiz-adv-x="239" 
d="M164 -250h-63v1000h63v-1000z" />
    <glyph glyph-name="braceright" unicode="}" horiz-adv-x="338" 
d="M292 285l-6 -28c-86 -6 -95 -54 -102 -89c-4 -20 -6 -45 -10 -89c-6 -61 -11 -93 -17 -123c-20 -110 -109 -124 -166 -124l4 27c71 10 90 46 98 90c5 29 9 67 11 96c1 28 4 80 9 108c11 57 42 103 100 116l1 4c-44 10 -64 47 -60 97c2 36 22 86 34 127c9 32 23 76 25 107
c4 45 -14 72 -65 79l7 27c54 0 130 -16 122 -108c-1 -36 -16 -88 -31 -139c-10 -34 -25 -79 -26 -105c-3 -35 14 -69 72 -73z" />
    <glyph glyph-name="asciitilde" unicode="~" horiz-adv-x="563" 
d="M504 294l37 -20c-21 -71 -64 -113 -127 -113c-47 0 -88 23 -127 46c-35 20 -60 31 -90 31c-41 0 -69 -26 -91 -84l-35 25c39 96 93 108 130 108c40 0 70 -11 114 -36c42 -24 73 -40 105 -40c40 0 64 26 84 83z" />
    <glyph glyph-name="exclamdown" unicode="&#xa1;" horiz-adv-x="258" 
d="M223 391c0 -38 -28 -64 -61 -64c-30 0 -52 24 -52 56c0 40 28 65 61 65h1c29 0 51 -24 51 -57zM154 239c-12 -120 -25 -239 -38 -360c-4 -42 -6 -65 -9 -80c-4 -22 -22 -29 -58 -29h-1c-36 0 -51 9 -48 29c3 16 10 39 22 80c34 120 67 239 101 359c5 7 28 6 31 1z" />
    <glyph glyph-name="cent" unicode="&#xa2;" horiz-adv-x="477" 
d="M369 620l-16 -80c52 0 86 -17 104 -32c9 -7 13 -16 13 -26c0 -20 -22 -40 -37 -40c-5 0 -10 3 -15 9c-20 26 -43 42 -74 46l-66 -348c5 0 9 -1 13 -1c38 0 82 13 131 54l15 -22c-53 -56 -116 -84 -170 -88l-19 -97h-35l19 98c-87 7 -160 71 -160 183
c0 137 118 243 245 261l16 83h36zM243 156l66 343c-102 -2 -155 -95 -155 -200c0 -83 42 -131 89 -143z" />
    <glyph glyph-name="sterling" unicode="&#xa3;" horiz-adv-x="477" 
d="M380 297h-164c-13 -96 -56 -150 -115 -198c32 0 65 -11 105 -30c37 -18 82 -35 118 -35c39 0 59 16 63 44c2 12 1 25 -2 34c-2 7 0 15 6 23c14 15 28 26 39 26c14 0 21 -22 16 -48c-7 -38 -42 -83 -83 -108c-27 -17 -59 -32 -93 -32c-44 0 -91 28 -135 53
c-30 17 -47 24 -64 24c-12 0 -30 -9 -49 -42c-5 -8 -9 -12 -14 -12c-10 5 -27 18 -5 46c11 16 35 39 57 59c53 50 68 124 71 196h-89l8 35h82c1 27 3 56 7 82c10 69 41 129 105 178c35 26 80 44 109 44c47 0 80 -26 89 -41c6 -11 6 -21 0 -31c-4 -7 -14 -16 -20 -21
c-9 -6 -19 -5 -27 3c-21 21 -45 42 -83 42c-48 0 -76 -36 -86 -100c-7 -45 -7 -102 -8 -156h169z" />
    <glyph glyph-name="fraction" unicode="&#x2044;" horiz-adv-x="165" 
d="M373 629l-503 -656l-30 27l502 654z" />
    <glyph glyph-name="yen" unicode="&#xa5;" horiz-adv-x="477" 
d="M548 623l-6 -26c-52 -6 -63 -15 -101 -67c-27 -36 -73 -101 -138 -204h120l-8 -34h-128l-16 -76h132l-8 -34h-131l-15 -79c-12 -66 -6 -69 78 -76l-6 -27h-252l6 27c80 6 86 12 99 76l16 79h-132l8 34h130l14 76h-130l8 34h120c-13 66 -36 151 -54 220
c-11 39 -23 47 -72 51l5 26h206l-6 -26l-32 -5c-24 -3 -32 -8 -26 -36c12 -62 31 -141 47 -212c36 54 101 156 129 207c16 30 10 38 -19 42l-31 4l7 26h186z" />
    <glyph glyph-name="florin" unicode="&#x192;" horiz-adv-x="477" 
d="M210 370l13 53c17 75 50 131 101 174c55 45 92 55 119 55c28 0 56 -21 56 -41c0 -14 -10 -30 -21 -38c-8 -7 -16 -5 -21 0c-14 12 -37 29 -64 29c-21 0 -33 -11 -45 -27c-13 -18 -27 -52 -56 -205h121l-11 -36h-117l-41 -191c-32 -152 -83 -209 -130 -243
c-43 -31 -69 -38 -91 -38c-28 0 -53 22 -53 40c0 15 11 29 24 40c5 5 12 6 19 0c14 -13 37 -27 60 -27c20 0 35 14 45 37c11 27 25 70 44 171l39 211h-96l10 36h95z" />
    <glyph glyph-name="section" unicode="&#xa7;" horiz-adv-x="467" 
d="M423 214c0 -98 -74 -180 -128 -228c-59 -52 -111 -78 -163 -88c-20 0 -50 7 -70 24c-10 8 -16 18 -16 30c1 15 20 31 30 36c7 4 13 3 18 -1c12 -10 42 -32 82 -32c38 0 82 23 83 66c1 27 -10 56 -51 101c-28 30 -56 68 -73 87c-38 44 -62 89 -62 143c0 78 48 146 111 204
c52 49 105 78 162 88c37 0 62 -16 70 -25c11 -10 12 -17 11 -25c0 -15 -17 -30 -25 -35c-5 -3 -12 -3 -17 1c-11 9 -35 34 -82 34c-46 0 -73 -32 -73 -62c0 -20 10 -44 31 -68c25 -28 57 -63 82 -89c48 -49 80 -100 80 -161zM182 509l-2 1c-30 -28 -52 -71 -52 -119v-1
c0 -35 9 -75 50 -121l49 -55c38 -43 64 -82 71 -98c8 -17 14 -47 10 -74l2 -2c36 40 52 87 52 127c0 36 -6 80 -53 134c-31 34 -75 87 -94 108c-20 23 -39 53 -33 100z" />
    <glyph glyph-name="currency" unicode="&#xa4;" horiz-adv-x="477" 
d="M474 135l-42 -40l-65 74c-32 -26 -74 -38 -108 -38s-76 12 -108 38l-65 -74l-40 40l70 67c-29 34 -44 78 -44 123s15 90 45 123l-71 68l40 39l65 -74c33 26 75 38 108 38h1c33 0 75 -12 107 -38l65 74l42 -39l-71 -68c28 -33 44 -78 44 -123s-16 -89 -44 -123zM259 470
c-69 0 -126 -58 -126 -145s57 -145 127 -145c71 0 126 58 126 145s-55 145 -127 145z" />
    <glyph glyph-name="quotesingle" unicode="'" horiz-adv-x="192" 
d="M233 710l9 -7c-11 -37 -55 -154 -84 -213l-30 -13c18 100 30 183 31 211z" />
    <glyph glyph-name="quotedblleft" unicode="&#x201c;" horiz-adv-x="386" 
d="M255 715l11 -27c-48 -19 -86 -47 -88 -90c-2 -30 18 -48 49 -56c6 -1 11 -7 10 -17c-1 -26 -25 -40 -44 -40c-35 0 -80 34 -78 94c3 79 81 120 140 136zM424 715l10 -27c-47 -19 -86 -48 -88 -91c-2 -31 19 -48 48 -56c7 -1 13 -8 12 -17c-1 -26 -25 -40 -44 -40
c-35 0 -81 34 -78 94c3 79 80 121 140 137z" />
    <glyph glyph-name="guillemotleft" unicode="&#xab;" horiz-adv-x="446" 
d="M247 387l-107 -166l73 -167l-23 -15c-55 80 -107 150 -134 182c35 32 101 103 170 182zM410 387l-108 -166l74 -167l-24 -15c-55 80 -106 150 -134 182c35 32 101 103 171 182z" />
    <glyph glyph-name="guilsinglleft" unicode="&#x2039;" horiz-adv-x="283" 
d="M247 387l-108 -166l74 -168l-24 -14c-55 80 -107 150 -134 182c35 32 102 103 171 182z" />
    <glyph glyph-name="guilsinglright" unicode="&#x203a;" horiz-adv-x="283" 
d="M94 388l24 15c55 -79 106 -150 134 -182c-34 -32 -102 -103 -171 -182l-21 16l109 166z" />
    <glyph glyph-name="fi" unicode="&#xfb01;" horiz-adv-x="531" 
d="M481 112l14 -21c-30 -39 -111 -103 -151 -103c-19 0 -38 13 -17 98c19 78 37 160 56 243c13 58 8 64 -41 64h-131c-20 -114 -31 -176 -52 -271c-38 -179 -70 -254 -125 -313c-47 -50 -91 -65 -116 -65c-28 0 -58 17 -58 40c0 12 13 30 29 44c8 6 13 5 21 0
c13 -12 36 -22 56 -22s33 8 43 19c15 14 39 59 72 252c23 132 36 215 53 316h-78l-4 10l28 28h61c18 81 51 163 108 216c37 34 90 65 146 65c76 0 97 -45 97 -65c-1 -20 -15 -41 -36 -46c-22 -7 -32 -2 -35 12c-8 38 -27 60 -61 60c-73 0 -115 -94 -141 -242h111
c62 0 103 8 133 15c10 -6 14 -28 3 -72c-21 -86 -40 -169 -63 -268c-9 -35 -6 -44 2 -45c11 0 50 27 76 51z" />
    <glyph glyph-name="fl" unicode="&#xfb02;" horiz-adv-x="525" 
d="M330 431l-20 -31l-99 -10c-19 -109 -29 -170 -52 -285c-33 -165 -67 -240 -123 -298c-45 -47 -88 -63 -115 -63s-57 19 -56 41c0 14 11 32 27 44c8 6 13 5 20 0c14 -13 37 -23 57 -23s34 9 44 20c14 14 38 62 70 255c22 131 35 211 51 311h-80l-3 10l29 29h62
c14 77 41 150 97 206c43 43 109 75 158 75c33 0 61 -12 74 -25c19 11 45 25 56 25c8 0 9 -13 5 -29c-42 -194 -83 -388 -122 -583c-6 -32 -2 -37 5 -39c11 0 52 28 77 56l14 -22c-45 -62 -121 -107 -151 -107c-19 0 -35 23 -14 127c49 233 65 313 107 513
c-11 18 -41 43 -81 43c-87 0 -126 -104 -148 -240h111z" />
    <glyph glyph-name="endash" unicode="&#x2013;" horiz-adv-x="500" 
d="M464 252l-12 -52h-399l12 52h399z" />
    <glyph glyph-name="dagger" unicode="&#x2020;" horiz-adv-x="453" 
d="M188 -97h-43c9 36 16 66 24 112c23 123 31 228 22 268c31 46 46 80 55 124c-58 -2 -95 -11 -130 -33c-15 7 -36 27 -42 48c14 20 39 40 58 46c26 -20 62 -31 120 -32c10 67 9 95 -9 144c16 26 41 50 64 62c18 -12 35 -36 44 -62c-38 -49 -49 -77 -64 -144
c58 1 95 12 130 32c16 -6 35 -27 42 -46c-15 -22 -39 -42 -58 -48c-26 20 -62 31 -121 33c-6 -44 -5 -78 9 -124c-24 -40 -58 -145 -82 -268c-9 -46 -15 -76 -19 -112z" />
    <glyph glyph-name="daggerdbl" unicode="&#x2021;" horiz-adv-x="455" 
d="M464 435c-14 -20 -40 -40 -57 -46c-28 20 -62 32 -122 33c-11 -69 -12 -110 10 -138c-32 -25 -47 -65 -62 -136l-2 -5c62 0 96 12 131 32c15 -6 36 -26 43 -47c-15 -20 -40 -40 -58 -46c-28 20 -61 32 -122 33c-10 -69 -8 -98 10 -148c-16 -25 -41 -50 -64 -61
c-18 11 -35 36 -44 61c38 50 50 79 66 148c-61 -1 -97 -13 -132 -33c-16 6 -35 25 -42 46c14 20 37 41 57 47c27 -20 63 -32 122 -32c13 75 15 115 -9 141c34 28 49 69 64 138c-61 -1 -97 -13 -132 -33c-16 6 -35 26 -42 46c14 21 38 41 56 48c28 -21 64 -32 123 -33
c8 52 6 80 -12 131c15 25 41 50 64 61c18 -11 33 -36 43 -61c-37 -51 -50 -79 -62 -131c61 1 96 12 129 33c18 -7 37 -28 44 -48z" />
    <glyph glyph-name="periodcentered" unicode="&#xb7;" horiz-adv-x="235" 
d="M120 172c-29 0 -49 22 -49 53c0 36 25 63 59 63c29 0 49 -23 49 -54c0 -40 -29 -62 -59 -62z" />
    <glyph glyph-name="paragraph" unicode="&#xb6;" horiz-adv-x="488" 
d="M532 536l-35 -25l-82 -10l-92 -473c-15 -81 -43 -141 -100 -191c-34 -29 -79 -45 -93 -45c-27 0 -51 12 -62 24c-10 10 -11 21 -7 29c3 11 14 22 22 27c6 6 13 6 20 1c16 -12 40 -23 63 -23c41 0 76 21 106 172l25 131l-65 -27c-4 -2 -10 -3 -18 -3
c-68 0 -133 78 -133 176c0 151 129 250 263 250h186z" />
    <glyph glyph-name="bullet" unicode="&#x2022;" horiz-adv-x="377" 
d="M199 350h2c67 0 123 -59 123 -131c0 -73 -55 -131 -125 -131c-71 0 -126 58 -126 131c0 72 55 131 126 131z" />
    <glyph glyph-name="quotesinglbase" unicode="&#x201a;" horiz-adv-x="228" 
d="M9 -109l-11 27c47 19 85 46 87 90c2 31 -18 49 -48 57c-6 2 -12 8 -11 18c1 25 25 40 45 40c35 0 80 -35 78 -96c-3 -79 -80 -120 -140 -136z" />
    <glyph glyph-name="quotedblbase" unicode="&#x201e;" 
d="M9 -109l-11 27c48 19 85 46 87 90c2 31 -18 49 -48 57c-6 2 -12 8 -11 18c1 25 25 40 44 40c36 0 81 -35 79 -96c-3 -79 -81 -120 -140 -136zM181 -109l-10 27c47 19 85 46 87 90c2 32 -19 49 -48 57c-7 2 -12 8 -12 18c2 25 26 40 45 40c35 0 81 -35 78 -96
c-3 -79 -80 -120 -140 -136z" />
    <glyph glyph-name="quotedblright" unicode="&#x201d;" horiz-adv-x="384" 
d="M114 480l-10 27c48 19 86 47 88 89c2 32 -19 49 -49 57c-6 1 -12 7 -11 17c1 26 25 40 44 40c35 0 79 -35 77 -95c-3 -78 -80 -119 -139 -135zM283 480l-10 27c47 19 87 46 89 89c2 32 -19 49 -50 57c-6 1 -11 7 -11 17c1 26 25 40 44 40c35 0 81 -35 78 -95
c-3 -78 -80 -119 -140 -135z" />
    <glyph glyph-name="guillemotright" unicode="&#xbb;" horiz-adv-x="446" 
d="M95 388l24 15c55 -79 106 -150 133 -182c-34 -32 -101 -103 -170 -182l-21 16l108 166zM258 388l23 15c55 -79 107 -150 134 -182c-35 -32 -101 -103 -170 -182l-22 16l109 166z" />
    <glyph glyph-name="ellipsis" unicode="&#x2026;" horiz-adv-x="900" 
d="M116 -12c-29 0 -49 22 -49 53c0 37 25 63 59 63c29 0 50 -23 50 -54c0 -40 -29 -62 -60 -62zM417 -12c-28 0 -49 22 -49 53c0 37 25 63 59 63c29 0 50 -23 50 -54c0 -40 -29 -62 -60 -62zM714 -12c-29 0 -49 22 -49 53c0 37 25 63 59 63c29 0 50 -23 50 -54
c0 -40 -29 -62 -60 -62z" />
    <glyph glyph-name="perthousand" unicode="&#x2030;" horiz-adv-x="1044" 
d="M650 630l-495 -657l-29 26l494 655zM372 501c0 -97 -69 -218 -174 -218c-74 0 -108 62 -108 133c0 96 67 219 174 219c76 0 108 -63 108 -134zM305 527c0 39 -7 78 -46 78c-72 0 -102 -145 -102 -207c0 -39 8 -85 47 -85c74 0 101 157 101 214zM685 206
c0 -97 -69 -218 -174 -218c-74 0 -108 62 -108 133c0 96 67 219 174 219c76 0 108 -64 108 -134zM1001 206c0 -97 -69 -218 -174 -218c-74 0 -108 62 -108 133c0 96 67 219 174 219c76 0 108 -64 108 -134zM618 231c0 40 -7 79 -46 79c-72 0 -102 -146 -102 -208
c0 -39 8 -84 47 -84c74 0 101 159 101 213zM934 231c0 40 -7 79 -46 79c-72 0 -102 -147 -102 -208c0 -39 8 -84 47 -84c74 0 101 159 101 213z" />
    <glyph glyph-name="questiondown" unicode="&#xbf;" horiz-adv-x="358" 
d="M232 448c30 0 51 -24 51 -56c0 -39 -28 -65 -61 -65c-30 0 -52 23 -52 56c0 40 28 65 62 65zM165 222l18 21c39 -21 89 -66 89 -115c0 -53 -51 -93 -107 -128c-51 -30 -122 -71 -122 -116c0 -31 23 -50 56 -50c67 -1 103 50 115 50c14 0 34 -20 34 -40
c-1 -15 -10 -27 -28 -40c-33 -23 -74 -33 -92 -33h-1c-71 0 -133 68 -133 146c0 46 20 77 67 107c83 55 139 85 139 130c0 25 -14 48 -35 68z" />
    <glyph glyph-name="grave" unicode="`" 
d="M322 499l-29 -9c-30 57 -62 118 -89 164l3 9c8 4 57 14 73 12c10 -49 29 -121 42 -176z" />
    <glyph glyph-name="acute" unicode="&#xb4;" 
d="M382 661l-155 -170l-23 16c33 52 82 137 92 156c11 3 68 12 83 9z" />
    <glyph glyph-name="circumflex" unicode="&#x2c6;" 
d="M373 505l-23 -17c-28 32 -52 67 -71 96c-30 -30 -67 -65 -108 -96l-20 17c48 55 93 109 130 163h22c17 -53 41 -108 70 -163z" />
    <glyph glyph-name="tilde" unicode="&#x2dc;" 
d="M371 620l23 -12c-26 -67 -55 -85 -80 -85c-23 0 -41 12 -68 23c-14 7 -26 12 -42 12c-15 0 -32 -14 -47 -43l-23 15c25 63 56 84 80 84c17 0 30 -5 58 -18c21 -10 37 -17 53 -17s30 16 46 41z" />
    <glyph glyph-name="macron" unicode="&#xaf;" 
d="M378 598l-12 -51h-224l13 51h223z" />
    <glyph glyph-name="breve" unicode="&#x2d8;" 
d="M362 641h25c-16 -99 -74 -131 -132 -131s-106 32 -89 131h25c1 -47 28 -74 72 -74s81 27 99 74z" />
    <glyph glyph-name="dotaccent" unicode="&#x2d9;" 
d="M278 636c26 0 40 -22 40 -45c0 -32 -23 -58 -53 -58c-23 0 -41 18 -41 44c0 25 19 59 54 59z" />
    <glyph glyph-name="dieresis" unicode="&#xa8;" 
d="M189 631c24 0 38 -20 38 -42c0 -30 -21 -55 -50 -55c-22 0 -39 17 -39 41s17 56 51 56zM365 631c24 0 38 -20 38 -42c0 -30 -21 -55 -50 -55c-22 0 -39 17 -39 41s17 56 51 56z" />
    <glyph glyph-name="ring" unicode="&#x2da;" 
d="M280 664c43 0 82 -31 80 -84c-2 -54 -49 -87 -97 -87c-49 0 -83 34 -81 80c2 57 49 91 98 91zM274 632c-25 0 -45 -24 -46 -56c-1 -29 13 -50 39 -50c25 0 46 23 47 55c1 29 -13 51 -40 51z" />
    <glyph glyph-name="cedilla" unicode="&#xb8;" 
d="M203 0l-21 -25c-14 -18 -15 -24 0 -41c22 -26 31 -44 30 -66c-3 -39 -54 -79 -121 -99l-12 27c42 19 68 38 69 60c1 15 -10 27 -18 37c-21 23 -24 35 -6 58l41 49h38z" />
    <glyph glyph-name="hungarumlaut" unicode="&#x2dd;" 
d="M254 648l-115 -158l-26 16c19 44 58 135 63 149c13 3 63 6 75 3zM387 648l-115 -158l-24 16c19 43 57 135 62 149c13 3 63 6 75 3z" />
    <glyph glyph-name="ogonek" unicode="&#x2db;" 
d="M257 -151l8 -27l-51 -27c-12 -7 -27 -10 -38 -10c-37 0 -67 23 -67 63c0 54 66 109 125 153h41c-51 -43 -98 -94 -98 -130c0 -20 13 -32 35 -32c12 0 32 5 45 10z" />
    <glyph glyph-name="caron" unicode="&#x2c7;" 
d="M377 672l22 -18c-49 -55 -93 -108 -130 -162h-22c-17 53 -41 107 -71 163l25 17c27 -32 51 -66 69 -96c31 30 66 64 107 96z" />
    <glyph glyph-name="emdash" unicode="&#x2014;" horiz-adv-x="907" 
d="M872 252l-14 -52h-804l14 52h804z" />
    <glyph glyph-name="AE" unicode="&#xc6;" horiz-adv-x="864" 
d="M850 499l-29 -3c0 39 -3 68 -14 88c-10 24 -28 31 -102 31h-75c-33 0 -35 -2 -41 -38l-47 -242h97c86 0 93 8 117 74h29l-38 -191h-29c1 71 -1 78 -89 78h-94l-28 -156c-11 -57 -9 -80 5 -92c15 -12 45 -14 102 -14c74 0 102 6 130 33c24 22 47 58 67 94l28 -9
c-11 -27 -47 -122 -61 -152h-470l6 26c82 8 91 12 108 96l34 174h-174c-73 -107 -109 -161 -135 -207c-25 -41 -20 -51 22 -57l31 -5l-6 -27h-231l6 27c62 8 79 14 128 80c116 157 238 335 333 468c21 30 17 36 -26 40l-53 6l9 28h507c-2 -18 -10 -91 -17 -150zM308 335h155
l56 279c-7 0 -16 -3 -29 -15c-50 -70 -111 -159 -182 -264z" />
    <glyph glyph-name="ordfeminine" unicode="&#xaa;" horiz-adv-x="331" 
d="M340 355l8 -20c-34 -38 -79 -64 -96 -64c-15 0 -25 12 -17 51l12 54h-3c-23 -28 -53 -56 -81 -76c-13 -10 -43 -29 -61 -29c-15 0 -36 13 -36 67c0 63 33 129 70 162c30 26 84 52 129 52h1c7 0 19 -1 34 -4c9 -3 21 -4 34 -4c-14 -63 -29 -130 -39 -190
c-2 -15 -2 -28 2 -28c7 0 24 11 43 29zM232 518c-12 0 -24 -3 -33 -8c-15 -7 -30 -22 -46 -54c-14 -31 -23 -72 -23 -99c0 -19 4 -33 14 -33c9 0 34 14 58 40c18 18 32 36 46 58c10 16 22 67 24 88c-8 5 -24 8 -40 8z" />
    <glyph glyph-name="Lslash" unicode="&#x141;" horiz-adv-x="550" 
d="M503 165l28 -10c-11 -30 -49 -125 -63 -155h-443l7 27c77 6 84 10 99 91l32 164l-106 -70l9 49l106 70l40 205c15 76 6 80 -72 86l8 27h249l-7 -27c-77 -7 -81 -10 -96 -86l-30 -148l135 90l-14 -52l-131 -88l-39 -218c-7 -36 -4 -61 12 -72c14 -12 46 -14 87 -14
c69 0 95 6 120 30c24 22 43 54 69 101z" />
    <glyph glyph-name="Oslash" unicode="&#xd8;" horiz-adv-x="708" 
d="M630 693l28 -22l-51 -70c56 -51 89 -130 89 -223c0 -216 -155 -393 -368 -393c-51 0 -102 14 -142 40l-51 -68l-26 25l48 65c-56 50 -91 129 -91 221c0 210 157 396 365 396c55 0 107 -14 148 -41zM199 103l346 473c-25 35 -69 53 -121 53c-162 0 -264 -195 -264 -366
c0 -68 15 -125 39 -160zM566 544l-345 -472c29 -36 70 -53 118 -53c167 0 263 202 263 366c0 61 -10 117 -36 159z" />
    <glyph glyph-name="OE" unicode="&#x152;" horiz-adv-x="947" 
d="M857 0h-303c-30 0 -62 -3 -90 -6s-52 -5 -83 -5c-248 0 -312 166 -312 285c0 256 198 387 425 386c79 0 129 -11 183 -11h272c-3 -18 -11 -91 -18 -150l-29 -2c0 38 -3 66 -13 86c-11 24 -28 32 -103 32h-74c-33 0 -35 -1 -42 -38l-42 -220h94c85 0 93 9 117 74h28
l-37 -189h-29c1 71 -2 79 -88 79h-92l-34 -179c-11 -59 -10 -83 5 -94c15 -12 44 -14 100 -14c74 0 104 7 132 34c24 23 49 59 69 96l27 -10c-11 -27 -48 -123 -63 -154zM497 100l88 456c7 37 0 48 -17 55c-19 9 -50 15 -90 15c-164 0 -313 -115 -313 -351
c0 -98 42 -256 229 -252c22 1 45 4 65 13c19 8 31 26 38 64z" />
    <glyph glyph-name="ordmasculine" unicode="&#xba;" horiz-adv-x="314" 
d="M237 552c55 0 92 -37 92 -102c0 -52 -22 -107 -65 -142c-31 -24 -69 -37 -95 -37c-64 0 -95 47 -95 102c0 73 41 131 89 158c24 14 51 21 74 21zM217 523c-7 0 -14 -2 -20 -5c-24 -10 -59 -54 -59 -141c0 -46 17 -75 49 -75c7 0 14 1 20 4c26 9 61 68 60 150
c-1 42 -19 67 -50 67z" />
    <glyph glyph-name="ae" unicode="&#xe6;" horiz-adv-x="664" 
d="M613 128l16 -22c-98 -104 -175 -117 -218 -117s-103 27 -102 141c0 9 0 15 1 23l-2 1c-31 -43 -80 -90 -118 -120c-30 -24 -72 -45 -96 -45c-21 0 -56 25 -56 110c0 101 44 211 113 271c51 45 130 79 190 79c14 0 29 -2 43 -6c15 -2 28 -2 39 -2l4 -4l-14 -58l2 -1
c44 44 111 71 153 71c54 0 86 -36 86 -79c0 -94 -151 -155 -269 -182c-2 -12 -1 -22 -1 -36c0 -49 17 -103 73 -103c45 0 99 23 156 79zM296 405c-27 0 -51 -6 -65 -15c-20 -13 -47 -38 -72 -96c-26 -57 -38 -120 -38 -174c0 -40 10 -64 26 -64c20 0 58 25 92 62
c32 36 66 79 82 113c14 40 35 130 39 160c-14 8 -37 14 -64 14zM529 405c-17 0 -37 -6 -50 -14c-28 -18 -72 -66 -90 -170c144 38 189 82 190 133c0 35 -21 51 -50 51z" />
    <glyph glyph-name="dotlessi" unicode="&#x131;" horiz-adv-x="274" 
d="M224 109l13 -21c-34 -41 -111 -100 -146 -100c-20 0 -33 16 -13 98l63 256c5 22 4 30 -1 32c-8 0 -38 -18 -69 -43l-12 23c55 54 125 95 152 95c21 0 22 -31 10 -79l-69 -276c-7 -24 -5 -32 1 -32c13 0 47 26 71 47z" />
    <glyph glyph-name="lslash" unicode="&#x142;" horiz-adv-x="277" 
d="M313 493l-10 -49l-97 -75l-55 -267c-7 -31 -4 -42 3 -42c12 0 53 30 79 56l15 -23c-48 -58 -115 -105 -151 -105c-19 0 -36 23 -17 109l44 209l-88 -68l10 50l88 68l53 246c9 44 4 49 -43 50l-29 1l5 25c78 8 134 34 149 34c9 0 11 -9 7 -29l-59 -265z" />
    <glyph glyph-name="oslash" unicode="&#xf8;" horiz-adv-x="472" 
d="M417 483l25 -20l-38 -51c25 -27 37 -70 37 -120c0 -82 -38 -181 -107 -240c-40 -35 -104 -64 -159 -64c-27 0 -51 6 -68 18l-38 -52l-23 21l37 51c-26 29 -37 74 -37 116c0 133 68 228 146 271c42 23 85 36 117 36c27 0 51 -5 70 -18zM133 93l208 282
c-13 23 -37 35 -65 35c-16 0 -29 -4 -38 -8c-38 -15 -113 -95 -114 -249c0 -22 4 -41 9 -60zM356 343l-208 -281c12 -20 33 -35 60 -35c12 0 26 3 37 7c53 21 120 125 118 256c0 23 -3 40 -7 53z" />
    <glyph glyph-name="oe" unicode="&#x153;" horiz-adv-x="688" 
d="M677 369c0 -96 -163 -155 -267 -180c-2 -14 -2 -21 -2 -28c0 -57 15 -114 78 -114c41 0 92 23 151 81l16 -23c-94 -104 -170 -117 -210 -117c-37 0 -85 18 -101 90h-1c-39 -52 -112 -90 -169 -90c-92 0 -126 82 -126 157c0 129 67 226 144 270c41 22 79 34 111 34
c54 0 96 -31 112 -91h1c45 49 123 91 177 91c53 0 86 -35 86 -80zM600 355c1 34 -20 51 -46 51h-1c-17 0 -37 -6 -49 -14c-24 -14 -73 -60 -90 -170c141 37 185 84 186 133zM350 294c0 81 -31 117 -79 117h-1c-15 0 -26 -4 -36 -8c-38 -15 -104 -91 -104 -248
c0 -71 24 -126 78 -126c10 0 22 2 33 8c46 20 109 123 109 257z" />
    <glyph glyph-name="germandbls" unicode="&#xdf;" horiz-adv-x="512" 
d="M82 431h58c20 96 50 165 115 222c40 34 95 61 147 61c78 0 123 -51 123 -122c0 -23 -7 -48 -15 -62c-72 -51 -119 -108 -119 -154c0 -23 11 -49 33 -84c31 -50 46 -85 46 -125c0 -94 -109 -179 -196 -179c-40 0 -86 28 -86 57c0 11 10 26 24 35c8 6 15 5 22 -1
c25 -24 55 -42 86 -42c52 0 82 42 82 86c0 29 -9 58 -32 96c-27 44 -53 83 -53 121c0 57 58 114 130 179c6 15 9 35 9 52c0 63 -33 104 -86 104c-122 1 -147 -208 -166 -330c-13 -79 -20 -126 -35 -212c-32 -180 -75 -272 -125 -325c-45 -49 -91 -66 -113 -66
c-26 0 -57 18 -57 40c0 13 12 32 27 44c9 6 14 6 20 1c15 -12 36 -21 57 -21c16 0 31 7 41 20c15 18 36 61 66 251c22 138 35 223 48 313h-76l-4 13z" />
    <glyph glyph-name="onesuperior" unicode="&#xb9;" horiz-adv-x="326" 
d="M287 419l-6 -23h-190l6 23c50 4 61 7 71 57l35 180c8 40 4 41 -28 45l-28 2l5 21c43 6 86 16 133 31l-54 -279c-9 -50 2 -52 56 -57z" />
    <glyph glyph-name="logicalnot" unicode="&#xac;" horiz-adv-x="596" 
d="M539 97h-57v221h-420v50h477v-271z" />
    <glyph glyph-name="mu" unicode="&#xb5;" horiz-adv-x="511" 
d="M467 113l14 -23c-49 -58 -114 -102 -145 -102c-21 0 -35 19 -15 106c7 34 12 53 18 85h-2c-44 -62 -90 -119 -139 -159c-26 -22 -49 -32 -70 -32c-18 0 -33 11 -42 44h-2c-10 -36 -21 -98 -19 -147c2 -51 18 -92 32 -105l1 -7c-8 -13 -31 -31 -58 -31
c-21 0 -40 23 -38 72c2 43 20 127 36 200c40 178 75 331 93 413l72 21l7 -5c-26 -107 -51 -212 -71 -306c-11 -53 0 -83 23 -83c51 0 154 136 192 207c11 47 23 100 36 162l69 26h11c-27 -106 -53 -218 -78 -349c-5 -31 -3 -39 4 -39c9 0 44 25 71 52z" />
    <glyph glyph-name="trademark" unicode="&#x2122;" horiz-adv-x="461" 
d="M250 589h-15c-4 13 -7 22 -12 25c-3 5 -12 7 -24 7h-15v-97c0 -27 1 -29 27 -30v-16h-86v16c25 1 26 3 26 30v97h-13c-13 0 -21 -3 -25 -8c-4 -3 -8 -13 -11 -25h-14c1 24 3 44 3 57l12 -1c1 -2 3 -4 5 -5s5 -1 8 -1h107c6 0 9 2 13 7h11c1 -11 1 -33 3 -56zM496 478h-79
v16c23 1 23 3 23 28l1 90h-2l-59 -131h-13l-53 123h-2l-3 -57c-2 -20 -1 -31 -1 -39c1 -10 6 -13 24 -14v-16h-71v16c15 0 20 4 22 13c3 9 5 17 7 43l3 39c2 28 0 30 -25 32v17h64l50 -101l50 101h63v-17c-21 -2 -23 -4 -23 -27l1 -68c0 -29 2 -31 23 -32v-16z" />
    <glyph glyph-name="Eth" unicode="&#xd0;" horiz-adv-x="719" 
d="M138 649h249c188 0 319 -77 319 -268c0 -125 -62 -238 -166 -306c-89 -56 -182 -75 -308 -75h-215l8 27c76 8 83 11 99 91l39 203h-110l9 37h108l33 168c16 86 9 87 -71 96zM244 321l-34 -185c-10 -58 -9 -75 12 -87c16 -9 39 -13 68 -13c227 1 321 183 321 352
c0 120 -54 228 -226 228c-35 0 -59 -3 -71 -9s-18 -14 -22 -39l-40 -210h155l-8 -37h-155z" />
    <glyph glyph-name="onehalf" unicode="&#xbd;" horiz-adv-x="740" 
d="M649 631l-503 -657l-27 24l502 656zM267 300l-6 -23h-191l6 23c51 5 62 8 71 57l35 181c8 40 5 41 -28 44l-28 2l6 22c42 5 84 15 133 29l-54 -278c-10 -50 2 -51 56 -57zM657 92l20 -9c-16 -32 -26 -54 -39 -83h-242l4 18c30 22 75 57 117 94c44 40 94 85 94 138
c0 35 -18 60 -60 60c-36 0 -63 -31 -85 -56l-17 16l39 49c23 25 58 40 96 40c49 0 96 -35 96 -98c0 -68 -74 -116 -128 -158l-61 -49v-2h92c35 0 47 6 74 40z" />
    <glyph glyph-name="plusminus" unicode="&#xb1;" horiz-adv-x="596" 
d="M545 311h-214v-204h-57v204h-215v50h215v191h57v-191h214v-50zM545 0h-486v50h486v-50z" />
    <glyph glyph-name="Thorn" unicode="&#xde;" horiz-adv-x="541" 
d="M269 501h71c122 0 196 -51 196 -154c0 -131 -120 -195 -238 -196c-14 0 -24 2 -36 5l-57 16l-12 -61c-13 -72 -7 -77 81 -85l-6 -26h-257l6 26c77 8 82 11 97 85l81 423c14 74 12 81 -66 89l6 26h237l-6 -26c-76 -8 -77 -9 -97 -122zM254 433l-42 -229
c17 -6 44 -14 78 -14c61 0 156 36 156 159c0 66 -33 120 -134 121c-20 0 -33 -3 -42 -6c-8 -3 -12 -12 -16 -31z" />
    <glyph glyph-name="onequarter" unicode="&#xbc;" horiz-adv-x="747" 
d="M663 631l-504 -658l-27 25l503 656zM273 300l-5 -23h-192l6 23c50 5 61 8 71 57l35 181c8 40 4 41 -28 44l-28 2l5 22c43 5 85 15 134 29l-54 -278c-10 -50 2 -51 56 -57zM662 133l-6 -35h-58l-5 -25c-9 -44 1 -46 46 -51l-4 -22h-177l5 22c52 5 62 6 70 51l5 25h-162
l5 23c70 78 164 177 225 238h42l-44 -226h58zM576 289h-2c-47 -51 -93 -104 -139 -156h110z" />
    <glyph glyph-name="divide" unicode="&#xf7;" horiz-adv-x="596" 
d="M309 355c-24 0 -48 22 -48 48c0 27 24 49 49 49c28 0 50 -22 50 -49c0 -26 -22 -48 -51 -48zM551 230h-485v50h485v-50zM310 155c23 0 48 -21 48 -48c0 -26 -25 -49 -49 -49c-28 0 -50 23 -50 49c0 27 22 48 51 48z" />
    <glyph glyph-name="brokenbar" unicode="&#xa6;" horiz-adv-x="239" 
d="M164 325h-63v350h63v-350zM164 -175h-63v350h63v-350z" />
    <glyph glyph-name="degree" unicode="&#xb0;" horiz-adv-x="350" 
d="M237 664c74 0 132 -49 132 -131c0 -87 -67 -143 -150 -143c-75 0 -132 49 -132 129c0 84 69 145 150 145zM233 624c-49 0 -89 -42 -89 -105c0 -50 30 -89 79 -89c56 0 90 46 90 100s-29 94 -80 94z" />
    <glyph glyph-name="thorn" unicode="&#xfe;" horiz-adv-x="494" 
d="M178 298h2c91 112 174 151 218 151c37 0 71 -38 71 -114c0 -116 -62 -232 -148 -293c-58 -41 -125 -54 -137 -54s-44 4 -66 18c-9 -45 -17 -90 -27 -142c-12 -62 -4 -72 50 -77l24 -3l-3 -25l-235 -12l3 27c62 12 72 19 87 91c51 238 100 477 148 720c12 63 5 67 -47 67
h-23l2 26c77 9 139 34 154 35c9 1 13 -7 9 -27zM351 391c-35 0 -115 -54 -182 -156c-8 -34 -17 -71 -37 -169c11 -13 42 -34 79 -34c25 0 49 7 67 20c41 27 108 139 108 266c0 52 -15 73 -35 73z" />
    <glyph glyph-name="threequarters" unicode="&#xbe;" horiz-adv-x="740" 
d="M674 631l-503 -658l-27 25l502 656zM145 545l-18 16l31 37c17 20 48 37 87 37h1c43 0 86 -25 86 -74c0 -36 -37 -58 -66 -72v-2c33 -8 69 -34 69 -78c0 -58 -44 -93 -83 -113c-34 -18 -69 -26 -92 -26c-34 0 -61 15 -70 24c-8 9 -11 18 -7 26c3 10 13 21 20 26
c7 4 14 3 21 -4c17 -15 42 -35 74 -35c36 0 69 29 69 76c0 48 -31 69 -68 69c-14 0 -29 -3 -37 -7l-6 24c61 13 110 42 110 81c0 27 -17 42 -47 42c-31 0 -57 -23 -74 -47zM671 133l-6 -35h-58l-5 -25c-9 -44 1 -46 46 -51l-4 -22h-176l4 22c53 5 62 7 70 51l5 25h-162l5 23
c70 78 164 176 225 237h42l-44 -225h58zM585 288h-2c-46 -51 -93 -103 -138 -155h109z" />
    <glyph glyph-name="twosuperior" unicode="&#xb2;" horiz-adv-x="326" 
d="M309 488l21 -9c-16 -32 -26 -54 -39 -83h-242l4 18c30 22 75 57 117 94c44 39 94 88 94 138c0 35 -17 60 -59 60c-38 0 -65 -31 -86 -57l-17 17l39 49c23 25 58 40 93 40c52 0 99 -34 99 -97c0 -69 -74 -117 -128 -159l-61 -49v-2h92c35 0 47 6 73 40z" />
    <glyph glyph-name="registered" unicode="&#xae;" horiz-adv-x="313" 
d="M200 661c74 0 129 -60 129 -129c0 -68 -55 -128 -130 -128c-73 0 -129 55 -129 128c0 69 57 129 130 129zM199 638c-58 0 -100 -47 -100 -106c0 -60 44 -105 101 -105s101 45 101 105c0 59 -44 106 -102 106zM273 475l-3 -12c-23 0 -37 4 -49 21c-8 12 -15 23 -19 30
c-4 6 -7 7 -12 7h-4v-23c0 -18 2 -18 18 -19v-15h-67v15c18 1 19 1 19 19v69c0 18 -1 18 -18 19v15h68c22 0 48 -7 48 -36c0 -16 -11 -28 -27 -34c10 -18 18 -29 33 -46c5 -5 9 -8 13 -10zM186 574v-36h8c6 0 13 2 17 4c7 5 11 11 11 20c0 20 -15 24 -24 24s-12 -2 -12 -12z
" />
    <glyph glyph-name="minus" unicode="&#x2212;" horiz-adv-x="596" 
d="M553 230h-486v50h486v-50z" />
    <glyph glyph-name="eth" unicode="&#xf0;" horiz-adv-x="466" 
d="M475 654l-116 -64c56 -74 84 -163 84 -252c0 -111 -42 -223 -112 -285c-45 -39 -106 -65 -157 -65c-89 0 -125 79 -125 153c0 137 74 230 144 269c47 27 96 39 125 38c14 0 25 -3 38 -7c-1 32 -30 94 -49 122l-144 -77l-15 31l138 73c-16 24 -76 78 -130 95
c0 8 3 20 13 27c45 -9 117 -45 164 -95l125 66zM213 28c9 0 17 2 26 6c46 17 125 123 123 298c0 31 -3 46 -18 57c-18 15 -43 20 -64 20c-19 0 -35 -5 -49 -13c-30 -14 -99 -88 -99 -239c0 -69 24 -129 81 -129z" />
    <glyph glyph-name="multiply" unicode="&#xd7;" horiz-adv-x="596" 
d="M536 47l-37 -38l-195 199l-194 -199l-36 38l193 199l-193 197l36 38l194 -198l195 200l37 -37l-195 -200z" />
    <glyph glyph-name="threesuperior" unicode="&#xb3;" horiz-adv-x="326" 
d="M255 609v-2c33 -8 69 -35 69 -78c0 -59 -45 -93 -85 -113c-33 -18 -68 -26 -90 -26c-34 0 -62 15 -71 25c-8 8 -10 17 -6 26c3 10 13 20 20 24c7 5 14 4 21 -3c17 -15 42 -34 74 -34c36 0 69 27 69 75s-31 68 -67 68c-15 0 -29 -3 -38 -6l-6 24c61 13 110 42 110 81
c0 27 -17 42 -47 42c-31 0 -57 -23 -75 -47l-17 16l31 37c17 20 48 37 87 37h1c44 0 86 -25 86 -74c0 -37 -37 -58 -66 -72z" />
    <glyph glyph-name="copyright" unicode="&#xa9;" horiz-adv-x="693" 
d="M372 626c172 0 300 -134 300 -304c0 -168 -128 -302 -301 -302s-300 134 -300 302c0 170 128 304 301 304zM371 593c-146 0 -254 -117 -254 -270c0 -152 108 -270 255 -270s254 118 254 270c0 153 -107 270 -255 270zM502 263l22 -5c-7 -28 -17 -72 -25 -90
c-21 -7 -62 -19 -106 -19c-130 0 -190 87 -190 171c0 111 91 176 194 176c51 0 87 -10 105 -17c4 -27 7 -49 11 -91l-21 -3c-22 53 -49 82 -101 82c-73 0 -115 -59 -115 -140c0 -89 51 -148 117 -148c54 0 85 32 109 84z" />
    <glyph glyph-name="Aacute" unicode="&#xc1;" horiz-adv-x="664" 
d="M621 27l-7 -27h-236l7 27c69 7 73 18 67 61c-6 42 -15 90 -25 148h-209c-17 -32 -47 -90 -69 -136c-29 -60 -22 -67 54 -73l-6 -27h-215l7 27c62 8 72 13 119 96l300 533l31 8l28 -178c20 -128 42 -253 64 -372c12 -72 19 -80 90 -87zM421 278l-40 258h-2
c-50 -91 -96 -174 -139 -258h181zM570 755l-2 -8l-187 -63l-13 25c55 34 115 72 161 101c13 -3 38 -40 41 -55z" />
    <glyph glyph-name="Acircumflex" unicode="&#xc2;" horiz-adv-x="664" 
d="M621 27l-7 -27h-236l7 27c69 7 73 18 67 61c-6 42 -15 90 -25 148h-209c-17 -32 -47 -90 -69 -136c-29 -60 -22 -67 54 -73l-6 -27h-215l7 27c62 8 72 13 119 96l300 533l31 8l28 -178c20 -128 42 -253 64 -372c12 -72 19 -80 90 -87zM421 278l-40 258h-2
c-50 -91 -96 -174 -139 -258h181zM558 706l-18 -22c-36 15 -71 35 -107 58c-43 -23 -85 -44 -126 -58l-13 22c46 29 91 63 136 104h25c33 -41 68 -74 103 -104z" />
    <glyph glyph-name="Adieresis" unicode="&#xc4;" horiz-adv-x="664" 
d="M621 27l-7 -27h-236l7 27c69 7 73 18 67 61c-6 42 -15 90 -25 148h-209c-17 -32 -47 -90 -69 -136c-29 -60 -22 -67 54 -73l-6 -27h-215l7 27c62 8 72 13 119 96l300 533l31 8l28 -178c20 -128 42 -253 64 -372c12 -72 19 -80 90 -87zM421 278l-40 258h-2
c-50 -91 -96 -174 -139 -258h181zM340 789c25 0 38 -20 38 -42c0 -30 -21 -55 -50 -55c-22 0 -39 17 -39 41c0 25 18 56 51 56zM525 789c25 0 38 -20 38 -42c0 -30 -21 -55 -50 -55c-22 0 -39 17 -39 41c0 25 18 56 51 56z" />
    <glyph glyph-name="Agrave" unicode="&#xc0;" horiz-adv-x="664" 
d="M621 27l-7 -27h-236l7 27c69 7 73 18 67 61c-6 42 -15 90 -25 148h-209c-17 -32 -47 -90 -69 -136c-29 -60 -22 -67 54 -73l-6 -27h-215l7 27c62 8 72 13 119 96l300 533l31 8l28 -178c20 -128 42 -253 64 -372c12 -72 19 -80 90 -87zM421 278l-40 258h-2
c-50 -91 -96 -174 -139 -258h181zM471 709l-14 -25l-188 63l-2 8c4 14 29 51 42 56c55 -35 110 -68 162 -102z" />
    <glyph glyph-name="Aring" unicode="&#xc5;" horiz-adv-x="664" 
d="M620 27l-7 -27h-236l7 27c70 7 73 18 67 61c-6 42 -15 90 -24 148h-209c-17 -32 -48 -90 -70 -136c-29 -60 -22 -67 55 -73l-6 -27h-216l8 27c61 8 71 13 118 96l300 533l31 8l29 -178c20 -128 42 -253 63 -372c13 -72 19 -80 90 -87zM420 278l-40 258h-2
c-49 -91 -95 -174 -138 -258h180zM520 774c-1 -53 -47 -86 -95 -86c-47 0 -80 33 -79 78c2 56 46 90 94 90c44 0 82 -31 80 -82zM475 776c1 27 -12 48 -38 48s-45 -24 -46 -55c-1 -27 13 -47 38 -47s45 22 46 54z" />
    <glyph glyph-name="Atilde" unicode="&#xc3;" horiz-adv-x="664" 
d="M621 27l-7 -27h-236l7 27c69 7 73 18 67 61c-6 42 -15 90 -25 148h-209c-17 -32 -47 -90 -69 -136c-29 -60 -22 -67 54 -73l-6 -27h-215l7 27c62 8 72 13 119 96l300 533l31 8l28 -178c20 -128 42 -253 64 -372c12 -72 19 -80 90 -87zM421 278l-40 258h-2
c-50 -91 -96 -174 -139 -258h181zM537 792l25 -16c-23 -63 -55 -80 -80 -80c-22 0 -42 11 -69 23c-14 6 -26 12 -41 12c-18 0 -33 -16 -47 -44l-24 19c24 61 55 79 79 80c18 0 31 -5 60 -19c21 -10 36 -16 51 -16c18 0 31 14 46 41z" />
    <glyph glyph-name="Ccedilla" unicode="&#xc7;" horiz-adv-x="637" 
d="M308 -51l30 37c-155 4 -270 107 -270 284c0 228 172 394 417 394c82 0 141 -20 169 -28c-3 -54 -4 -108 -8 -157l-30 -3c-7 122 -65 154 -154 154c-180 0 -297 -168 -297 -354c0 -151 70 -256 194 -256c105 0 165 67 224 159l26 -12c-18 -48 -54 -123 -76 -157
c-27 -6 -84 -22 -159 -24l-11 -12c-14 -19 -15 -25 1 -43c23 -27 32 -46 31 -68c-2 -40 -54 -81 -125 -101l-10 26c45 20 71 38 72 61c1 17 -10 28 -19 39c-22 25 -25 37 -5 61z" />
    <glyph glyph-name="Eacute" unicode="&#xc9;" horiz-adv-x="559" 
d="M128 649h435c-3 -18 -12 -94 -19 -153l-29 -2c0 38 -2 68 -13 88c-10 23 -23 33 -97 33h-78c-34 0 -36 -3 -43 -41l-42 -216h97c83 0 90 7 113 73h29l-37 -190h-29c2 71 2 78 -85 78h-95l-33 -175c-11 -58 -10 -84 4 -96c15 -12 45 -14 101 -14c75 0 104 8 132 34
c24 23 46 60 67 96l28 -10c-11 -27 -48 -123 -63 -154h-468l6 27c81 7 90 12 105 93l80 410c15 80 10 85 -72 92zM513 755l-2 -8l-188 -63l-13 25c55 34 115 72 161 101c13 -3 39 -40 42 -55z" />
    <glyph glyph-name="Ecircumflex" unicode="&#xca;" horiz-adv-x="559" 
d="M128 649h435c-3 -18 -12 -94 -19 -153l-29 -2c0 38 -2 68 -13 88c-10 23 -23 33 -97 33h-78c-34 0 -36 -3 -43 -41l-42 -216h97c83 0 90 7 113 73h29l-37 -190h-29c2 71 2 78 -85 78h-95l-33 -175c-11 -58 -10 -84 4 -96c15 -12 45 -14 101 -14c75 0 104 8 132 34
c24 23 46 60 67 96l28 -10c-11 -27 -48 -123 -63 -154h-468l6 27c81 7 90 12 105 93l80 410c15 80 10 85 -72 92zM505 706l-19 -22c-36 15 -71 35 -107 57c-43 -23 -84 -43 -126 -57l-13 22c46 29 92 62 136 104h25c34 -41 69 -74 104 -104z" />
    <glyph glyph-name="Edieresis" unicode="&#xcb;" horiz-adv-x="559" 
d="M128 649h435c-3 -18 -12 -94 -19 -153l-29 -2c-1 38 -3 68 -13 88c-11 23 -23 33 -97 33h-78c-34 0 -36 -3 -43 -41l-42 -216h96c84 0 90 7 114 73h29l-37 -190h-29c2 71 2 78 -85 78h-95l-34 -175c-10 -58 -9 -84 5 -96c15 -12 45 -14 101 -14c74 0 104 8 132 34
c24 23 46 60 67 96l28 -10c-11 -27 -49 -123 -63 -154h-468l6 27c81 7 90 12 105 93l80 410c15 80 10 85 -72 92zM294 789c24 0 37 -20 37 -42c0 -30 -20 -55 -50 -55c-22 0 -39 16 -39 41s18 56 52 56zM479 789c25 0 38 -20 38 -42c0 -30 -21 -55 -50 -55
c-23 0 -40 16 -40 41s18 56 52 56z" />
    <glyph glyph-name="Egrave" unicode="&#xc8;" horiz-adv-x="559" 
d="M128 649h435c-3 -18 -12 -94 -19 -153l-29 -2c0 38 -2 68 -13 88c-10 23 -23 33 -97 33h-78c-34 0 -36 -3 -43 -41l-42 -216h97c83 0 90 7 113 73h29l-37 -190h-29c2 71 2 78 -85 78h-95l-33 -175c-11 -58 -10 -84 4 -96c15 -12 45 -14 101 -14c75 0 104 8 132 34
c24 23 46 60 67 96l28 -10c-11 -27 -48 -123 -63 -154h-468l6 27c81 7 90 12 105 93l80 410c15 80 10 85 -72 92zM439 709l-14 -25l-189 63l-2 8c4 14 30 51 42 56c56 -35 110 -68 163 -102z" />
    <glyph glyph-name="Iacute" unicode="&#xcd;" horiz-adv-x="335" 
d="M380 649l-6 -27c-79 -7 -83 -13 -98 -86l-80 -420c-15 -77 -9 -83 73 -89l-6 -27h-256l7 27c78 6 85 13 99 89l82 420c14 74 7 79 -76 86l6 27h255zM398 755l-2 -8l-187 -63l-13 25c55 34 115 72 161 101c13 -3 38 -40 41 -55z" />
    <glyph glyph-name="Icircumflex" unicode="&#xce;" horiz-adv-x="335" 
d="M380 649l-6 -27c-79 -7 -83 -13 -98 -86l-80 -420c-15 -77 -9 -83 73 -89l-6 -27h-256l7 27c78 6 85 13 99 89l82 420c14 74 7 79 -76 86l6 27h255zM390 706l-18 -22c-36 15 -71 35 -107 58c-43 -23 -85 -44 -126 -58l-13 22c46 29 91 63 136 104h25
c33 -41 68 -74 103 -104z" />
    <glyph glyph-name="Idieresis" unicode="&#xcf;" horiz-adv-x="335" 
d="M380 649l-6 -27c-79 -7 -83 -13 -98 -86l-80 -420c-15 -77 -9 -83 73 -89l-6 -27h-256l7 27c78 6 85 13 99 89l82 420c14 74 7 79 -76 86l6 27h255zM176 789c25 0 38 -20 38 -42c0 -30 -21 -55 -50 -55c-22 0 -39 17 -39 41c0 25 18 56 51 56zM362 789
c25 0 38 -20 38 -42c0 -30 -21 -55 -50 -55c-22 0 -39 17 -39 41c0 25 18 56 51 56z" />
    <glyph glyph-name="Igrave" unicode="&#xcc;" horiz-adv-x="335" 
d="M380 649l-6 -27c-79 -7 -83 -13 -98 -86l-80 -420c-15 -77 -9 -83 73 -89l-6 -27h-256l7 27c78 6 85 13 99 89l82 420c14 74 7 79 -76 86l6 27h255zM329 709l-14 -25l-188 63l-2 8c4 14 29 51 42 56c55 -35 110 -68 162 -102z" />
    <glyph glyph-name="Ntilde" unicode="&#xd1;" horiz-adv-x="705" 
d="M766 649l-6 -27c-60 -3 -74 -19 -87 -63c-8 -25 -21 -77 -38 -170l-76 -397h-30l-296 530h-3l-52 -266c-17 -86 -24 -136 -26 -169c-2 -46 16 -55 85 -61l-6 -26h-229l7 26c52 4 75 15 88 59c11 36 22 81 41 173l52 247c11 50 7 65 -6 87c-12 21 -29 27 -84 30l6 27h143
l295 -509h4l46 249c18 93 25 144 27 172c3 46 -13 56 -87 61l7 27h225zM551 787l25 -16c-23 -63 -55 -80 -80 -80c-21 0 -42 11 -68 23c-14 6 -26 12 -41 12c-19 0 -34 -17 -48 -44l-24 18c24 62 55 80 80 80c17 0 30 -5 59 -18c21 -9 36 -16 51 -16c19 0 31 14 46 41z" />
    <glyph glyph-name="Oacute" unicode="&#xd3;" horiz-adv-x="708" 
d="M430 664c160 0 266 -118 266 -286c0 -212 -152 -393 -365 -393c-157 0 -265 115 -265 284c0 209 155 395 364 395zM422 630c-157 0 -261 -195 -261 -370c0 -135 56 -241 179 -241c167 0 261 204 261 369c0 133 -48 242 -179 242zM558 764l-2 -8l-187 -63l-13 25
c55 34 115 72 161 101c13 -3 38 -40 41 -55z" />
    <glyph glyph-name="Ocircumflex" unicode="&#xd4;" horiz-adv-x="708" 
d="M430 664c160 0 266 -118 266 -286c0 -212 -152 -393 -365 -393c-157 0 -265 115 -265 284c0 209 155 395 364 395zM422 630c-157 0 -261 -195 -261 -370c0 -135 56 -241 179 -241c167 0 261 204 261 369c0 133 -48 242 -179 242zM564 715l-18 -22c-36 15 -71 35 -107 58
c-43 -23 -85 -44 -126 -58l-13 22c46 29 91 63 136 104h25c33 -41 68 -74 103 -104z" />
    <glyph glyph-name="Odieresis" unicode="&#xd6;" horiz-adv-x="708" 
d="M429 664c161 0 267 -118 267 -286c0 -212 -152 -393 -365 -393c-157 0 -265 115 -265 284c0 209 155 395 363 395zM422 630c-157 0 -261 -195 -261 -370c0 -135 56 -241 179 -241c167 0 261 204 261 369c0 133 -48 242 -179 242zM350 798c24 0 38 -20 38 -42
c0 -30 -21 -55 -50 -55c-22 0 -39 17 -39 41c0 25 17 56 51 56zM536 798c25 0 38 -20 38 -42c0 -30 -21 -55 -50 -55c-22 0 -39 17 -39 41c0 25 18 56 51 56z" />
    <glyph glyph-name="Ograve" unicode="&#xd2;" horiz-adv-x="708" 
d="M430 664c160 0 266 -118 266 -286c0 -212 -152 -393 -365 -393c-157 0 -265 115 -265 284c0 209 155 395 364 395zM422 630c-157 0 -261 -195 -261 -370c0 -135 56 -241 179 -241c167 0 261 204 261 369c0 133 -48 242 -179 242zM516 718l-14 -25l-188 63l-2 8
c4 14 29 51 42 56c55 -35 110 -68 162 -102z" />
    <glyph glyph-name="Otilde" unicode="&#xd5;" horiz-adv-x="708" 
d="M430 664c160 0 266 -118 266 -286c0 -212 -152 -393 -365 -393c-157 0 -265 115 -265 284c0 209 155 395 364 395zM422 630c-157 0 -261 -195 -261 -370c0 -135 56 -241 179 -241c167 0 261 204 261 369c0 133 -48 242 -179 242zM547 801l24 -16c-23 -63 -55 -80 -80 -80
c-21 0 -42 11 -68 23c-14 6 -26 12 -41 12c-18 0 -34 -16 -48 -44l-24 18c25 62 55 80 80 79c18 0 31 -5 60 -17c21 -9 36 -16 51 -16c18 0 31 14 46 41z" />
    <glyph glyph-name="Scaron" unicode="&#x160;" horiz-adv-x="468" 
d="M38 195l27 3c10 -76 52 -180 161 -180c72 0 122 50 122 129c0 57 -35 96 -94 142l-29 22c-45 36 -111 91 -111 174c0 104 82 179 203 179c33 0 67 -6 96 -17c18 -7 35 -13 43 -16c-4 -42 -2 -95 -3 -139l-29 -3c-8 76 -35 143 -120 142c-70 0 -112 -55 -112 -116
c0 -59 40 -95 93 -134l30 -23c68 -51 116 -104 116 -183c0 -116 -103 -190 -218 -190c-80 0 -150 36 -172 61c-1 24 -1 78 -3 149zM443 828l13 -22c-45 -30 -91 -63 -136 -104h-24c-34 41 -69 74 -104 105l19 21c36 -15 71 -35 106 -58c43 23 84 43 126 58z" />
    <glyph glyph-name="Uacute" unicode="&#xda;" horiz-adv-x="707" 
d="M773 649l-6 -27c-67 -3 -78 -18 -88 -54c-10 -35 -22 -87 -40 -180l-16 -77c-21 -108 -51 -199 -118 -261c-49 -45 -112 -65 -170 -65c-56 0 -112 15 -154 54c-45 43 -68 118 -45 242l48 252c15 77 10 82 -69 89l7 27h247l-6 -27c-76 -7 -82 -10 -97 -89l-46 -245
c-35 -183 39 -251 137 -251c120 0 189 87 227 281l14 70c18 94 25 147 26 180c3 41 -15 50 -87 54l6 27h230zM597 755l-2 -8l-187 -63l-13 25c55 34 115 72 161 101c13 -3 38 -40 41 -55z" />
    <glyph glyph-name="Ucircumflex" unicode="&#xdb;" horiz-adv-x="707" 
d="M773 649l-6 -27c-67 -3 -78 -18 -88 -54c-10 -35 -22 -87 -40 -180l-16 -77c-21 -108 -51 -199 -118 -261c-49 -45 -112 -65 -170 -65c-56 0 -112 15 -154 54c-45 43 -68 118 -45 242l48 252c15 77 10 82 -69 89l7 27h247l-6 -27c-76 -7 -82 -10 -97 -89l-46 -245
c-35 -183 39 -251 137 -251c120 0 189 87 227 281l14 70c18 94 25 147 26 180c3 41 -15 50 -87 54l6 27h230zM589 709l-18 -22c-36 15 -71 35 -107 58c-43 -23 -85 -44 -126 -58l-13 22c46 29 91 63 136 104h25c33 -41 68 -74 103 -104z" />
    <glyph glyph-name="Udieresis" unicode="&#xdc;" horiz-adv-x="707" 
d="M773 649l-6 -27c-67 -3 -78 -18 -88 -54c-10 -35 -22 -87 -40 -180l-16 -77c-21 -108 -51 -199 -118 -261c-49 -45 -112 -65 -170 -65c-56 0 -112 15 -154 54c-45 43 -68 118 -45 242l48 252c15 77 10 82 -69 89l7 27h247l-6 -27c-76 -7 -82 -10 -97 -89l-46 -245
c-35 -183 39 -251 137 -251c120 0 189 87 227 281l14 70c18 94 25 147 26 180c3 41 -15 50 -87 54l6 27h230zM371 789c25 0 38 -20 38 -42c0 -30 -21 -55 -50 -55c-22 0 -39 17 -39 41c0 25 18 56 51 56zM557 789c25 0 38 -20 38 -42c0 -30 -21 -55 -50 -55
c-22 0 -39 17 -39 41c0 25 18 56 51 56z" />
    <glyph glyph-name="Ugrave" unicode="&#xd9;" horiz-adv-x="707" 
d="M773 649l-6 -27c-67 -3 -78 -18 -88 -54c-10 -35 -22 -87 -40 -180l-16 -77c-21 -108 -51 -199 -118 -261c-49 -45 -112 -65 -170 -65c-56 0 -112 15 -154 54c-45 43 -68 118 -45 242l48 252c15 77 10 82 -69 89l7 27h247l-6 -27c-76 -7 -82 -10 -97 -89l-46 -245
c-35 -183 39 -251 137 -251c120 0 189 87 227 281l14 70c18 94 25 147 26 180c3 41 -15 50 -87 54l6 27h230zM523 709l-14 -25l-188 63l-2 8c4 14 29 51 42 56c55 -35 110 -68 162 -102z" />
    <glyph glyph-name="Yacute" unicode="&#xdd;" horiz-adv-x="611" 
d="M686 649l-7 -27c-64 -7 -75 -12 -126 -75c-45 -57 -98 -131 -164 -226c-14 -19 -20 -33 -24 -56l-28 -141c-17 -85 -10 -89 80 -97l-7 -27h-267l7 27c82 6 89 11 105 97l27 135c4 21 4 35 -5 59c-23 63 -48 129 -89 234c-23 58 -29 63 -93 70l7 27h231l-5 -27l-35 -5
c-35 -4 -37 -12 -28 -41c20 -56 63 -173 92 -241c47 66 120 167 160 235c21 35 14 43 -23 48l-31 4l7 27h216zM538 754l-3 -8l-187 -63l-13 25c56 34 115 72 161 101c13 -3 38 -40 42 -55z" />
    <glyph glyph-name="Ydieresis" unicode="&#x178;" horiz-adv-x="611" 
d="M686 649l-7 -27c-64 -7 -76 -12 -126 -75c-45 -57 -98 -131 -164 -226c-15 -19 -20 -33 -25 -56l-28 -141c-16 -85 -9 -89 81 -97l-7 -27h-267l7 27c82 6 88 11 105 97l27 135c4 21 3 35 -5 59c-24 63 -49 129 -89 234c-23 58 -29 63 -93 70l7 27h231l-6 -27l-35 -5
c-35 -4 -37 -12 -27 -41c20 -56 63 -173 91 -241c48 66 121 167 161 235c21 35 13 43 -23 48l-31 4l7 27h216zM321 790c25 0 38 -20 38 -43c0 -29 -21 -54 -50 -54c-22 0 -39 16 -39 41s17 56 51 56zM507 790c25 0 38 -20 38 -43c0 -29 -21 -54 -50 -54c-23 0 -39 16 -39 41
s17 56 51 56z" />
    <glyph glyph-name="Zcaron" unicode="&#x17d;" horiz-adv-x="588" 
d="M611 649l6 -13c-166 -199 -328 -395 -491 -596c40 -4 89 -6 155 -6c97 0 153 4 184 31c27 23 48 59 74 111l28 -12c-11 -33 -44 -130 -60 -164h-499l-7 15c167 199 331 397 496 600h-158c-100 0 -118 -10 -138 -35c-14 -17 -30 -44 -50 -95l-29 3c17 62 32 134 41 186h21
c12 -23 22 -25 50 -25h377zM510 813l14 -22c-46 -29 -92 -63 -136 -104h-25c-34 41 -68 74 -103 105l19 21c35 -15 70 -35 106 -58c43 23 83 43 125 58z" />
    <glyph glyph-name="aacute" unicode="&#xe1;" horiz-adv-x="490" 
d="M454 116l12 -24c-55 -67 -122 -104 -147 -104c-19 0 -32 15 -17 88l20 95h-3c-38 -55 -86 -103 -129 -138c-33 -27 -66 -45 -93 -45c-26 0 -58 33 -58 112c0 101 47 211 120 272c51 42 124 77 187 77c20 0 40 -3 62 -8c13 -3 27 -6 38 -6l2 -4c-16 -62 -46 -198 -69 -325
c-6 -34 -3 -43 2 -43c9 0 43 24 73 53zM149 52c39 0 153 126 186 196c12 39 27 111 33 143c-14 7 -40 14 -66 14c-27 0 -54 -8 -72 -21c-68 -50 -108 -167 -108 -266c0 -45 12 -66 27 -66zM451 661l-155 -170l-23 15c33 53 82 138 92 157c11 3 68 12 83 9z" />
    <glyph glyph-name="acircumflex" unicode="&#xe2;" horiz-adv-x="490" 
d="M454 116l12 -24c-55 -67 -122 -104 -147 -104c-19 0 -32 15 -17 88l20 95h-3c-38 -55 -86 -103 -129 -138c-33 -27 -66 -45 -93 -45c-26 0 -58 33 -58 112c0 101 47 211 120 272c51 42 124 77 187 77c20 0 40 -3 62 -8c13 -3 27 -6 38 -6l2 -4c-16 -62 -46 -198 -69 -325
c-6 -34 -3 -43 2 -43c9 0 43 24 73 53zM149 52c39 0 153 126 186 196c12 39 27 111 33 143c-14 7 -40 14 -66 14c-27 0 -54 -8 -72 -21c-68 -50 -108 -167 -108 -266c0 -45 12 -66 27 -66zM420 505l-23 -17c-28 32 -52 67 -71 96c-30 -30 -67 -65 -108 -96l-20 17
c48 55 93 109 130 163h22c17 -53 41 -108 70 -163z" />
    <glyph glyph-name="adieresis" unicode="&#xe4;" horiz-adv-x="490" 
d="M454 116l12 -24c-55 -67 -122 -104 -147 -104c-19 0 -32 15 -17 88l20 95h-3c-38 -55 -86 -103 -129 -138c-33 -27 -66 -45 -93 -45c-26 0 -58 33 -58 112c0 101 47 211 120 272c51 42 124 77 187 77c20 0 40 -3 62 -8c13 -3 27 -6 38 -6l2 -4c-16 -62 -46 -198 -69 -325
c-6 -34 -3 -43 2 -43c9 0 43 24 73 53zM149 52c39 0 153 126 186 196c12 39 27 111 33 143c-14 7 -40 14 -66 14c-27 0 -54 -8 -72 -21c-68 -50 -108 -167 -108 -266c0 -45 12 -66 27 -66zM247 630c24 0 37 -20 37 -42c0 -30 -20 -55 -50 -55c-22 0 -39 17 -39 41
c0 25 18 56 52 56zM422 630c25 0 38 -20 38 -42c0 -30 -21 -55 -50 -55c-22 0 -39 17 -39 41c0 25 18 56 51 56z" />
    <glyph glyph-name="agrave" unicode="&#xe0;" horiz-adv-x="490" 
d="M454 116l12 -24c-55 -67 -122 -104 -147 -104c-19 0 -32 15 -17 88l20 95h-3c-38 -55 -86 -103 -129 -138c-33 -27 -66 -45 -93 -45c-26 0 -58 33 -58 112c0 101 47 211 120 272c51 42 124 77 187 77c20 0 40 -3 62 -8c13 -3 27 -6 38 -6l2 -4c-16 -62 -46 -198 -69 -325
c-6 -34 -3 -43 2 -43c9 0 43 24 73 53zM149 52c39 0 153 126 186 196c12 39 27 111 33 143c-14 7 -40 14 -66 14c-27 0 -54 -8 -72 -21c-68 -50 -108 -167 -108 -266c0 -45 12 -66 27 -66zM363 500l-29 -10c-30 58 -62 119 -89 165l3 9c8 3 57 14 73 12
c10 -49 29 -121 42 -176z" />
    <glyph glyph-name="aring" unicode="&#xe5;" horiz-adv-x="490" 
d="M454 116l12 -24c-55 -67 -122 -104 -147 -104c-19 0 -32 15 -17 88l20 95h-3c-38 -55 -86 -103 -129 -138c-33 -27 -66 -45 -93 -45c-26 0 -58 33 -58 112c0 101 47 211 120 272c51 42 124 77 187 77c20 0 40 -3 62 -8c13 -3 27 -6 38 -6l2 -4c-16 -62 -46 -198 -69 -325
c-6 -34 -3 -43 2 -43c9 0 43 24 73 53zM149 52c39 0 153 126 186 196c12 39 27 111 33 143c-14 7 -40 14 -66 14c-27 0 -54 -8 -72 -21c-68 -50 -108 -167 -108 -266c0 -45 12 -66 27 -66zM332 664c44 0 83 -31 81 -85s-49 -86 -98 -86s-83 33 -81 80c2 57 49 91 98 91z
M326 631c-24 0 -45 -23 -46 -55c-1 -29 13 -50 39 -50s47 23 48 55c1 28 -13 50 -41 50z" />
    <glyph glyph-name="atilde" unicode="&#xe3;" horiz-adv-x="490" 
d="M454 116l12 -24c-55 -67 -122 -104 -147 -104c-19 0 -32 15 -17 88l20 95h-3c-38 -55 -86 -103 -129 -138c-33 -27 -66 -45 -93 -45c-26 0 -58 33 -58 112c0 101 47 211 120 272c51 42 124 77 187 77c20 0 40 -3 62 -8c13 -3 27 -6 38 -6l2 -4c-16 -62 -46 -198 -69 -325
c-6 -34 -3 -43 2 -43c9 0 43 24 73 53zM149 52c39 0 153 126 186 196c12 39 27 111 33 143c-14 7 -40 14 -66 14c-27 0 -54 -8 -72 -21c-68 -50 -108 -167 -108 -266c0 -45 12 -66 27 -66zM429 620l23 -12c-26 -68 -55 -85 -80 -85c-23 0 -41 11 -68 23c-14 7 -26 12 -42 12
c-15 0 -32 -15 -47 -44l-23 15c25 63 56 84 80 84c17 0 30 -5 58 -18c21 -9 38 -16 53 -16c17 0 31 15 46 41z" />
    <glyph glyph-name="ccedilla" unicode="&#xe7;" horiz-adv-x="381" 
d="M335 121l16 -22c-47 -52 -101 -85 -143 -99l-20 -25c-14 -19 -13 -26 2 -44c24 -27 33 -46 32 -68c-2 -41 -55 -81 -125 -102l-10 25c44 20 71 40 72 63c1 17 -10 28 -20 39c-22 25 -24 36 -5 61l32 40v1c-77 -10 -123 47 -123 140c0 86 38 187 105 246
c43 37 112 73 166 73c41 0 74 -26 74 -49c0 -14 -10 -30 -28 -43c-12 -8 -22 -7 -30 4c-19 28 -42 40 -72 40c-31 0 -62 -19 -86 -63c-23 -42 -46 -113 -46 -184c-1 -66 25 -106 70 -106c55 0 110 47 139 73z" />
    <glyph glyph-name="eacute" unicode="&#xe9;" 
d="M349 124l16 -23c-87 -94 -162 -113 -210 -113c-47 0 -111 27 -111 146c0 93 42 198 121 258c42 33 95 57 138 57c53 0 87 -38 87 -80c0 -99 -167 -153 -264 -177c-1 -13 -1 -23 -1 -32c0 -54 16 -113 77 -113c42 0 96 28 147 77zM266 407c-15 0 -31 -4 -42 -11
c-26 -16 -76 -62 -94 -174c143 39 186 84 186 131c0 34 -21 54 -50 54zM413 661l-155 -170l-23 16c33 52 82 137 92 156c11 3 68 12 83 9z" />
    <glyph glyph-name="ecircumflex" unicode="&#xea;" 
d="M349 124l16 -23c-87 -94 -162 -113 -210 -113c-47 0 -111 27 -111 146c0 93 42 198 121 258c42 33 95 57 138 57c53 0 87 -38 87 -80c0 -99 -167 -153 -264 -177c-1 -13 -1 -23 -1 -32c0 -54 16 -113 77 -113c42 0 96 28 147 77zM266 407c-15 0 -31 -4 -42 -11
c-26 -16 -76 -62 -94 -174c143 39 186 84 186 131c0 34 -21 54 -50 54zM377 505l-23 -17c-28 32 -52 67 -71 96c-30 -30 -67 -65 -108 -96l-20 17c48 55 93 109 130 163h22c17 -53 41 -108 70 -163z" />
    <glyph glyph-name="edieresis" unicode="&#xeb;" 
d="M348 124l17 -23c-88 -94 -163 -113 -210 -113s-111 27 -111 146c0 93 42 198 120 258c42 33 96 57 139 57c53 0 87 -38 87 -80c0 -99 -168 -153 -264 -177c-1 -13 -1 -23 -1 -32c0 -54 16 -113 76 -113c42 0 97 28 147 77zM265 407c-14 0 -31 -4 -42 -11
c-26 -16 -76 -62 -93 -174c143 39 186 84 186 131c0 34 -21 54 -51 54zM201 630c24 0 37 -20 37 -42c0 -30 -20 -55 -50 -55c-22 0 -39 17 -39 41c0 25 18 56 52 56zM377 630c25 0 38 -20 38 -42c0 -30 -21 -55 -50 -55c-22 0 -39 17 -39 41c0 25 18 56 51 56z" />
    <glyph glyph-name="egrave" unicode="&#xe8;" 
d="M349 124l16 -23c-87 -94 -162 -113 -210 -113c-47 0 -111 27 -111 146c0 93 42 198 121 258c42 33 95 57 138 57c53 0 87 -38 87 -80c0 -99 -167 -153 -264 -177c-1 -13 -1 -23 -1 -32c0 -54 16 -113 77 -113c42 0 96 28 147 77zM266 407c-15 0 -31 -4 -42 -11
c-26 -16 -76 -62 -94 -174c143 39 186 84 186 131c0 34 -21 54 -50 54zM316 499l-29 -9c-30 57 -62 118 -89 164l3 9c8 4 57 14 73 12c10 -49 29 -121 42 -176z" />
    <glyph glyph-name="iacute" unicode="&#xed;" horiz-adv-x="274" 
d="M225 109l12 -21c-34 -41 -111 -100 -146 -100c-20 0 -33 16 -13 98l62 256c6 22 5 30 -1 32c-8 0 -38 -18 -68 -43l-12 23c55 54 124 95 151 95c22 0 22 -31 10 -79l-68 -276c-6 -24 -4 -32 2 -32c12 0 47 26 71 47zM335 660l-155 -170l-23 16c33 52 82 137 92 156
c11 4 68 12 83 10z" />
    <glyph glyph-name="icircumflex" unicode="&#xee;" horiz-adv-x="274" 
d="M225 109l12 -21c-34 -41 -111 -100 -146 -100c-20 0 -33 16 -13 98l62 256c6 22 5 30 -1 32c-8 0 -38 -18 -68 -43l-12 23c55 54 124 95 151 95c22 0 22 -31 10 -79l-68 -276c-6 -24 -4 -32 2 -32c12 0 47 26 71 47zM300 505l-23 -17c-28 32 -52 68 -71 96
c-30 -29 -67 -64 -109 -96l-19 18c48 55 93 109 130 162h22c17 -53 41 -108 70 -163z" />
    <glyph glyph-name="idieresis" unicode="&#xef;" horiz-adv-x="274" 
d="M225 109l12 -21c-34 -41 -112 -100 -146 -100c-20 0 -33 16 -13 98l62 256c6 22 5 30 -1 32c-8 0 -38 -18 -68 -43l-12 23c55 54 124 95 151 95c22 0 22 -31 10 -79l-68 -276c-6 -24 -4 -32 2 -32c12 0 47 26 71 47zM129 630c24 0 38 -19 38 -42c0 -30 -21 -55 -50 -55
c-22 0 -39 17 -39 41c0 25 17 56 51 56zM305 630c24 0 37 -19 37 -42c0 -30 -20 -55 -50 -55c-22 0 -39 17 -39 41c0 25 18 56 52 56z" />
    <glyph glyph-name="igrave" unicode="&#xec;" horiz-adv-x="274" 
d="M225 109l12 -21c-34 -41 -111 -100 -146 -100c-20 0 -33 16 -13 98l62 256c6 22 5 30 -1 32c-8 0 -38 -18 -68 -43l-12 23c55 54 124 95 151 95c22 0 22 -31 10 -79l-68 -276c-6 -24 -4 -32 2 -32c12 0 47 26 71 47zM229 499l-29 -9c-30 57 -62 118 -89 165l3 8
c8 4 57 15 73 12c10 -49 29 -121 42 -176z" />
    <glyph glyph-name="ntilde" unicode="&#xf1;" horiz-adv-x="532" 
d="M480 109l15 -24c-59 -65 -115 -97 -141 -97c-24 0 -34 27 -15 104c18 74 35 148 52 222c14 57 8 71 -7 71c-44 0 -160 -123 -210 -208c-12 -49 -27 -108 -39 -169c-26 -5 -53 -12 -72 -19l-6 7c28 109 57 228 82 339c7 32 4 40 -2 40c-9 0 -39 -21 -64 -45l-14 24
c55 58 113 95 141 95c22 0 26 -34 8 -111l-21 -87h2c68 93 142 151 184 175c26 16 47 23 66 23c25 0 53 -15 23 -143c-16 -68 -33 -138 -49 -207c-6 -27 -5 -36 2 -36c9 0 36 17 65 46zM439 620l24 -13c-27 -67 -55 -85 -81 -85c-22 0 -41 12 -67 24c-15 7 -27 12 -42 12
c-16 0 -32 -15 -48 -44l-22 15c24 63 56 84 80 84c17 0 29 -5 58 -17c21 -10 37 -17 52 -17c17 0 31 16 46 41z" />
    <glyph glyph-name="oacute" unicode="&#xf3;" horiz-adv-x="470" 
d="M178 -12c-95 0 -132 75 -132 155c0 130 69 230 152 273c36 20 77 33 109 33c82 0 132 -57 132 -156c0 -86 -37 -184 -107 -242c-43 -36 -98 -63 -154 -63zM214 28c12 0 22 2 33 6c53 23 109 129 108 257c0 81 -35 119 -81 119c-15 0 -27 -3 -38 -8
c-39 -18 -106 -100 -106 -253c0 -74 31 -121 84 -121zM423 661l-155 -170l-23 16c33 52 82 137 92 156c11 3 68 12 83 9z" />
    <glyph glyph-name="ocircumflex" unicode="&#xf4;" horiz-adv-x="470" 
d="M178 -12c-95 0 -132 75 -132 155c0 130 69 230 152 273c36 20 77 33 109 33c82 0 132 -57 132 -156c0 -86 -37 -184 -107 -242c-43 -36 -98 -63 -154 -63zM214 28c12 0 22 2 33 6c53 23 109 129 108 257c0 81 -35 119 -81 119c-15 0 -27 -3 -38 -8
c-39 -18 -106 -100 -106 -253c0 -74 31 -121 84 -121zM406 505l-23 -17c-28 32 -52 67 -71 96c-30 -30 -67 -65 -108 -96l-20 17c48 55 93 109 130 163h22c17 -53 41 -108 70 -163z" />
    <glyph glyph-name="odieresis" unicode="&#xf6;" horiz-adv-x="470" 
d="M178 -12c-95 0 -132 75 -132 155c0 130 69 230 151 273c37 20 78 33 109 33c83 0 133 -57 133 -156c0 -86 -37 -184 -107 -242c-43 -36 -98 -63 -154 -63zM214 28c12 0 22 2 32 6c54 23 110 129 109 257c0 81 -35 119 -81 119c-15 0 -27 -3 -38 -8
c-39 -18 -106 -100 -106 -253c0 -74 31 -121 84 -121zM229 630c24 0 37 -20 37 -42c0 -30 -21 -55 -50 -55c-22 0 -39 17 -39 41c0 25 18 56 52 56zM405 630c24 0 38 -20 38 -42c0 -30 -21 -55 -51 -55c-22 0 -39 17 -39 41c0 25 18 56 52 56z" />
    <glyph glyph-name="ograve" unicode="&#xf2;" horiz-adv-x="470" 
d="M178 -12c-95 0 -132 75 -132 155c0 130 69 230 152 273c36 20 77 33 109 33c82 0 132 -57 132 -156c0 -86 -37 -184 -107 -242c-43 -36 -98 -63 -154 -63zM214 28c12 0 22 2 33 6c53 23 109 129 108 257c0 81 -35 119 -81 119c-15 0 -27 -3 -38 -8
c-39 -18 -106 -100 -106 -253c0 -74 31 -121 84 -121zM336 499l-29 -9c-30 57 -62 118 -89 164l3 9c8 4 57 14 73 12c10 -49 29 -121 42 -176z" />
    <glyph glyph-name="otilde" unicode="&#xf5;" horiz-adv-x="470" 
d="M178 -12c-95 0 -132 75 -132 155c0 130 69 230 152 273c36 20 77 33 109 33c82 0 132 -57 132 -156c0 -86 -37 -184 -107 -242c-43 -36 -98 -63 -154 -63zM214 28c12 0 22 2 33 6c53 23 109 129 108 257c0 81 -35 119 -81 119c-15 0 -27 -3 -38 -8
c-39 -18 -106 -100 -106 -253c0 -74 31 -121 84 -121zM412 619l24 -11c-26 -67 -55 -85 -80 -85c-23 0 -41 12 -68 23c-15 7 -27 11 -42 11c-16 0 -32 -14 -48 -43l-22 16c24 62 56 83 80 83c17 0 29 -5 58 -18c21 -10 37 -17 53 -17s30 16 45 41z" />
    <glyph glyph-name="scaron" unicode="&#x161;" horiz-adv-x="337" 
d="M113 -12c-47 0 -101 37 -101 72c-1 17 12 32 29 42c13 6 20 4 25 -3c26 -39 63 -61 96 -61c40 0 67 28 67 60c0 25 -11 47 -59 84c-45 34 -87 71 -87 122c0 29 12 62 52 96c31 27 79 49 112 49c43 0 77 -30 77 -56c0 -17 -10 -32 -25 -42c-9 -6 -16 -4 -22 5
c-20 25 -44 45 -78 45c-29 0 -54 -22 -54 -56c0 -36 29 -61 66 -89c59 -45 83 -74 83 -117c0 -76 -100 -151 -181 -151zM349 672l22 -18c-49 -55 -93 -108 -130 -162h-22c-17 53 -41 107 -71 163l25 17c27 -32 51 -66 69 -96c31 30 66 64 107 96z" />
    <glyph glyph-name="uacute" unicode="&#xfa;" horiz-adv-x="533" 
d="M492 113l13 -23c-48 -58 -115 -102 -145 -102c-21 0 -35 19 -15 106c8 34 12 54 19 88h-2c-49 -66 -108 -126 -161 -163c-28 -20 -57 -31 -81 -31c-27 0 -59 19 -34 127c19 77 37 153 55 230c6 24 4 32 -3 33c-7 0 -36 -19 -70 -48l-11 25c58 58 120 94 147 94
c23 0 27 -20 11 -87c-18 -80 -36 -160 -55 -240c-11 -49 -3 -66 13 -66c55 0 166 134 206 207c11 46 23 98 36 160l69 26h11c-27 -106 -54 -218 -79 -348c-5 -31 -3 -40 4 -40c9 0 44 24 72 52zM465 660l-154 -170l-23 16c33 52 82 137 92 156c11 4 67 12 82 10z" />
    <glyph glyph-name="ucircumflex" unicode="&#xfb;" horiz-adv-x="533" 
d="M492 113l13 -23c-48 -58 -115 -102 -145 -102c-21 0 -35 19 -15 106c8 34 12 54 19 88h-2c-49 -66 -108 -126 -161 -163c-28 -20 -57 -31 -81 -31c-27 0 -59 19 -34 127c19 77 37 153 55 230c6 24 4 32 -3 33c-7 0 -36 -19 -70 -48l-11 25c58 58 120 94 147 94
c23 0 27 -20 11 -87c-18 -80 -36 -160 -55 -240c-11 -49 -3 -66 13 -66c55 0 166 134 206 207c11 46 23 98 36 160l69 26h11c-27 -106 -54 -218 -79 -348c-5 -31 -3 -40 4 -40c9 0 44 24 72 52zM436 505l-23 -17c-28 32 -52 68 -71 96c-30 -29 -67 -64 -108 -96l-20 18
c48 55 93 109 130 162h22c17 -53 41 -108 70 -163z" />
    <glyph glyph-name="udieresis" unicode="&#xfc;" horiz-adv-x="533" 
d="M492 113l13 -23c-49 -58 -115 -102 -145 -102c-21 0 -35 19 -15 106c8 34 12 54 19 88h-2c-49 -66 -108 -126 -161 -163c-27 -20 -57 -31 -81 -31c-27 0 -59 19 -34 127c19 77 37 153 55 230c6 24 4 32 -3 33c-7 0 -36 -19 -70 -48l-11 25c58 58 121 94 148 94
c22 0 26 -20 11 -87c-18 -80 -37 -160 -56 -240c-11 -49 -3 -66 13 -66c55 0 166 134 206 207c11 46 23 98 36 160l69 26h11c-27 -106 -54 -218 -79 -348c-5 -31 -3 -40 4 -40c8 0 44 24 72 52zM261 630c24 0 37 -19 37 -42c0 -29 -20 -54 -49 -54c-23 0 -40 17 -40 41
s18 55 52 55zM436 630c24 0 37 -19 37 -42c0 -29 -20 -54 -49 -54c-23 0 -39 17 -39 41s17 55 51 55z" />
    <glyph glyph-name="ugrave" unicode="&#xf9;" horiz-adv-x="533" 
d="M492 113l13 -23c-48 -58 -115 -102 -145 -102c-21 0 -35 19 -15 106c8 34 12 54 19 88h-2c-49 -66 -108 -126 -161 -163c-28 -20 -57 -31 -81 -31c-27 0 -59 19 -34 127c19 77 37 153 55 230c6 24 4 32 -3 33c-7 0 -36 -19 -70 -48l-11 25c58 58 120 94 147 94
c23 0 27 -20 11 -87c-18 -80 -36 -160 -55 -240c-11 -49 -3 -66 13 -66c55 0 166 134 206 207c11 46 23 98 36 160l69 26h11c-27 -106 -54 -218 -79 -348c-5 -31 -3 -40 4 -40c9 0 44 24 72 52zM362 499l-29 -9c-30 57 -62 118 -89 165l4 8c7 4 56 15 72 12
c10 -49 29 -121 42 -176z" />
    <glyph glyph-name="yacute" unicode="&#xfd;" horiz-adv-x="442" 
d="M239 75h2c43 66 135 202 135 275c-1 20 -7 35 -12 47c-3 7 -2 17 2 24c7 16 25 28 42 28c23 0 39 -22 40 -55c0 -28 -11 -62 -36 -106c-42 -76 -127 -208 -181 -283c-59 -85 -124 -173 -180 -235l-104 -27l-8 22c107 70 186 158 235 224c-1 79 -17 234 -31 326
c-6 50 -13 62 -21 62s-33 -23 -58 -58l-17 23c32 49 82 107 118 107c28 0 43 -38 52 -118c9 -75 16 -165 22 -256zM432 660l-155 -170l-23 16c33 52 82 137 92 156c11 4 68 12 83 10z" />
    <glyph glyph-name="ydieresis" unicode="&#xff;" horiz-adv-x="442" 
d="M239 75h2c43 66 135 202 135 275c-1 20 -7 35 -12 47c-3 7 -2 17 2 24c7 16 25 28 42 28c23 0 39 -22 40 -55c0 -28 -11 -62 -36 -106c-42 -76 -127 -208 -181 -283c-59 -85 -124 -173 -180 -235l-104 -27l-8 22c107 71 186 158 235 224c-1 79 -17 235 -31 326
c-6 50 -13 62 -21 62s-33 -23 -58 -58l-17 22c32 50 82 108 118 108c28 0 43 -38 52 -118c9 -75 16 -165 22 -256zM219 630c24 0 37 -20 37 -42c0 -30 -21 -55 -50 -55c-22 0 -39 17 -39 41c0 25 18 56 52 56zM394 630c24 0 37 -20 37 -42c0 -30 -21 -55 -50 -55
c-22 0 -39 17 -39 41c0 25 18 56 52 56z" />
    <glyph glyph-name="zcaron" unicode="&#x17e;" horiz-adv-x="418" 
d="M420 463l21 -21c-13 -16 -31 -37 -58 -68c-64 -72 -195 -204 -270 -282c19 2 45 -4 76 -16c31 -11 65 -24 90 -24c27 0 57 17 102 86l22 -19c-54 -108 -94 -139 -138 -139c-32 0 -90 27 -133 49c-32 15 -50 15 -63 5c-11 -7 -23 -21 -31 -35c-4 -6 -7 -8 -12 -8
c-7 11 -25 36 35 100c69 74 186 186 278 285c-16 -3 -38 -4 -61 -2c-26 2 -70 6 -95 6c-46 0 -70 -35 -99 -86l-25 13c13 31 25 55 40 80c24 38 49 59 74 59c27 0 57 -4 106 -12c45 -8 63 -9 80 -9c16 0 37 11 61 38zM383 671l23 -18c-49 -54 -93 -108 -130 -161h-22
c-18 53 -42 106 -71 162l25 17c26 -31 50 -66 69 -95c31 30 66 64 106 95z" />
    <glyph glyph-name="twodotenleader" unicode="&#x2025;" horiz-adv-x="500" 
d="M89 -12c-29 0 -50 22 -50 53c0 37 25 63 59 63c29 0 50 -23 50 -54c0 -39 -28 -62 -59 -62zM338 -12c-29 0 -50 22 -50 53c0 37 25 63 59 63c29 0 50 -23 50 -54c0 -39 -28 -62 -59 -62z" />
    <glyph glyph-name="onedotenleader" unicode="&#x2024;" horiz-adv-x="500" 
d="M214 -12c-29 0 -50 22 -50 53c0 37 25 63 59 63c29 0 50 -23 50 -54c0 -40 -28 -62 -59 -62z" />
    <glyph glyph-name="colonmonetary" unicode="&#x20a1;" horiz-adv-x="477" 
d="M479 687l-25 -72c27 -6 40 -12 52 -16c-4 -49 -7 -82 -14 -123l-26 -2c1 49 -8 84 -27 99l-189 -538c5 -1 6 -1 10 -1c53 1 92 38 146 115l23 -13c-17 -40 -41 -87 -61 -113c-22 -8 -61 -22 -116 -22h-14l-24 -67h-31l25 70c-18 3 -29 8 -43 15l-31 -85h-30l35 99
c-51 34 -85 105 -84 199c2 212 141 368 291 387l25 68h30l-22 -65c16 1 30 0 46 -2l24 67h30zM220 39l193 546c-13 4 -22 6 -34 6c-5 0 -8 0 -12 -1l-187 -529c13 -12 22 -18 40 -22zM159 87l176 498c-69 -16 -199 -138 -198 -382c0 -52 9 -85 22 -116z" />
    <glyph glyph-name="figuredash" unicode="&#x2012;" horiz-adv-x="477" 
d="M434 345l-11 -56h-341l12 56h340z" />
    <glyph glyph-name="oneeighth" unicode="&#x215b;" horiz-adv-x="740" 
d="M646 631l-503 -658l-27 24l502 657zM266 300l-5 -23h-191l6 23c50 5 61 8 71 57l35 181c8 40 4 41 -28 44l-28 2l5 22c43 5 85 15 134 29l-54 -278c-10 -50 1 -51 55 -57zM530 -8c-53 0 -113 30 -113 92c0 25 12 46 38 65c11 9 35 22 54 32c-25 16 -49 40 -49 75
c0 58 62 101 123 101c49 0 100 -28 100 -85c0 -19 -10 -39 -26 -51c-9 -8 -24 -18 -45 -31c30 -20 60 -46 60 -89c0 -68 -72 -109 -142 -109zM572 330c-33 0 -55 -26 -55 -55c0 -39 46 -59 71 -74c24 16 40 40 40 69c0 36 -22 60 -56 60zM540 19c34 0 68 24 68 65
c0 42 -39 61 -77 84c-37 -20 -58 -51 -58 -81c0 -42 33 -68 67 -68z" />
    <glyph glyph-name="threeeighths" unicode="&#x215c;" horiz-adv-x="740" 
d="M646 631l-503 -658l-27 24l503 657zM135 545l-17 16l30 37c18 20 49 37 88 37h1c43 0 86 -25 86 -74c0 -36 -37 -58 -66 -72v-2c33 -8 69 -34 69 -78c0 -58 -44 -91 -83 -111c-34 -18 -70 -27 -93 -27c-33 0 -62 14 -71 24c-9 8 -9 16 -6 26c4 10 13 20 21 25
c6 4 14 4 21 -4c16 -14 41 -33 73 -33c36 0 70 27 70 75c0 47 -32 68 -68 68c-14 0 -29 -4 -37 -7l-6 24c61 13 110 42 110 81c0 27 -17 42 -47 42c-31 0 -57 -23 -75 -47zM526 -8c-53 0 -113 30 -113 92c0 25 13 46 38 65c11 9 35 22 53 32c-24 16 -48 40 -48 75
c0 59 62 101 124 101c48 0 99 -28 99 -84c0 -20 -10 -40 -26 -53c-10 -7 -24 -17 -45 -31c30 -20 60 -45 60 -88c0 -68 -71 -109 -142 -109zM568 330c-33 0 -55 -26 -55 -54c0 -40 46 -60 72 -74c23 15 39 39 39 68c0 36 -22 60 -56 60zM536 20c34 0 68 23 68 64
c0 42 -39 61 -77 83c-37 -19 -58 -50 -58 -80c0 -42 34 -67 67 -67z" />
    <glyph glyph-name="fiveeighths" unicode="&#x215d;" horiz-adv-x="740" 
d="M649 631l-503 -658l-27 24l502 657zM347 629l-21 -51h-145l-29 -86c25 8 51 14 69 14c52 0 104 -31 104 -94c0 -49 -31 -83 -77 -110c-38 -23 -75 -31 -101 -31c-30 0 -58 12 -68 23c-7 7 -12 16 -8 26s12 19 19 23c7 5 15 5 21 0c19 -18 45 -33 78 -33s72 25 72 82
c0 50 -35 73 -80 73c-27 0 -52 -6 -71 -13l51 177h186zM528 -8c-53 0 -113 30 -113 92c0 25 12 46 38 65c11 9 35 22 54 32c-25 16 -49 40 -49 75c0 59 62 101 123 101c49 0 100 -28 100 -84c0 -20 -10 -40 -26 -52c-10 -8 -24 -18 -45 -31c30 -20 60 -46 60 -89
c0 -68 -72 -109 -142 -109zM570 330c-33 0 -55 -25 -55 -54c0 -40 46 -60 72 -74c23 15 39 39 39 68c0 36 -22 60 -56 60zM538 20c34 0 68 23 68 64c0 42 -39 62 -77 84c-37 -20 -58 -51 -58 -80c0 -43 34 -68 67 -68z" />
    <glyph glyph-name="seveneighths" unicode="&#x215e;" horiz-adv-x="740" 
d="M624 631l-503 -658l-27 24l503 657zM156 539l-24 2c13 37 20 63 29 88h234l6 -8c-72 -112 -148 -226 -220 -346l-57 -5l-4 10c80 99 152 198 219 299h-128c-27 0 -33 -4 -43 -20zM520 -8c-53 0 -113 30 -113 92c0 25 12 46 38 65c11 9 35 22 53 32c-24 16 -48 40 -48 75
c0 59 61 101 124 101c48 0 99 -28 99 -84c0 -20 -10 -40 -26 -53c-10 -7 -24 -17 -45 -30c30 -21 60 -46 60 -89c0 -68 -71 -109 -142 -109zM562 330c-33 0 -55 -25 -55 -54c0 -40 46 -60 72 -74c23 15 39 39 39 68c0 36 -22 60 -56 60zM529 20h2c33 0 67 23 67 64
c0 42 -38 61 -77 83c-37 -19 -58 -50 -58 -80c0 -42 34 -67 66 -67z" />
    <glyph glyph-name="onethird" unicode="&#x2153;" horiz-adv-x="740" 
d="M653 631l-504 -657l-26 24l502 656zM270 300l-6 -23h-191l6 23c51 5 62 8 71 57l35 181c8 40 4 41 -28 44l-28 2l6 22c42 5 84 15 133 29l-54 -278c-10 -50 2 -51 56 -57zM484 267l-17 17l30 37c18 19 49 36 88 36h1c43 0 86 -25 86 -73c0 -37 -37 -59 -67 -73v-2
c33 -7 69 -34 69 -77c0 -59 -43 -93 -82 -113c-34 -18 -70 -26 -93 -26c-34 0 -62 14 -71 24c-8 9 -10 17 -7 26c4 10 14 21 21 25c7 5 14 4 21 -3c17 -15 42 -35 75 -35c36 0 68 28 68 76c0 47 -31 68 -67 68c-14 0 -29 -3 -38 -7l-5 24c60 13 110 42 110 82
c0 27 -18 42 -47 42c-31 0 -57 -23 -75 -48z" />
    <glyph glyph-name="twothirds" unicode="&#x2154;" horiz-adv-x="740" 
d="M674 631l-503 -657l-27 24l503 656zM318 369l21 -9c-16 -31 -27 -54 -40 -83h-241l3 18c30 22 75 57 117 93c44 40 94 88 94 139c0 34 -17 59 -59 59c-37 0 -64 -31 -85 -56l-18 16l39 49c23 26 59 40 96 40c49 0 97 -34 97 -96c0 -69 -74 -117 -128 -159l-62 -49v-2h93
c34 0 47 6 73 40zM494 267l-18 17l31 37c18 19 48 36 87 36h1c43 0 86 -25 86 -73c0 -37 -38 -59 -67 -73v-2c33 -8 70 -34 70 -78c0 -58 -44 -92 -83 -112c-34 -18 -69 -26 -92 -26c-34 0 -62 14 -71 24c-8 9 -10 17 -7 26c4 10 14 21 21 25c7 5 14 4 21 -4
c16 -14 42 -34 74 -34c36 0 69 28 69 76c0 47 -31 68 -68 68c-14 0 -28 -3 -37 -7l-6 24c61 13 110 42 110 82c0 27 -17 42 -47 42c-31 0 -57 -23 -74 -48z" />
    <glyph glyph-name="Aringacute" unicode="&#x1fa;" horiz-adv-x="664" 
d="M621 27l-7 -27h-236l7 27c69 7 73 18 67 61c-6 42 -15 90 -25 148h-209c-17 -32 -47 -90 -69 -136c-29 -60 -22 -67 54 -73l-6 -27h-215l7 27c62 8 72 13 119 96l300 533l31 8l28 -178c20 -128 42 -253 64 -372c12 -72 19 -80 90 -87zM421 278l-40 258h-2
c-50 -91 -96 -174 -139 -258h181zM521 769c-1 -53 -48 -86 -96 -86c-47 0 -80 33 -79 79c2 55 46 90 95 90c44 0 82 -31 80 -83zM476 771c1 27 -12 48 -39 48c-26 0 -45 -23 -46 -55c-1 -27 13 -47 38 -47c26 0 46 22 47 54zM589 947l-2 -8l-187 -63l-13 25
c55 34 115 72 161 101c13 -3 38 -40 41 -55z" />
    <glyph glyph-name="R_p" unicode="&#xf6dd;" horiz-adv-x="874" 
d="M670 493l-17 -75c24 8 46 12 71 12c90 0 128 -49 127 -131c-1 -58 -28 -137 -80 -200c-45 -54 -106 -95 -164 -111c-13 0 -27 2 -42 9l-23 -122c-9 -46 -8 -58 22 -62l41 -5l-2 -25l-213 -12l3 26c56 11 63 20 73 68l26 127h-12c-78 2 -109 35 -133 89
c-23 56 -41 115 -57 160c-9 28 -20 32 -46 32h-33l-29 -147c-17 -89 -11 -93 58 -100l-6 -26h-224l6 26c67 7 74 11 92 100l73 370c18 90 10 93 -56 101l5 26h193c46 0 92 -7 124 -29s54 -61 53 -122c-1 -95 -74 -151 -146 -178c10 -28 30 -88 48 -133
c19 -47 34 -81 48 -102c15 -23 26 -31 47 -40l72 343c-26 -6 -50 -16 -72 -26l-5 25c30 17 58 29 85 38l10 41c20 22 51 44 73 56zM217 304h32c35 0 64 4 96 26c47 31 72 77 73 139c1 81 -36 122 -104 122c-18 0 -24 -1 -32 -5s-11 -10 -14 -29zM645 380l-66 -320
c9 -15 24 -27 47 -27c61 0 142 119 143 247c2 88 -35 107 -80 107c-18 0 -30 -2 -44 -7z" />
    <glyph glyph-name="K.alt" unicode="&#xe070;" horiz-adv-x="653" 
d="M716 649l-7 -27c-75 -10 -94 -18 -155 -66c-48 -38 -133 -114 -213 -186c50 -87 142 -225 189 -291c52 -73 78 -107 89 -121l-14 -13c-40 4 -99 28 -150 96c-44 57 -107 153 -162 245c-22 38 -33 40 -62 27l-34 -187c-15 -86 -11 -92 68 -99l-6 -27h-246l7 27
c73 7 80 12 97 99l77 401c16 83 10 87 -68 95l7 27h243l-6 -27c-77 -8 -81 -11 -97 -95l-36 -186c25 9 51 26 76 48c50 42 130 117 204 189c26 27 26 35 -8 40l-34 4l7 27h234z" />
    <glyph glyph-name="R.alt" unicode="&#xe0a7;" horiz-adv-x="601" 
d="M579 -42l-15 -13c-43 5 -100 38 -143 116c-40 71 -70 130 -92 174c-19 39 -31 46 -66 46h-37l-28 -153c-16 -88 -11 -93 70 -101l-6 -27h-252l7 27c77 8 82 12 100 100l77 402c16 82 11 86 -68 93l6 27h218c54 0 106 -7 141 -31s60 -63 60 -124
c0 -101 -76 -162 -161 -192c27 -58 84 -166 123 -234c27 -46 49 -84 66 -110zM233 314h47c43 0 77 7 106 26c47 31 76 84 76 146c0 88 -48 131 -119 131c-19 0 -35 -3 -45 -10c-8 -5 -13 -16 -18 -42z" />
    <glyph glyph-name="Dcroat" unicode="&#x110;" horiz-adv-x="719" 
d="M138 649h249c188 0 319 -77 319 -268c0 -125 -62 -238 -166 -306c-89 -56 -182 -75 -308 -75h-215l8 27c76 8 83 11 99 91l39 203h-110l9 37h108l33 168c16 86 9 88 -71 96zM244 321l-34 -185c-10 -58 -9 -75 12 -87c16 -9 39 -13 68 -13c227 1 321 183 321 352
c0 120 -54 228 -226 228c-35 0 -59 -3 -71 -9s-18 -14 -22 -39l-40 -210h155l-8 -37h-155z" />
    <glyph glyph-name="Eng" unicode="&#x14a;" horiz-adv-x="705" 
d="M766 649l-6 -26c-55 -3 -75 -15 -87 -60c-7 -26 -21 -81 -39 -174l-60 -320c-18 -94 -35 -167 -68 -218c-31 -48 -67 -67 -101 -67c-24 0 -42 13 -42 31c0 20 20 49 32 49s18 -11 40 -11c31 0 65 43 86 154l-288 515h-3l-51 -264c-17 -87 -23 -139 -26 -171
c-4 -47 15 -56 85 -61l-6 -26h-230l6 26c52 4 75 15 89 59c11 35 22 81 41 173l51 247c11 50 8 65 -5 86c-11 20 -31 29 -85 32l6 26h144l295 -509h3l46 249c17 93 25 148 27 175c4 47 -19 55 -86 59l6 26h226z" />
    <glyph glyph-name="Hbar" unicode="&#x126;" horiz-adv-x="743" 
d="M776 508l-9 -36h-94l-68 -353c-16 -79 -11 -85 71 -92l-7 -27h-253l6 27c79 7 85 13 100 92l39 201h-327l-38 -201c-15 -79 -9 -86 72 -92l-6 -27h-249l7 27c74 7 79 13 94 92l69 353h-98l10 36h95l5 28c14 73 9 79 -74 86l7 27h247l-6 -27c-72 -7 -80 -14 -93 -86
l-6 -28h327l5 28c14 74 8 78 -69 86l6 27h248l-6 -27c-77 -7 -82 -13 -96 -86l-5 -28h96zM590 472h-326l-21 -111h326z" />
    <glyph glyph-name="Tbar" unicode="&#x166;" horiz-adv-x="599" 
d="M636 674h20c-8 -45 -17 -122 -23 -176l-31 -3c0 38 -3 69 -13 91c-11 26 -35 29 -108 29h-58l-49 -266h145l-10 -37h-142l-36 -193c-16 -82 -7 -86 82 -92l-6 -27h-272l6 27c85 6 90 11 106 92l38 193h-134l9 37h131l51 266h-43c-84 0 -111 -6 -130 -29
c-16 -19 -32 -49 -50 -91l-30 1c18 58 36 123 47 178h20c10 -23 21 -25 48 -25h379c26 0 34 6 53 25z" />
    <glyph glyph-name="uni021C" unicode="&#x21c;" horiz-adv-x="495" 
d="M151 271l-10 29c132 43 239 109 239 222c0 70 -44 107 -101 107c-69 0 -112 -50 -154 -143l-28 10c19 53 30 94 41 132c61 14 102 36 172 36c98 0 162 -52 162 -129c0 -79 -66 -133 -151 -183v-2c90 -20 145 -80 145 -161c0 -169 -206 -285 -421 -312l-57 46l9 21
c30 -8 67 -14 99 -14c134 0 275 90 275 235c0 87 -61 130 -119 130c-29 0 -59 -8 -101 -24z" />
    <glyph glyph-name="a.end" unicode="&#xe0fe;" horiz-adv-x="645" 
d="M441 435l3 -4c-16 -61 -53 -229 -77 -371c-1 -6 0 -11 9 -12c25 -3 64 -5 97 -5c82 0 92 33 92 64c0 8 -1 17 -3 24c-1 5 1 10 6 16c11 13 29 25 39 25s17 -14 17 -36c0 -27 -20 -63 -48 -90c-43 -40 -79 -50 -145 -50c-38 0 -67 1 -91 2c-24 2 -40 3 -49 2
c-7 -1 -8 1 -6 9l32 155h-3c-35 -48 -84 -95 -127 -130c-34 -28 -65 -46 -92 -46c-26 0 -58 34 -58 115c0 98 48 208 120 268c51 42 123 78 184 78h1c20 0 40 -3 62 -8c14 -3 27 -6 37 -6zM297 406c-25 0 -52 -8 -69 -21c-69 -51 -108 -166 -108 -265c0 -45 12 -65 25 -65
c40 0 151 119 183 181c14 46 30 124 36 156c-14 7 -41 14 -67 14z" />
    <glyph glyph-name="e.end" unicode="&#xe109;" horiz-adv-x="578" 
d="M346 124l17 -23c-87 -94 -161 -113 -209 -113c-47 0 -112 27 -112 149c0 94 43 196 120 256c45 35 95 56 134 56c52 0 81 -38 81 -80c0 -46 -35 -84 -86 -105c85 -1 105 -2 146 -2c94 0 119 29 119 63c0 21 -8 38 -11 48c3 9 31 36 45 36c13 0 26 -21 26 -48
c0 -19 -9 -47 -32 -75c-32 -39 -90 -71 -169 -71c-60 0 -127 4 -192 4c-55 0 -84 -2 -97 -5c-3 -16 -3 -38 -3 -53c0 -56 16 -112 75 -112c46 0 99 28 148 75zM263 409c-70 0 -122 -107 -133 -165c98 13 174 42 175 110c1 36 -20 55 -42 55z" />
    <glyph glyph-name="k.alt" unicode="&#xe11f;" horiz-adv-x="444" 
d="M156 233l2 -1c34 39 59 65 87 94c57 59 129 123 174 123c28 0 42 -17 42 -31c0 -13 -10 -30 -20 -41c-6 -5 -12 -8 -16 -6c-9 6 -22 10 -39 10c-44 0 -98 -53 -133 -90c27 -68 66 -146 99 -214c31 -64 57 -115 62 -125l-9 -6c-25 5 -44 11 -61 22c-22 14 -39 36 -54 66
c-32 60 -63 126 -95 197c-22 -24 -44 -47 -51 -59c-13 -60 -25 -117 -33 -165c-25 -5 -51 -12 -72 -19l-6 6c45 200 91 399 134 608c9 44 4 48 -38 49l-28 1l5 25c81 9 134 35 147 35c10 0 9 -10 5 -30c-36 -152 -67 -296 -102 -449z" />
    <glyph glyph-name="m.end" unicode="&#xe12b;" horiz-adv-x="923" 
d="M446 255h2c74 102 146 153 185 174c27 15 46 20 62 20c21 0 49 -16 24 -119l-65 -268c-2 -8 0 -13 9 -14c20 -3 60 -5 95 -5c81 0 91 27 91 62c0 8 -2 18 -3 25c-1 5 1 10 6 16c12 14 31 26 42 26c8 0 16 -14 16 -35c-1 -27 -18 -63 -48 -91c-42 -41 -79 -50 -140 -50
c-45 0 -75 1 -100 2c-20 2 -36 3 -46 2c-6 -1 -8 1 -6 9l76 317c10 42 6 60 -7 60c-53 0 -182 -156 -208 -208c-13 -47 -27 -112 -39 -172c-27 -3 -53 -10 -74 -17l-6 6c25 102 49 202 73 303c13 59 13 88 -4 88c-53 0 -180 -152 -207 -207c-13 -44 -27 -112 -40 -173
c-25 -3 -51 -10 -73 -17l-7 6c30 113 57 225 83 341c8 33 5 39 -1 41c-10 0 -43 -26 -67 -48l-14 24c56 60 117 96 143 96s28 -37 9 -114l-20 -80h2c74 101 143 150 185 174c22 13 43 20 59 20c25 0 53 -23 26 -138z" />
    <glyph glyph-name="n.end" unicode="&#xe12c;" horiz-adv-x="677" 
d="M185 248h2c77 106 153 157 189 178c28 16 51 23 68 23c23 0 49 -16 24 -119c-21 -88 -43 -178 -65 -268c-1 -8 0 -13 9 -14c21 -3 60 -5 95 -5c81 0 92 27 92 63c0 8 -2 18 -3 24c-1 5 1 11 7 17c11 13 29 25 40 25c8 0 16 -14 16 -35c0 -27 -20 -64 -48 -91
c-42 -40 -79 -50 -140 -50c-44 0 -74 1 -100 3c-20 1 -36 2 -46 1c-6 -1 -8 1 -7 9c26 106 52 211 76 315c12 48 9 61 -8 61c-43 0 -169 -130 -212 -207c-13 -49 -27 -109 -40 -170c-25 -5 -52 -12 -71 -19l-7 7c28 109 56 230 81 339c7 33 4 41 -2 41c-9 0 -40 -20 -64 -45
l-13 23c53 58 113 95 139 95s26 -39 9 -112z" />
    <glyph glyph-name="r.end" unicode="&#xe154;" horiz-adv-x="453" 
d="M522 452l20 -18c-17 -35 -57 -89 -105 -88c-22 1 -41 11 -61 23c-21 12 -32 15 -45 15c-18 0 -47 -19 -79 -65c-32 -45 -54 -80 -77 -134c-13 -52 -24 -112 -35 -178c-24 -4 -51 -11 -72 -18l-7 7c25 107 49 217 69 328c6 37 5 51 -3 51c-10 0 -39 -19 -66 -45l-13 23
c53 56 109 96 137 96c22 0 28 -32 11 -119l-11 -57h3c76 125 130 176 170 176c26 0 41 -12 73 -30c37 -22 55 -15 91 33z" />
    <glyph glyph-name="longs" unicode="&#x17f;" horiz-adv-x="228" 
d="M347 712c33 0 59 -25 58 -43c-1 -15 -15 -34 -27 -43c-8 -6 -17 -6 -22 0c-21 21 -42 33 -63 33c-36 0 -68 -44 -101 -248c-16 -98 -35 -229 -57 -330c-32 -153 -65 -221 -121 -277c-47 -49 -89 -61 -113 -61c-29 0 -62 22 -62 43c0 14 12 30 27 42c9 8 15 7 21 1
c15 -14 41 -25 61 -25c18 0 32 7 42 19c14 14 39 61 71 250c18 113 29 192 44 274c26 147 59 227 108 286c37 46 91 79 134 79z" />
    <glyph glyph-name="dcroat" unicode="&#x111;" horiz-adv-x="509" 
d="M570 570l-9 -36h-74c-34 -149 -64 -292 -90 -439c-4 -23 -2 -33 5 -33c11 0 44 23 71 50l13 -22c-52 -63 -117 -102 -146 -102c-20 0 -35 16 -20 87l19 92h-2c-43 -58 -92 -102 -132 -133c-37 -29 -73 -46 -101 -46c-33 0 -65 40 -65 120c0 94 43 201 116 264
c47 40 133 77 181 77c14 0 34 -1 59 -11l20 96h-132l10 36h129l7 35c8 41 3 48 -41 48h-29l1 25c84 9 138 34 153 34c10 0 12 -8 7 -27c-9 -39 -17 -78 -25 -115h75zM301 406c-30 0 -55 -9 -73 -21c-69 -49 -106 -176 -106 -258c0 -52 14 -74 31 -74c55 0 166 128 199 189
l31 138c-15 14 -49 26 -82 26z" />
    <glyph glyph-name="eng" unicode="&#x14b;" horiz-adv-x="516" 
d="M71 331l-15 23c49 53 111 95 142 95c23 0 26 -35 8 -112l-22 -95h2c75 101 150 158 194 185c25 15 47 22 65 22c22 0 40 -16 21 -107c-16 -79 -33 -161 -51 -240c-27 -129 -59 -188 -113 -238c-49 -45 -91 -61 -112 -61c-19 0 -40 11 -40 30c0 14 11 37 24 47
c7 5 14 8 22 4c13 -8 30 -15 47 -15c34 0 59 37 79 130l70 333c9 39 6 53 -6 53c-41 0 -166 -133 -215 -217c-11 -40 -25 -99 -37 -160c-26 -5 -53 -12 -72 -19l-7 7c28 109 56 229 81 339c7 32 5 41 -2 41c-9 0 -37 -19 -63 -45z" />
    <glyph glyph-name="hbar" unicode="&#x127;" horiz-adv-x="511" 
d="M462 107l13 -23c-53 -59 -115 -96 -146 -96c-24 0 -31 28 -15 97c17 76 36 154 54 232c11 51 10 70 -7 70c-43 0 -163 -118 -213 -203c-10 -40 -28 -123 -37 -177c-23 -5 -49 -11 -71 -19l-7 8c40 177 81 366 116 531h-81l12 36h77c20 90 18 96 -3 98l-27 3l5 25
c56 9 105 24 117 24c10 0 10 -12 5 -33c-11 -49 -19 -83 -26 -117h150l-13 -36h-146c-19 -88 -38 -176 -59 -270h3c73 96 150 149 192 171c26 15 46 21 62 21c26 0 50 -19 29 -110c-18 -80 -36 -159 -55 -238c-7 -32 -5 -37 2 -39c10 0 41 19 69 45z" />
    <glyph glyph-name="kgreenlandic" unicode="&#x138;" horiz-adv-x="502" 
d="M176 215l2 -1c34 38 76 80 109 113c55 56 126 122 167 122c31 0 45 -17 45 -32c0 -13 -10 -30 -20 -40c-6 -6 -12 -8 -17 -6c-8 4 -22 9 -39 9c-42 0 -105 -65 -150 -112c28 -61 68 -135 95 -178c18 -31 27 -37 38 -37c12 0 33 17 58 46l17 -21c-48 -74 -88 -90 -111 -90
s-43 20 -66 62c-29 48 -53 98 -84 164c-19 -18 -41 -41 -54 -57c-14 -50 -23 -88 -35 -149c-25 -5 -52 -12 -71 -19l-7 7c27 109 56 229 81 338c7 33 5 41 -2 41c-9 1 -40 -20 -63 -44l-15 22c53 58 115 96 142 96c24 0 26 -35 9 -108z" />
    <glyph glyph-name="napostrophe" unicode="&#x149;" horiz-adv-x="533" 
d="M80 502l-9 26c42 17 80 39 82 78c2 29 -19 43 -50 51c-5 2 -11 6 -11 16c2 25 25 38 45 38c36 0 79 -30 77 -89c-3 -69 -77 -106 -134 -120zM477 108l15 -24c-58 -64 -115 -96 -141 -96c-23 0 -33 27 -16 100c20 79 39 159 58 238c11 46 7 59 -7 59
c-43 0 -165 -129 -214 -216c-11 -40 -26 -100 -38 -161c-25 -5 -52 -12 -71 -19l-7 7c28 109 57 228 82 339c7 32 4 40 -2 40c-9 0 -39 -21 -64 -45l-13 24c54 58 113 95 140 95c22 0 27 -34 8 -111l-20 -91h2c69 99 144 153 188 180c25 14 47 22 66 22c23 0 47 -15 23 -118
c-18 -77 -37 -155 -56 -234c-6 -25 -4 -34 3 -34c9 0 37 17 64 45z" />
    <glyph glyph-name="tbar" unicode="&#x167;" horiz-adv-x="309" 
d="M343 431l-26 -34l-100 -5l-29 -132h98l-13 -36h-93l-22 -106c-11 -49 -5 -60 6 -60c17 0 64 33 88 58l15 -21c-33 -40 -108 -107 -160 -107c-23 0 -44 29 -22 133l23 103h-72l13 36h67l28 132h-74l-3 9l25 30h62l23 94l76 63l10 -7l-37 -150h117z" />
    <glyph glyph-name="uni021D" unicode="&#x21d;" horiz-adv-x="364" 
d="M66 107l-6 26c114 50 186 103 186 182c0 46 -33 75 -72 75c-41 0 -74 -21 -120 -60l-14 22c55 56 113 97 175 97c67 0 111 -48 111 -106c0 -61 -49 -112 -116 -157v-2c67 -13 112 -61 112 -128c0 -144 -174 -268 -340 -294l-43 36l7 19c18 -3 37 -5 57 -5
c124 0 234 93 234 212c0 68 -43 105 -87 105c-21 0 -47 -7 -84 -22z" />
    <glyph glyph-name="IJ" unicode="&#x132;" horiz-adv-x="654" 
d="M380 649l-6 -27c-79 -7 -83 -13 -98 -86l-80 -420c-15 -77 -9 -83 73 -89l-6 -27h-256l7 27c78 6 85 13 99 89l82 420c14 74 7 79 -76 86l6 27h255zM710 649l-6 -27c-73 -9 -78 -12 -93 -91l-74 -401c-24 -129 -64 -201 -141 -245c-30 -18 -62 -28 -77 -30l-10 30
c44 13 86 43 110 107c17 43 29 96 40 158l71 381c15 81 7 83 -72 91l6 27h246z" />
    <glyph glyph-name="c_h" unicode="&#xe0ff;" horiz-adv-x="839" 
d="M796 107l12 -23c-54 -61 -116 -96 -145 -96c-25 0 -31 28 -16 95l54 236c12 51 9 68 -7 68c-43 0 -161 -113 -211 -198c-11 -43 -29 -129 -39 -182c-23 -5 -49 -11 -71 -19l-7 8c43 189 87 394 127 599c10 53 5 56 -38 56l-25 1l3 25c79 8 133 35 146 35c9 0 10 -8 4 -35
l-88 -415h2c69 91 144 144 187 166c24 13 48 21 66 21c27 0 50 -19 28 -114l-54 -237c-7 -29 -5 -36 2 -37c10 0 42 20 70 46zM332 121l14 -23c-62 -70 -143 -110 -200 -110c-64 0 -105 51 -105 143c0 83 38 185 104 244c42 37 112 74 161 74c43 0 75 -25 76 -50
c0 -16 -10 -34 -32 -46c-8 -5 -16 -3 -22 5c-21 30 -45 42 -76 42c-37 0 -67 -30 -86 -66c-24 -45 -42 -112 -42 -180c0 -70 27 -105 71 -105c52 0 109 44 137 72z" />
    <glyph glyph-name="c_k" unicode="&#xe100;" horiz-adv-x="796" 
d="M764 100l18 -21c-48 -74 -89 -91 -111 -91c-21 0 -40 13 -65 66c-24 51 -51 113 -77 184c-26 -28 -45 -48 -55 -65c-11 -54 -22 -109 -33 -166c-26 -5 -52 -12 -73 -19l-7 6c48 203 93 405 136 612c8 41 3 46 -36 47h-32l6 25c81 9 134 34 147 34c10 0 9 -9 5 -29
c-34 -149 -66 -296 -100 -445h2c31 37 56 61 84 90c56 57 129 121 175 121c28 0 42 -17 42 -31c0 -13 -9 -30 -20 -40c-6 -6 -11 -7 -16 -6c-9 4 -21 8 -38 8c-46 0 -102 -52 -131 -83c20 -62 59 -152 83 -196c18 -37 28 -48 39 -48c10 0 32 18 57 47zM333 121l15 -23
c-63 -70 -143 -110 -201 -110c-63 0 -105 51 -105 144c0 82 38 184 105 243c41 37 112 74 161 74c43 0 75 -25 76 -50c0 -16 -10 -34 -32 -46c-9 -5 -16 -3 -23 6c-21 29 -44 41 -75 41c-38 0 -67 -27 -86 -64c-23 -45 -43 -114 -43 -182c0 -70 26 -105 70 -105
c52 0 111 45 138 72z" />
    <glyph glyph-name="c_t" unicode="&#xe101;" horiz-adv-x="664" 
d="M700 432l-27 -35l-100 -5l-60 -273c-11 -49 -5 -60 6 -60c17 0 64 32 88 57l15 -22c-33 -39 -108 -106 -161 -106c-22 0 -43 30 -20 132l60 271h-69l-3 9l26 32h55c10 42 38 129 54 152c-12 0 -54 1 -94 1c-96 0 -135 -35 -135 -100c0 -20 6 -36 12 -47
c4 -8 12 -18 12 -28c-1 -13 -9 -30 -28 -41c-7 -4 -14 -1 -18 5c-11 13 -28 26 -55 26c-29 0 -61 -20 -85 -60c-28 -47 -48 -118 -48 -184c0 -63 20 -106 71 -106s107 41 138 69l15 -22c-64 -71 -137 -109 -200 -109c-68 0 -107 59 -107 141c0 88 39 187 119 252
c33 28 77 55 123 67c-2 8 -3 16 -3 27c-1 80 100 153 214 153c68 0 118 -2 144 -1v-7c-17 -25 -33 -86 -56 -188h117z" />
    <glyph glyph-name="ij" unicode="&#x133;" horiz-adv-x="533" 
d="M221 640c26 0 40 -21 40 -45c1 -30 -22 -57 -53 -57c-23 0 -40 17 -40 44c-1 25 19 58 53 58zM223 109l13 -22c-34 -40 -111 -99 -145 -99c-20 0 -34 16 -14 98l63 255c5 22 5 32 -1 32c-8 0 -38 -17 -69 -42l-12 22c55 54 125 95 151 95c23 0 22 -32 10 -79l-68 -275
c-6 -24 -4 -32 2 -32c12 0 46 26 70 47zM479 648c26 0 40 -22 40 -46c0 -30 -22 -57 -53 -57c-23 0 -41 17 -41 44c0 25 20 59 54 59zM331 321l-13 22c61 63 130 105 158 105c22 0 22 -33 8 -103c-16 -84 -33 -168 -55 -279c-24 -120 -65 -209 -119 -260
c-49 -47 -89 -63 -107 -63s-43 13 -43 32c0 16 12 34 24 44c7 6 15 9 22 5c14 -9 32 -17 49 -17c29 0 49 31 68 107c24 103 45 217 81 399c10 46 9 57 1 57c-9 0 -46 -25 -74 -49z" />
    <glyph glyph-name="s_p" unicode="&#xe155;" horiz-adv-x="790" 
d="M476 -215l-4 -26l-231 -11l5 25c62 12 73 20 87 83c40 176 75 347 113 524c-30 -9 -54 -21 -80 -35l-7 25c29 18 62 36 95 47l37 164c-18 0 -47 4 -82 4c-47 0 -111 -10 -111 -97c0 -29 10 -50 15 -64c0 -16 -9 -32 -22 -42c-11 -8 -21 -7 -27 0c-10 11 -25 20 -43 20
c-25 0 -58 -24 -58 -63c0 -38 22 -60 58 -96c48 -46 58 -71 58 -109c0 -75 -96 -146 -171 -146c-57 0 -97 41 -97 75c0 19 15 38 31 45c10 5 15 0 21 -10c19 -37 54 -61 92 -61c30 0 61 21 61 57c0 25 -9 49 -52 91c-36 35 -65 70 -65 113c0 32 14 66 52 98
c16 14 44 37 96 52c-1 9 -2 16 -2 28c0 69 87 152 193 152c27 0 45 -2 63 -4l8 29l67 36l7 -6c-16 -75 -38 -169 -54 -245c29 7 65 11 91 11c104 0 145 -51 145 -140c0 -65 -29 -140 -86 -205c-50 -56 -121 -100 -185 -116c-16 0 -40 2 -59 10l-27 -137
c-11 -60 -6 -69 43 -74zM573 406c-19 0 -39 -2 -52 -6l-69 -335c10 -15 37 -32 61 -32c71 0 169 133 169 261c0 89 -49 112 -109 112z" />
    <glyph glyph-name="s_t" unicode="&#xfb06;" horiz-adv-x="613" 
d="M648 432l-27 -35l-100 -5l-60 -274c-11 -49 -5 -60 6 -60c17 0 65 33 89 58l14 -22c-33 -39 -108 -106 -161 -106c-22 0 -43 30 -20 132l60 271h-74l-3 9l26 32h60c10 42 39 129 54 152c-16 0 -53 1 -83 1c-99 0 -138 -32 -138 -102c0 -22 10 -43 15 -58
c0 -17 -8 -33 -21 -43c-11 -8 -21 -8 -27 0c-10 10 -27 20 -44 20c-28 0 -59 -22 -60 -63c-1 -36 22 -58 58 -93c50 -48 60 -72 60 -111c0 -77 -96 -147 -172 -147c-59 0 -97 39 -97 73c0 20 15 38 33 46c10 4 15 0 20 -10c18 -39 54 -59 91 -59c33 0 62 22 62 56
c0 26 -10 50 -54 92c-36 34 -64 70 -64 112c0 32 14 65 51 97c17 14 46 38 99 53c-2 8 -3 19 -3 27c-1 76 97 152 217 152c54 0 107 -2 132 -1v-8c-17 -26 -34 -83 -56 -186h117z" />
    <glyph glyph-name="zero.slash" unicode="&#xf638;" horiz-adv-x="477" 
d="M454 662l26 -17l-46 -71c28 -41 38 -100 38 -158c-1 -160 -83 -428 -268 -428c-40 0 -71 13 -95 35l-39 -59l-26 19l43 67c-27 41 -38 99 -38 162c0 153 85 423 270 423c40 0 71 -13 94 -36zM134 121l245 426c-11 33 -30 56 -67 56c-122 0 -181 -259 -183 -409
c0 -24 1 -53 5 -73zM390 502l-246 -425c12 -35 31 -57 65 -57c122 0 181 279 183 411c1 27 -1 53 -2 71z" />
    <glyph glyph-name="Euro" unicode="&#x20ac;" horiz-adv-x="477" 
d="M60 388h40c52 155 165 247 295 247c51 0 73 -14 105 -27c-4 -49 -6 -90 -11 -125l-28 -3c-4 73 -17 123 -78 123c-77 0 -156 -84 -195 -215h254l-18 -35h-245c-7 -19 -11 -41 -12 -62h234l-19 -35h-217c-4 -117 16 -235 105 -235c55 0 93 45 144 112l21 -16
c-13 -29 -49 -90 -67 -110c-28 -9 -58 -19 -105 -19c-134 0 -191 107 -187 268h-68l18 35h52c2 21 6 43 12 62h-48z" />
    <glyph glyph-name="franc" unicode="&#x20a3;" horiz-adv-x="477" 
d="M114 623h387c-6 -34 -13 -96 -18 -141l-28 -4c-2 38 -4 62 -13 82c-11 23 -27 29 -89 29h-55c-27 0 -31 -4 -36 -31l-42 -214c82 0 142 2 205 9l-10 -55c-63 7 -122 7 -202 9l-22 -116h152l-8 -36h-151l-7 -37c-16 -79 -8 -86 81 -92l-6 -26h-252l5 26c71 6 79 12 95 92
l7 37h-83l7 36h83l60 309c15 81 10 91 -65 97z" />
    <glyph glyph-name="lira" unicode="&#x20a4;" horiz-adv-x="477" 
d="M378 244h-162c-17 -56 -54 -103 -108 -146c27 0 67 -9 103 -27c37 -18 82 -38 120 -38c36 0 64 16 64 49c0 9 -3 21 -5 30c-2 7 1 15 7 23c13 15 27 25 39 25c11 0 18 -19 18 -36c0 -49 -41 -93 -84 -120c-30 -18 -65 -32 -99 -32c-42 0 -82 28 -127 55
c-29 17 -45 25 -61 25c-18 0 -36 -10 -56 -45c-4 -8 -10 -12 -15 -12c-10 4 -27 19 -4 48c12 15 36 38 59 58c41 37 59 90 67 143h-92l8 33h89c2 22 2 43 5 67h-83l8 33h77c9 93 42 161 115 215c35 27 75 43 109 43c46 0 75 -25 83 -41c5 -10 6 -21 -1 -32
c-4 -8 -12 -14 -20 -20s-18 -6 -25 3c-18 22 -45 41 -80 41c-49 0 -75 -30 -87 -96c-6 -35 -7 -76 -8 -113h173l-7 -33h-167c-1 -23 -2 -46 -6 -67h161z" />
    <glyph glyph-name="peseta" unicode="&#x20a7;" horiz-adv-x="477" 
d="M516 457l-7 -34h-47c-18 -111 -105 -166 -192 -175c-14 -2 -26 -2 -38 0l-55 19l-29 -149c-16 -81 -6 -86 78 -92l-6 -26h-253l6 26c74 6 82 13 98 93l59 304h-68l9 34h67l9 47c15 84 8 88 -68 93l6 26h194c152 0 185 -91 187 -166h50zM213 457h172
c2 91 -49 135 -108 135c-14 0 -21 -1 -29 -5c-8 -5 -14 -14 -18 -39zM382 423h-176l-23 -125c15 -6 32 -12 57 -12c53 0 126 32 142 137z" />
    <glyph glyph-name="peseta.alt" unicode="&#xe153;" horiz-adv-x="818" 
d="M538 85l9 -15c3 5 7 8 12 11c9 5 13 3 18 -2c21 -33 53 -50 80 -50c30 0 52 18 52 44c0 20 -12 36 -51 63c-36 24 -69 50 -69 89c0 27 9 54 45 84c24 20 59 34 88 34c30 0 68 -21 68 -47c0 -12 -9 -28 -21 -35c-7 -4 -13 -4 -17 2c-15 22 -38 40 -64 40
c-27 0 -44 -17 -44 -42c0 -26 23 -45 57 -68c48 -32 66 -55 66 -90c0 -59 -80 -115 -147 -115c-45 0 -84 31 -85 55c0 4 0 7 2 10c-30 -29 -87 -65 -129 -65c-22 0 -38 22 -20 102l54 235c-39 -19 -84 -30 -126 -33c-12 -1 -27 0 -40 3l-57 17l-36 -190
c-16 -83 -7 -89 75 -97l-6 -25h-245l6 25c68 8 76 14 92 97l75 379c16 82 9 88 -65 97l7 25h214c144 0 209 -55 209 -150c0 -30 -9 -59 -23 -80l-16 -65h91l-21 -31l-77 -4l-44 -202c-8 -39 -4 -48 4 -48c16 0 57 21 79 42zM262 534l-37 -192c15 -5 37 -11 68 -11
c78 0 171 34 171 142c0 68 -39 118 -140 118c-13 0 -27 -2 -38 -6c-12 -3 -18 -19 -24 -51z" />
    <glyph glyph-name="aringacute" unicode="&#x1fb;" horiz-adv-x="490" 
d="M454 116l12 -24c-55 -67 -122 -104 -147 -104c-19 0 -32 15 -17 88l20 95h-3c-38 -55 -86 -103 -129 -138c-33 -27 -66 -45 -93 -45c-26 0 -58 33 -58 112c0 101 47 211 120 272c51 42 124 77 187 77c20 0 40 -3 62 -8c13 -3 27 -6 38 -6l2 -4c-16 -62 -46 -198 -69 -325
c-6 -34 -3 -43 2 -43c9 0 43 24 73 53zM149 52c39 0 153 126 186 196c12 39 27 111 33 143c-14 7 -40 14 -66 14c-27 0 -54 -8 -72 -21c-68 -50 -108 -167 -108 -266c0 -45 12 -66 27 -66zM346 664c43 0 82 -31 80 -84c-2 -54 -49 -87 -97 -87c-49 0 -83 34 -81 80
c2 57 49 91 98 91zM340 632c-25 0 -45 -24 -46 -56c-1 -29 13 -50 39 -50c25 0 46 23 47 55c1 29 -13 51 -40 51zM495 856l-155 -170l-23 16c33 52 82 137 92 156c11 3 68 12 83 9z" />
    <glyph glyph-name="estimated" unicode="&#x212e;" horiz-adv-x="774" 
d="M773 302h-584c-3 0 -5 -1 -5 -4v-176c0 -8 3 -15 8 -20c56 -59 134 -96 221 -96c94 0 176 42 233 107h52c-65 -76 -169 -126 -286 -126c-199 0 -360 145 -360 324s161 324 360 324c200 0 361 -145 361 -324v-9zM641 325v178c0 8 -3 15 -9 21c-56 56 -133 92 -219 92
s-164 -37 -220 -95c-6 -6 -9 -13 -9 -22v-174c0 -2 2 -5 5 -5h448c3 0 4 3 4 5z" />
    <glyph glyph-name="a.sc" unicode="&#xf761;" horiz-adv-x="553" 
d="M500 27l-6 -27h-200l6 27l21 3c26 4 33 12 26 53l-13 69h-163c-11 -19 -25 -47 -40 -78c-15 -29 -7 -40 17 -43l27 -5l-6 -26h-179l7 27c52 6 64 14 104 80l216 361l32 7l76 -380c11 -54 21 -62 75 -68zM328 190l-33 178h-2l-101 -178h136z" />
    <glyph glyph-name="b.sc" unicode="&#xf762;" horiz-adv-x="497" 
d="M93 463h200c55 0 91 -7 117 -24c25 -17 39 -42 39 -75c0 -70 -67 -102 -115 -111v-2c60 -10 107 -47 107 -111c0 -55 -37 -92 -85 -114c-46 -20 -102 -26 -154 -26h-193l5 27c63 6 67 11 78 69l53 270c12 62 6 65 -58 70zM201 265h39c72 0 126 27 126 93
c0 51 -35 74 -88 74c-41 0 -46 -4 -52 -40zM195 234l-26 -140c-10 -54 13 -63 54 -63c69 0 130 38 130 112c0 64 -40 91 -118 91h-40z" />
    <glyph glyph-name="c.sc" unicode="&#xf763;" horiz-adv-x="520" 
d="M453 142l25 -13c-16 -42 -42 -98 -58 -122c-23 -7 -90 -19 -140 -19c-162 0 -230 107 -230 213c0 171 144 274 311 274c65 0 114 -16 139 -25c-3 -40 -6 -77 -9 -127l-27 -5c-6 100 -57 125 -121 125c-119 0 -202 -102 -202 -242c0 -94 46 -181 142 -181
c69 0 123 43 170 122z" />
    <glyph glyph-name="d.sc" unicode="&#xf764;" horiz-adv-x="573" 
d="M97 463h182c82 0 151 -16 194 -49c43 -34 68 -85 68 -149c0 -93 -44 -166 -118 -212c-62 -38 -141 -53 -229 -53h-187l6 27c62 6 68 9 80 69l52 269c13 65 7 66 -55 71zM227 386l-53 -278c-12 -58 5 -75 58 -75c126 0 219 85 219 235c0 106 -57 163 -163 163
c-23 0 -39 -5 -45 -10s-12 -15 -16 -35z" />
    <glyph glyph-name="e.sc" unicode="&#xf765;" horiz-adv-x="476" 
d="M94 463h357c-3 -20 -9 -72 -14 -120l-28 -3c-2 30 -7 53 -15 68s-23 22 -79 22h-52c-27 0 -28 -2 -33 -26l-28 -146h74c61 0 65 5 86 56h27l-29 -152h-26c-1 53 -4 60 -64 60h-75l-23 -122c-6 -36 -4 -53 8 -59c11 -7 31 -9 75 -9c52 0 79 6 100 25c18 17 32 39 51 72
l26 -8c-11 -30 -39 -102 -49 -121h-381l6 27c68 6 73 9 86 74l51 261c12 65 6 68 -57 74z" />
    <glyph glyph-name="f.sc" unicode="&#xf766;" horiz-adv-x="452" 
d="M97 463h351c-2 -20 -9 -72 -14 -121l-27 -2c-2 26 -5 47 -12 63c-7 19 -20 27 -74 27h-58c-27 -1 -28 -1 -32 -26l-31 -155h82c63 0 68 6 88 56h27l-30 -152h-27c2 54 -3 59 -65 59h-81l-23 -118c-11 -57 -5 -61 64 -67l-5 -27h-221l5 27c61 6 68 9 79 67l54 274
c11 59 7 63 -56 68z" />
    <glyph glyph-name="g.sc" unicode="&#xf767;" horiz-adv-x="550" 
d="M532 221l-6 -27c-46 -7 -49 -10 -60 -64l-9 -49c-5 -26 -7 -50 -5 -65c-53 -12 -118 -28 -169 -28c-153 0 -233 96 -233 210c0 175 144 277 311 277c66 0 123 -15 146 -23c-1 -26 -6 -68 -10 -129l-27 -2c-6 82 -35 122 -119 122c-108 0 -210 -80 -210 -244
c0 -81 43 -180 153 -180c33 0 74 9 82 53l12 58c11 53 5 57 -76 64l6 27h214z" />
    <glyph glyph-name="h.sc" unicode="&#xf768;" horiz-adv-x="608" 
d="M615 463l-4 -27c-63 -5 -67 -9 -79 -71l-51 -269c-12 -61 -7 -64 58 -69l-6 -27h-215l6 27c60 4 66 8 78 70l25 128h-232l-23 -128c-12 -62 -7 -65 55 -70l-6 -27h-214l6 27c62 5 69 10 80 69l52 269c11 61 8 65 -61 71l5 27h216l-6 -27c-59 -6 -64 -8 -76 -71l-20 -101
h231l20 101c12 61 7 66 -59 71l6 27h214z" />
    <glyph glyph-name="i.sc" unicode="&#xf769;" horiz-adv-x="299" 
d="M310 463l-7 -27c-64 -6 -69 -10 -80 -66l-52 -275c-11 -59 -5 -62 59 -68l-5 -27h-219l5 27c63 6 70 10 82 68l53 275c11 56 5 61 -61 66l5 27h220z" />
    <glyph glyph-name="j.sc" unicode="&#xf76a;" horiz-adv-x="297" 
d="M315 463l-5 -27c-64 -6 -69 -8 -81 -74l-50 -272c-16 -92 -44 -148 -98 -182c-29 -19 -65 -30 -92 -31l-4 30c48 8 78 40 94 97c13 49 21 87 30 133l42 226c12 63 7 68 -64 73l5 27h223z" />
    <glyph glyph-name="k.sc" unicode="&#xf76b;" horiz-adv-x="541" 
d="M562 463l-6 -27c-50 -5 -72 -11 -115 -43c-31 -23 -92 -76 -155 -130c45 -74 96 -149 126 -186c31 -38 47 -47 85 -50l-5 -27h-126c-22 32 -94 145 -130 202c-15 24 -29 23 -43 20l-23 -122c-12 -63 -6 -68 58 -73l-6 -27h-211l5 27c59 6 66 9 78 73l50 262
c13 64 8 69 -54 74l5 27h207l-5 -27c-62 -6 -65 -11 -77 -74l-22 -115c17 3 34 12 53 26c53 40 114 100 143 129c20 20 17 29 -12 32l-17 2l6 27h191z" />
    <glyph glyph-name="l.sc" unicode="&#xf76c;" horiz-adv-x="453" 
d="M396 133l25 -9c-10 -25 -39 -104 -49 -124h-369l6 27c67 5 72 8 85 74l51 264c13 63 6 66 -58 71l6 27h217l-6 -27c-64 -6 -70 -9 -81 -71l-51 -268c-6 -32 -5 -51 8 -57c13 -7 34 -8 69 -8c46 0 73 7 92 25c15 14 35 41 55 76z" />
    <glyph glyph-name="m.sc" unicode="&#xf76d;" horiz-adv-x="699" 
d="M697 463l-6 -27c-72 -7 -75 -10 -83 -69l-34 -272c-7 -58 -2 -62 67 -68l-6 -27h-223l6 27c62 6 71 11 80 68l43 292h-3l-232 -379h-20l-82 368h-2l-50 -180c-16 -59 -24 -96 -27 -121c-5 -34 2 -42 64 -48l-6 -27h-191l7 27c49 4 63 13 76 47c12 28 23 61 43 131l41 142
c23 77 17 81 -56 89l7 27h142l86 -332l210 332h149z" />
    <glyph glyph-name="n.sc" unicode="&#xf76e;" horiz-adv-x="572" 
d="M600 463l-5 -27c-45 -4 -65 -13 -74 -44c-8 -26 -15 -57 -27 -118l-53 -280h-29l-233 367h-1l-33 -173c-12 -60 -17 -90 -18 -114c-2 -31 13 -42 71 -47l-5 -27h-192l5 27c42 3 63 13 73 46c7 23 15 54 28 115l31 155c17 80 6 87 -68 93l6 27h127l223 -342h2l29 153
c11 59 14 92 16 117c2 33 -15 41 -70 45l5 27h192z" />
    <glyph glyph-name="o.sc" unicode="&#xf76f;" horiz-adv-x="569" 
d="M317 475c143 0 218 -106 218 -212c0 -183 -144 -275 -268 -275c-152 0 -218 110 -218 212c0 176 147 275 268 275zM317 442c-83 0 -177 -97 -177 -256c0 -88 45 -165 130 -165c87 0 175 93 175 254c0 81 -35 167 -128 167z" />
    <glyph glyph-name="p.sc" unicode="&#xf770;" horiz-adv-x="480" 
d="M95 463h189c59 0 102 -11 132 -34c28 -21 45 -54 45 -96c0 -98 -85 -150 -184 -155c-9 0 -21 0 -31 2l-57 16l-17 -97c-12 -64 -7 -66 65 -72l-5 -27h-223l5 27c61 6 67 8 80 72l51 264c13 66 5 68 -55 73zM226 392l-31 -165c12 -4 35 -12 61 -12c50 0 118 28 118 121
c0 63 -33 97 -96 97c-40 0 -46 -7 -52 -41z" />
    <glyph glyph-name="q.sc" unicode="&#xf771;" horiz-adv-x="568" 
d="M514 -105l-8 -21c-41 -2 -84 8 -104 15c-31 10 -87 43 -161 102c-135 13 -190 116 -190 210c0 172 141 274 265 274c145 0 218 -107 218 -215c0 -144 -96 -233 -187 -260c31 -23 62 -45 92 -64s57 -33 75 -41zM316 443c-80 0 -175 -95 -175 -255c0 -76 35 -149 103 -166
l50 20c8 -6 15 -12 22 -18c53 19 128 103 128 251c0 74 -31 168 -128 168z" />
    <glyph glyph-name="r.sc" unicode="&#xf772;" horiz-adv-x="516" 
d="M469 15l-4 -21h-18c-78 0 -107 24 -131 68c-15 30 -35 75 -50 107c-10 23 -21 30 -49 30h-27l-20 -106c-11 -54 -5 -61 59 -66l-5 -27h-217l6 27c62 5 69 11 80 66l52 274c12 58 6 63 -56 69l5 27h190c48 0 91 -8 118 -25c30 -20 47 -49 47 -90c0 -80 -67 -114 -119 -131
c8 -23 30 -70 46 -97c20 -35 32 -54 45 -70c11 -13 28 -27 48 -35zM195 230h39c26 0 47 2 73 13c31 16 57 49 57 98c0 62 -35 91 -88 91c-33 0 -44 -6 -50 -38z" />
    <glyph glyph-name="s.sc" unicode="&#xf773;" horiz-adv-x="405" 
d="M35 152l27 5c9 -61 48 -138 125 -138c42 0 89 23 89 86c0 52 -41 76 -85 102c-49 29 -102 64 -102 130c0 75 58 138 168 138c51 0 97 -20 112 -27c-3 -30 -3 -67 -5 -114l-27 -3c-9 70 -35 113 -96 113c-44 0 -81 -31 -81 -78c0 -48 46 -73 90 -98
c54 -30 104 -67 104 -135c0 -97 -93 -145 -180 -145c-70 0 -123 32 -137 45c-1 21 -2 73 -2 119z" />
    <glyph glyph-name="t.sc" unicode="&#xf774;" horiz-adv-x="506" 
d="M497 480h18c-5 -29 -14 -100 -19 -146l-28 -2c0 39 -3 62 -12 76c-10 16 -21 22 -71 22h-46l-63 -331c-11 -60 -6 -66 66 -72l-6 -27h-232l5 27c71 6 78 12 89 72l63 331h-36c-62 0 -75 -8 -88 -23c-14 -14 -25 -36 -42 -75h-28c15 55 30 112 38 148h17
c8 -16 16 -18 38 -17h298c18 0 26 4 39 17z" />
    <glyph glyph-name="u.sc" unicode="&#xf775;" horiz-adv-x="565" 
d="M598 463l-6 -27c-48 -4 -64 -12 -74 -45c-7 -26 -14 -58 -28 -123l-13 -65c-12 -59 -35 -126 -84 -168c-37 -32 -84 -47 -133 -47c-45 0 -89 10 -120 37c-36 30 -58 83 -39 180l32 161c13 61 6 64 -59 70l6 27h216l-7 -27c-59 -6 -66 -9 -78 -70l-31 -155
c-23 -120 16 -177 103 -177c90 0 135 73 158 186l10 48c12 56 17 96 19 123c1 33 -14 41 -70 45l6 27h192z" />
    <glyph glyph-name="v.sc" unicode="&#xf776;" horiz-adv-x="563" 
d="M589 463l-7 -27c-51 -6 -61 -10 -104 -76c-39 -59 -138 -222 -221 -368h-29c-27 130 -64 298 -85 388c-10 45 -22 50 -69 56l5 27h201l-5 -27l-28 -4c-28 -4 -32 -9 -27 -39c9 -49 37 -172 63 -293c54 91 137 236 161 283c17 36 12 45 -19 50l-22 3l5 27h181z" />
    <glyph glyph-name="w.sc" unicode="&#xf777;" horiz-adv-x="762" 
d="M780 462l-6 -27c-53 -6 -59 -11 -87 -62c-37 -65 -97 -189 -190 -381h-28l-67 330h-2l-180 -330h-26l-47 376c-7 61 -14 63 -65 68l7 26h191l-6 -27l-26 -4c-25 -4 -30 -7 -26 -49l29 -269h2l177 338h24l66 -337h2c44 89 102 216 123 267c17 42 11 48 -21 51l-24 3l6 27
h174z" />
    <glyph glyph-name="x.sc" unicode="&#xf778;" horiz-adv-x="539" 
d="M541 463l-7 -27c-48 -7 -65 -13 -96 -43c-42 -42 -82 -86 -127 -137c31 -61 60 -117 89 -172c23 -43 36 -51 92 -57l-6 -27h-218l6 27l31 5c24 3 27 13 15 36l-63 129c-1 0 -1 1 -2 0c-44 -50 -78 -92 -100 -124c-16 -24 -17 -38 4 -42l31 -5l-6 -26h-187l6 27
c52 6 68 15 106 54c41 44 83 92 130 149c-26 55 -54 106 -81 159c-18 35 -32 43 -78 47l6 27h193l-5 -28l-24 -3c-21 -3 -23 -12 -13 -31l57 -114l2 -1c34 38 60 69 95 115c16 20 14 27 -10 31l-25 4l6 27h179z" />
    <glyph glyph-name="y.sc" unicode="&#xf779;" horiz-adv-x="510" 
d="M537 463l-6 -27c-49 -6 -64 -13 -95 -50c-32 -36 -73 -87 -119 -153c-13 -18 -19 -30 -22 -44l-17 -92c-11 -57 -6 -65 65 -70l-5 -27h-230l6 27c70 6 74 12 85 70l17 84c4 18 1 29 -6 49c-15 40 -34 87 -65 160c-15 36 -23 42 -71 46l7 27h192l-6 -27l-28 -4
c-21 -2 -24 -9 -17 -27c15 -40 43 -117 62 -162c44 58 87 119 110 155c16 26 11 31 -12 34l-27 4l6 27h176z" />
    <glyph glyph-name="z.sc" unicode="&#xf77a;" horiz-adv-x="494" 
d="M483 450l-357 -414c32 -3 61 -4 110 -4c71 0 109 6 135 28c18 15 38 43 56 79l27 -8c-11 -34 -35 -107 -47 -131h-396l-5 12l363 418h-101c-72 0 -93 -8 -108 -24c-13 -13 -28 -34 -42 -75l-27 1c15 61 26 111 32 148h18c9 -16 17 -18 39 -17h299z" />
    <glyph glyph-name="dcroat.sc" unicode="&#xf676;" horiz-adv-x="592" 
d="M113 463h188c82 0 147 -15 190 -49c44 -33 69 -84 69 -149c0 -92 -46 -165 -120 -211c-63 -39 -141 -54 -229 -54h-187l5 26c63 6 70 12 83 79l24 118h-79l10 36h76l19 101c12 65 6 70 -55 76zM213 223l-21 -115c-10 -54 -2 -76 57 -76c127 0 220 89 220 237
c0 101 -50 163 -163 163c-22 0 -40 -5 -46 -9s-10 -13 -14 -32l-25 -132h123l-10 -36h-121z" />
    <glyph glyph-name="hbar.sc" unicode="&#xf681;" horiz-adv-x="608" 
d="M615 463l-5 -27c-63 -5 -66 -9 -77 -62c0 -4 -1 -8 -2 -12h72l-8 -33h-70l-45 -235c-11 -57 -6 -62 58 -67l-6 -27h-214l6 27c60 4 66 8 78 67l24 124h-231l-24 -124c-10 -57 -6 -62 56 -67l-6 -27h-213l6 27c61 5 68 9 79 66l45 236h-74l9 33h71l3 12c10 54 5 56 -62 62
l6 27h214l-6 -27c-58 -6 -63 -7 -75 -61c0 -4 -1 -8 -2 -13h232c1 4 2 8 2 12c10 53 5 57 -61 62l7 27h213zM448 329h-232l-14 -72h231z" />
    <glyph glyph-name="dotlessi.sc" unicode="&#xe108;" horiz-adv-x="299" 
d="M309 463l-5 -27c-64 -6 -69 -10 -80 -66l-52 -275c-12 -59 -6 -62 59 -68l-5 -27h-220l6 27c62 6 70 10 81 68l53 275c10 56 4 61 -61 66l5 27h219z" />
    <glyph glyph-name="oslash.sc" unicode="&#xf7f8;" horiz-adv-x="566" 
d="M501 500l23 -21l-53 -63c41 -41 62 -97 62 -153c0 -183 -140 -275 -267 -275c-51 0 -93 13 -126 34l-56 -67l-22 24l53 64c-45 40 -64 101 -64 156c0 169 135 276 265 276c52 0 97 -15 130 -39zM159 96l250 298c-18 29 -42 49 -93 49c-83 0 -178 -99 -178 -257
c0 -32 8 -64 21 -90zM427 364l-251 -297c18 -27 48 -47 90 -47c83 0 180 87 180 255c0 30 -6 61 -19 89z" />
    <glyph glyph-name="tbar.sc" unicode="&#xf69c;" horiz-adv-x="506" 
d="M498 480h18c-5 -28 -14 -98 -19 -143l-27 -2c0 38 -5 59 -13 73c-9 17 -22 22 -72 22h-46l-33 -178h103l-8 -36h-102l-22 -119c-12 -59 -6 -65 66 -71l-6 -26h-232l5 26c71 6 76 10 88 71l23 119h-94l9 36h92l34 178h-35c-60 0 -77 -8 -90 -23c-14 -14 -25 -34 -42 -72
h-27c15 54 29 109 37 145h18c7 -16 15 -18 37 -17h300c18 0 25 4 38 17z" />
    <glyph glyph-name="eng.sc" unicode="&#xf67b;" horiz-adv-x="568" 
d="M597 463l-5 -27c-46 -4 -65 -13 -74 -44c-8 -26 -16 -57 -27 -118l-37 -196c-17 -92 -32 -162 -63 -210c-29 -46 -65 -64 -98 -64c-24 0 -42 13 -42 32s19 46 31 46c11 0 18 -11 40 -11c30 0 58 36 79 137l-222 351h-1l-33 -171c-11 -59 -15 -90 -16 -114
c-2 -31 12 -42 70 -47l-5 -27h-194l6 27c43 3 64 13 74 46c7 23 15 54 27 115l31 154c15 80 6 89 -68 94l5 27h128l220 -340h2l28 151c11 61 15 92 16 117c3 33 -15 41 -70 45l5 27h193z" />
    <glyph glyph-name="eth.sc" unicode="&#xf7f0;" horiz-adv-x="592" 
d="M113 463h188c82 0 147 -15 190 -49c44 -33 69 -84 69 -149c0 -92 -46 -165 -120 -211c-63 -39 -141 -54 -229 -54h-187l5 26c63 6 70 12 83 79l24 118h-79l10 36h76l19 100c12 66 6 71 -55 77zM213 223l-21 -115c-10 -54 -2 -76 57 -76c127 0 220 89 220 237
c0 101 -50 163 -163 163c-22 0 -40 -5 -46 -9s-10 -13 -14 -32l-25 -132h123l-10 -36h-121z" />
    <glyph glyph-name="thorn.sc" unicode="&#xf7fe;" horiz-adv-x="477" 
d="M220 366h66c99 0 158 -38 158 -118c0 -90 -90 -137 -175 -141c-12 -1 -25 0 -35 2l-59 15l-5 -28c-11 -58 -4 -62 63 -69l-5 -27h-218l5 27c61 7 67 11 80 74l50 261c13 65 9 68 -54 74l6 27h206l-7 -27c-58 -6 -64 -9 -76 -70zM208 302l-27 -147c14 -6 40 -12 64 -12
c47 0 110 21 110 107c0 56 -29 86 -94 86c-43 0 -48 -7 -53 -34z" />
    <glyph glyph-name="uni021D.sc" unicode="&#xe309;" horiz-adv-x="421" 
d="M110 164l-6 27c116 41 181 95 181 168c0 51 -31 83 -74 83c-49 0 -85 -33 -121 -109l-26 8c15 44 23 74 31 105c54 11 83 29 142 29c77 0 130 -42 130 -104c0 -55 -43 -95 -107 -134v-2c63 -18 106 -65 106 -129c0 -122 -150 -225 -345 -250l-45 36l7 17
c17 -4 43 -7 72 -7c124 0 222 75 222 185c0 63 -43 97 -86 97c-19 0 -40 -5 -81 -20z" />
    <glyph glyph-name="germandbls.sc" unicode="&#xe11e;" horiz-adv-x="810" 
d="M35 152l27 5c9 -61 48 -138 125 -138c42 0 89 23 89 86c0 52 -41 76 -85 102c-49 29 -102 64 -102 130c0 75 58 138 168 138c51 0 97 -20 112 -27c-3 -30 -3 -67 -5 -114l-27 -3c-9 70 -35 113 -96 113c-44 0 -81 -31 -81 -78c0 -48 46 -73 90 -98
c54 -30 104 -67 104 -135c0 -97 -93 -145 -180 -145c-70 0 -123 32 -137 45c-1 21 -2 73 -2 119zM441 152l26 5c9 -61 49 -138 126 -138c41 0 88 23 88 86c0 52 -40 76 -84 102c-49 29 -102 64 -102 130c0 75 58 138 167 138c51 0 98 -20 112 -27c-3 -29 -3 -67 -5 -114
l-27 -3c-8 70 -35 112 -95 112c-44 0 -81 -31 -81 -77c0 -49 46 -73 89 -98c53 -30 104 -67 104 -135c0 -97 -93 -145 -179 -145c-70 0 -123 32 -137 45c-1 21 -3 73 -2 119z" />
    <glyph glyph-name="ae.sc" unicode="&#xf7e6;" horiz-adv-x="714" 
d="M676 343l-27 -2c-2 30 -6 51 -14 66s-26 23 -82 23h-51c-26 0 -28 -2 -32 -26l-33 -168h75c63 0 67 6 88 57h26l-29 -149h-26c0 53 -2 58 -65 58h-76l-18 -99c-7 -39 -5 -57 7 -63c11 -6 31 -8 76 -8c50 0 77 5 97 24c18 17 34 39 53 73l26 -9c-11 -30 -39 -101 -49 -120
h-376l5 26c67 7 72 9 86 80l17 96h-135c-27 -38 -57 -83 -87 -131c-17 -27 -12 -36 18 -41l26 -4l-5 -26h-187l5 26c44 4 59 12 90 50c33 40 79 100 140 185l99 138c18 26 9 27 -7 33l-54 5l6 26h427c-3 -20 -9 -72 -14 -120zM243 236h119l38 193c-9 0 -18 -4 -31 -15
c-45 -63 -91 -127 -126 -178z" />
    <glyph glyph-name="oe.sc" unicode="&#xf6fa;" horiz-adv-x="750" 
d="M657 0h-248c-32 0 -57 -1 -79 -3c-21 -1 -39 -3 -52 -3c-164 0 -227 103 -227 205c0 182 153 270 309 270c43 0 81 -6 125 -6h240c-3 -20 -9 -72 -14 -121l-27 -1c-2 27 -5 50 -12 65c-8 16 -19 24 -72 24h-63c-26 0 -28 -2 -32 -26l-29 -146h73c63 0 68 6 88 55h26
l-29 -151h-25c0 55 -4 60 -68 60h-71l-23 -123c-7 -36 -6 -53 7 -60c11 -6 31 -8 76 -8c51 0 78 5 98 24c18 16 34 40 52 72l26 -9c-11 -30 -39 -99 -49 -118zM368 103l54 276c5 26 3 37 -2 41c-12 10 -35 16 -74 16c-116 0 -204 -90 -204 -240c0 -78 37 -169 142 -170
c23 0 40 3 57 12c13 7 20 29 27 65z" />
    <glyph glyph-name="i.dot" horiz-adv-x="273" 
d="M221 640c26 0 40 -21 40 -45c1 -30 -22 -57 -53 -57c-23 0 -40 17 -40 43c-1 26 19 59 53 59zM223 109l13 -22c-34 -40 -111 -99 -145 -99c-20 0 -34 16 -14 98l63 255c5 22 5 32 -1 32c-8 0 -38 -17 -69 -42l-12 22c55 54 125 95 151 95c23 0 22 -32 10 -79l-68 -275
c-6 -24 -4 -32 2 -32c12 0 46 26 70 47z" />
    <glyph glyph-name="uni25B6" unicode="&#x25b6;" horiz-adv-x="606" 
d="M75 25c0 0 2 465 1 465h1l486 -230v-2l-486 -235z" />
    <glyph glyph-name="ij.sc" unicode="&#xf684;" horiz-adv-x="597" 
d="M310 463l-7 -27c-64 -6 -69 -10 -80 -66l-52 -275c-11 -59 -5 -62 59 -68l-5 -27h-219l5 27c63 6 70 10 82 68l53 275c11 56 5 61 -61 66l5 27h220zM614 463l-5 -27c-64 -6 -69 -8 -81 -74l-50 -272c-16 -92 -44 -148 -98 -182c-29 -19 -65 -30 -92 -31l-4 30
c48 8 79 40 94 97c14 49 22 87 30 133l42 226c12 63 7 68 -64 73l5 27h223z" />
    <glyph glyph-name="ampersand.sc" unicode="&#xf726;" horiz-adv-x="712" 
d="M301 356l2 -2c26 24 52 53 68 84c17 31 25 65 26 96c1 16 -1 25 -1 32c-2 18 15 33 33 33c19 0 38 -16 38 -51c0 -59 -43 -122 -113 -190c-71 -67 -153 -125 -223 -167c21 -91 87 -135 165 -135c116 0 185 105 222 237c-31 20 -54 33 -81 33c-26 0 -34 -17 -35 -40
c0 -19 8 -34 13 -43c2 -3 3 -9 3 -14c0 -10 -19 -20 -31 -20c-23 0 -41 21 -41 50c0 32 25 61 55 84c26 19 66 34 79 34c42 0 114 -53 147 -78c13 -9 21 -13 26 -13c9 0 15 23 15 92h31c3 -18 4 -40 4 -60c0 -90 -32 -108 -51 -108c-9 0 -28 8 -46 21c-14 11 -41 28 -59 43
c-21 -74 -42 -130 -83 -180c-50 -60 -117 -106 -208 -106c-115 0 -203 82 -203 212c0 57 18 121 71 176c37 37 89 65 123 65c35 0 56 -32 55 -60c0 -8 0 -17 -1 -25zM204 394c-33 0 -80 -63 -80 -142c0 -8 0 -15 1 -26c30 16 86 53 110 75c4 11 7 22 7 42
c0 26 -16 51 -38 51z" />
    <glyph glyph-name="exclam.sc" unicode="&#xf721;" horiz-adv-x="239" 
d="M223 433l-91 -265h-29l11 266c1 40 14 59 64 59h1c53 0 58 -20 44 -60zM91 -12c-26 0 -46 21 -46 50c0 34 24 59 55 59c28 0 47 -22 47 -51c0 -37 -27 -58 -56 -58z" />
    <glyph glyph-name="exclamdown.sc" unicode="&#xf7a1;" horiz-adv-x="239" 
d="M172 493c27 0 47 -21 47 -50c0 -34 -23 -59 -56 -59c-27 0 -46 22 -46 51c0 37 27 58 55 58zM86 -12c-53 0 -58 20 -44 60l92 267h29l-12 -267c-1 -41 -14 -60 -65 -60z" />
    <glyph glyph-name="question.sc" unicode="&#xf73f;" horiz-adv-x="324" 
d="M177 160l-21 -15c-26 13 -69 46 -69 90c0 43 47 71 89 93c40 20 94 45 94 82c0 23 -16 32 -38 32c-47 0 -82 -49 -99 -49c-19 0 -36 22 -36 39c0 15 9 25 24 36c27 18 64 26 80 26h1c57 0 115 -53 115 -118c0 -42 -20 -66 -69 -92c-34 -19 -92 -42 -92 -74
c0 -21 11 -38 21 -50zM128 -12c-27 0 -47 21 -47 50c0 34 23 59 55 59c28 0 47 -22 47 -51c0 -37 -27 -58 -55 -58z" />
    <glyph glyph-name="questiondown.sc" unicode="&#xf7bf;" horiz-adv-x="324" 
d="M221 492c27 0 46 -21 46 -49c0 -35 -23 -59 -55 -59c-28 0 -47 22 -47 51c0 36 27 57 56 57zM171 321l20 16c25 -14 69 -47 69 -92c0 -43 -47 -70 -89 -91c-40 -20 -93 -44 -93 -81c0 -23 16 -32 37 -32c48 0 82 48 100 49c17 0 35 -23 35 -41c0 -15 -9 -24 -24 -35
c-27 -19 -63 -26 -80 -26h-1c-57 0 -115 52 -115 118c0 41 20 66 69 92c34 18 92 41 92 74c0 20 -11 37 -20 49z" />
    <glyph glyph-name="A.swash" unicode="&#xe001;" horiz-adv-x="787" 
d="M620 618h-61c-113 -1 -197 -25 -243 -65c-45 -39 -66 -91 -67 -143c0 -14 0 -29 1 -39c0 -7 -7 -12 -17 -3c-29 20 -40 58 -40 89c1 113 126 195 329 195c28 0 50 0 82 -1s59 -2 77 -2c24 7 57 20 86 28l7 -2c-22 -56 -53 -209 -90 -404c-15 -79 -25 -136 -31 -178
s-1 -49 34 -53l49 -5l-8 -27c-73 -6 -152 -16 -205 -26l4 28c18 6 28 20 34 45c9 38 27 128 45 209c-39 -8 -97 -9 -173 -9c-45 -88 -89 -156 -133 -206c-84 -97 -157 -124 -214 -125c-31 0 -52 9 -66 24c-20 19 -29 74 -28 95l8 6c27 -32 59 -49 111 -49
c129 0 214 132 311 330c47 98 94 187 125 228c26 36 56 51 73 60zM689 615h-5c-87 -28 -156 -164 -227 -312h155l22 96c16 71 40 179 55 216z" />
    <glyph glyph-name="B.swash" unicode="&#xe017;" horiz-adv-x="772" 
d="M324 147l111 483c-197 -12 -284 -111 -284 -252c0 -24 2 -46 4 -61c2 -8 -1 -13 -11 -11c-24 7 -66 43 -66 102c0 49 20 103 75 154c63 56 177 102 338 102c97 0 157 -13 195 -36c40 -26 61 -63 61 -108c0 -83 -56 -132 -158 -157v-3c94 -20 142 -78 142 -156
c0 -75 -45 -129 -106 -161c-57 -31 -130 -43 -206 -43h-212l6 27c79 9 87 14 111 120zM511 630l-57 -261c114 5 205 37 205 141c0 76 -49 116 -148 120zM448 341l-53 -238c-12 -58 13 -69 58 -69c122 0 184 76 184 173c0 104 -69 136 -189 134z" />
    <glyph glyph-name="C.swash" unicode="&#xe019;" horiz-adv-x="531" 
d="M487 96l16 -25c-68 -77 -157 -121 -247 -121c-128 0 -199 104 -199 244c0 148 61 296 184 393c75 58 148 77 207 77c65 0 119 -34 120 -87c0 -26 -15 -59 -28 -77h-22c-1 80 -47 119 -111 119c-167 0 -262 -214 -262 -397c0 -149 69 -210 152 -210c71 0 137 36 190 84z
" />
    <glyph glyph-name="D.swash" unicode="&#xe025;" horiz-adv-x="896" 
d="M337 141l113 486c-197 -11 -301 -117 -301 -262c0 -19 1 -39 4 -55c1 -7 -2 -13 -11 -11c-27 8 -65 45 -65 99s22 108 81 160c67 57 185 106 369 106c116 0 213 -26 274 -79c56 -49 82 -123 82 -202c0 -134 -64 -243 -168 -311c-81 -54 -185 -72 -289 -72h-206l8 27
c79 6 85 11 109 114zM526 628l-111 -514c-10 -45 -8 -62 11 -69c16 -6 33 -8 57 -8c190 0 307 157 307 345c0 163 -91 242 -264 246z" />
    <glyph glyph-name="E.swash" unicode="&#xe02b;" horiz-adv-x="493" 
d="M464 124l18 -23c-83 -90 -176 -116 -247 -116c-112 0 -190 74 -190 178c0 94 71 157 178 198c-44 23 -64 65 -64 112c0 98 106 191 231 191c63 0 113 -31 113 -76c0 -25 -18 -59 -28 -72h-21c0 66 -38 108 -107 108c-76 0 -112 -63 -112 -127c0 -61 41 -104 121 -104
c21 0 36 2 54 2l3 -12l-43 -43c-22 2 -40 3 -54 3c-115 0 -182 -62 -182 -154c0 -88 61 -141 148 -141c65 0 131 31 182 76z" />
    <glyph glyph-name="F.swash" unicode="&#xe045;" horiz-adv-x="716" 
d="M765 702l24 -8c-12 -42 -24 -67 -35 -79c-11 -9 -25 -12 -42 -12c-20 0 -50 2 -95 4c-38 3 -75 5 -106 6l-55 -266h25c108 0 183 6 218 9l3 -11l-52 -47c-49 1 -135 8 -187 8h-16l-36 -185c-16 -81 -7 -87 88 -94l-7 -27h-275l9 27c77 7 84 12 102 94l107 496
c-145 12 -286 -28 -287 -205c0 -15 0 -29 2 -42c2 -9 -4 -14 -14 -9c-28 18 -51 52 -51 96c0 43 18 86 64 125c44 40 123 73 274 73c49 0 93 -1 149 -2c56 -2 90 -2 120 -2c35 0 51 12 73 51z" />
    <glyph glyph-name="G.swash" unicode="&#xe047;" horiz-adv-x="638" 
d="M630 330l-36 -37c-11 -36 -24 -93 -36 -144c-38 -164 -88 -272 -169 -351c-45 -44 -90 -70 -119 -70c-33 0 -64 40 -67 78c-1 11 8 11 13 12c17 -8 53 -17 86 -17c34 0 71 17 99 69c29 52 49 129 63 190l-2 1c-56 -43 -129 -76 -199 -76c-117 0 -193 92 -193 235
c0 125 52 239 129 318c79 81 177 126 278 126c82 0 143 -38 143 -90c0 -23 -16 -54 -30 -77h-21c-5 82 -53 121 -135 121c-177 0 -274 -196 -274 -367c0 -148 70 -209 148 -209c68 0 118 28 163 64c13 54 29 144 36 179l-173 5l-1 10l42 28l251 12z" />
    <glyph glyph-name="H.swash" unicode="&#xe051;" horiz-adv-x="840" 
d="M423 356h239c34 171 76 255 129 318c46 55 79 72 100 72c15 0 28 -12 28 -27c0 -10 -5 -30 -19 -46c-7 -8 -14 -10 -21 -6c-12 6 -22 10 -31 10c-10 0 -21 -7 -31 -26c-42 -79 -76 -270 -96 -375c-14 -78 -24 -140 -31 -187c-5 -34 1 -41 39 -45l46 -5l-10 -27
c-75 -6 -155 -21 -203 -30l6 28c21 11 27 19 34 49c10 49 34 176 53 264c-41 -11 -100 -15 -243 -15c-49 -205 -114 -294 -199 -354c-52 -38 -90 -48 -121 -48c-28 0 -45 15 -55 29c-11 16 -21 49 -21 67l12 8c28 -24 77 -38 110 -38c39 0 69 16 92 45c43 52 73 156 106 313
c30 148 55 254 70 281c-143 -3 -250 -75 -251 -227c0 -21 1 -39 3 -52c1 -9 -2 -13 -12 -11c-24 7 -62 40 -62 98c1 57 33 115 91 157c54 40 141 70 245 72c15 10 40 24 68 32l6 -4c-12 -28 -52 -222 -71 -320z" />
    <glyph glyph-name="I.swash" unicode="&#xe057;" horiz-adv-x="483" 
d="M499 654l-5 -24c-41 -8 -45 -10 -53 -45l-96 -463c-17 -80 -10 -87 73 -95l-6 -27h-260l6 27c80 8 88 14 105 96l109 498c-132 -3 -219 -80 -219 -206c0 -12 1 -26 2 -37c1 -8 -2 -11 -10 -9c-26 8 -58 42 -58 85c0 46 19 92 73 135c55 44 142 69 263 69
c30 0 57 -2 76 -4z" />
    <glyph glyph-name="J.swash" unicode="&#xe06d;" horiz-adv-x="469" 
d="M493 655l-6 -24c-37 -8 -42 -11 -49 -47l-91 -447c-33 -166 -100 -242 -175 -290c-49 -30 -87 -40 -122 -40c-38 0 -59 18 -71 42c-12 25 -16 52 -17 67c1 9 8 11 14 7c30 -31 81 -59 128 -59c33 0 57 11 74 29c31 31 61 110 94 274l93 453c-128 -2 -206 -86 -206 -209
c0 -14 1 -29 2 -41c1 -7 -2 -10 -11 -7c-26 7 -58 42 -58 86c0 46 21 93 69 133c59 49 142 76 263 76c28 0 52 -1 69 -3z" />
    <glyph glyph-name="K.swash" unicode="&#xe072;" horiz-adv-x="880" 
d="M548 651l-6 -24c-40 -6 -45 -14 -52 -44l-57 -255l2 1c16 11 37 27 65 54c40 39 102 110 189 202c68 72 99 79 126 79c26 0 46 -21 45 -41c0 -22 -17 -45 -35 -51c-12 -4 -20 -2 -27 7c-6 10 -14 12 -24 12c-27 0 -78 -50 -120 -93c-42 -42 -76 -79 -107 -113
c37 -86 78 -165 113 -221c47 -78 97 -133 154 -136c13 0 24 1 34 3l-1 -25c-29 -14 -63 -20 -95 -20c-84 0 -132 78 -180 166c-23 41 -45 87 -76 154c-8 16 -14 20 -23 14c-9 -5 -30 -19 -49 -37l-33 -153c-19 -91 -11 -94 72 -103l-6 -27h-258l6 27c79 8 86 13 107 104
l112 487c-130 -1 -271 -63 -271 -220c0 -13 0 -30 2 -47c1 -9 -1 -13 -10 -11c-27 7 -60 42 -60 91c0 48 27 100 85 146c61 48 176 78 303 77c28 -1 54 -1 75 -3z" />
    <glyph glyph-name="L.swash" unicode="&#xe076;" horiz-adv-x="737" 
d="M687 175l26 -11c-23 -60 -42 -101 -71 -138c-27 -34 -54 -46 -96 -46c-53 0 -123 7 -211 15c-85 8 -153 12 -178 12v7c10 11 40 26 76 37c9 1 18 1 26 1c40 61 76 186 111 342l50 227c-136 -1 -272 -67 -272 -226c0 -19 1 -38 3 -54c1 -8 -2 -12 -11 -10
c-28 8 -61 44 -61 94s27 107 89 154c60 45 157 79 298 79c34 0 64 -1 88 -3l-6 -26c-40 -6 -43 -10 -47 -25l-52 -227c-32 -140 -73 -256 -137 -324l-1 -3c58 -3 148 -8 212 -8c76 0 114 43 164 133z" />
    <glyph glyph-name="M.swash" unicode="&#xe081;" horiz-adv-x="1017" 
d="M961 38l-11 -27c-90 -9 -151 -18 -211 -28l4 27c23 10 30 21 37 46c9 35 16 71 31 137c21 99 54 244 83 364h-2c-121 -158 -259 -397 -350 -564l-25 -4c-13 149 -31 368 -50 565h-2c-88 -357 -144 -463 -196 -532c-60 -79 -132 -110 -187 -110c-29 0 -48 7 -62 20
c-17 15 -31 61 -32 88c3 3 6 6 10 8c21 -20 57 -38 95 -38c56 0 117 29 181 140c57 94 118 272 172 485c-139 0 -282 -69 -283 -236c0 -20 2 -37 4 -50c0 -8 -3 -12 -11 -11c-27 8 -63 47 -62 101c1 51 23 100 79 147c56 46 154 83 286 87c19 9 41 23 56 31l8 -1
c11 -108 48 -382 64 -518l2 1c118 196 284 446 387 530c49 41 80 55 102 55c25 0 40 -37 40 -60c0 -7 -1 -9 -13 -9c-94 10 -116 0 -135 -79c-16 -69 -40 -195 -69 -346c-12 -62 -21 -113 -27 -157c-6 -43 -3 -51 42 -57z" />
    <glyph glyph-name="N.swash" unicode="&#xe083;" horiz-adv-x="870" 
d="M954 657l-6 -26c-74 -13 -86 -27 -101 -75c-10 -31 -24 -80 -42 -172l-80 -397l-27 -3c-61 162 -163 377 -252 504h-3c-44 -272 -102 -392 -161 -459c-47 -55 -105 -80 -152 -80c-26 0 -45 9 -56 21c-18 17 -31 52 -33 76c3 2 6 6 9 7c16 -11 49 -27 89 -27
c44 0 106 25 161 123c57 101 100 273 113 373c-41 55 -94 96 -156 96c-74 0 -119 -49 -119 -170c0 -20 1 -35 3 -50c1 -7 -4 -11 -14 -8c-26 8 -52 44 -52 81c0 30 12 71 50 112c53 55 115 81 182 81c113 0 197 -102 276 -245c62 -111 97 -186 135 -276h1l45 242
c16 89 23 135 26 171c5 49 -10 59 -92 63l7 26z" />
    <glyph glyph-name="O.swash" unicode="&#xe08d;" horiz-adv-x="639" 
d="M414 664c125 0 216 -107 215 -266c-1 -235 -153 -413 -336 -413c-135 0 -226 105 -226 270c0 219 158 409 347 409zM403 631c-138 0 -242 -203 -242 -384c0 -134 49 -229 144 -229c130 0 231 203 231 396c0 136 -45 217 -133 217z" />
    <glyph glyph-name="P.swash" unicode="&#xe0a4;" horiz-adv-x="754" 
d="M342 131l113 498c-193 -6 -303 -97 -303 -256c0 -21 2 -42 3 -55c1 -9 -2 -13 -12 -10c-28 7 -65 44 -65 97c0 40 11 85 58 135c71 76 200 124 356 124c192 0 278 -68 278 -187c0 -133 -127 -203 -242 -208l-6 27c77 12 160 59 160 179c0 87 -46 139 -151 150l-105 -494
c-19 -89 -12 -96 76 -105l-7 -26h-264l7 26c77 9 84 15 104 105z" />
    <glyph glyph-name="Q.swash" unicode="&#xe0a6;" horiz-adv-x="627" 
d="M806 -128l14 -24c-50 -62 -128 -105 -189 -105c-52 0 -98 16 -144 39c-43 23 -97 57 -171 105c-67 44 -111 67 -135 74c-15 -4 -50 -14 -112 -21l-10 11c11 17 38 46 77 67c22 -1 49 -7 73 -15c149 43 316 208 316 423c0 132 -48 205 -139 205
c-149 0 -226 -181 -227 -293c-1 -109 49 -182 113 -182c4 0 8 0 13 1l1 -25c-13 -9 -36 -15 -61 -15c-69 0 -157 70 -156 210c1 159 133 337 329 337c156 0 223 -126 223 -252c0 -141 -84 -252 -180 -322c-83 -60 -136 -86 -181 -104v-2c58 -22 128 -59 202 -103
c73 -42 142 -69 199 -69c50 0 102 22 145 60z" />
    <glyph glyph-name="R.swash" unicode="&#xe0a9;" horiz-adv-x="838" 
d="M817 28l-5 -26c-19 -10 -46 -16 -77 -16c-67 0 -109 54 -143 124c-28 56 -56 119 -72 156c-11 24 -25 31 -90 27l-36 -164c-19 -89 -11 -94 73 -102l-5 -27h-262l7 27c75 8 85 13 105 102l115 500c-211 -14 -274 -133 -275 -241c0 -16 2 -38 6 -58c1 -10 -2 -15 -12 -13
c-33 10 -66 45 -66 99c0 51 27 106 86 152c64 53 178 96 315 96c94 0 160 -16 196 -41c41 -29 61 -70 61 -121c0 -117 -103 -162 -155 -183c33 -80 56 -126 84 -177c40 -72 81 -120 150 -114zM504 627l-68 -305c140 5 213 61 213 168c0 98 -63 133 -145 137z" />
    <glyph glyph-name="S.swash" unicode="&#xe0b2;" horiz-adv-x="522" 
d="M499 514h-23c3 60 -30 105 -102 105c-73 0 -114 -57 -114 -119c0 -50 29 -89 107 -151c90 -72 110 -120 110 -170c0 -64 -35 -124 -100 -170c-49 -35 -107 -59 -173 -59c-115 0 -183 75 -183 158c0 45 23 83 44 100c8 7 17 4 16 -5c-2 -13 -3 -27 -3 -42
c0 -82 68 -155 174 -155c70 0 151 34 151 132c0 55 -42 103 -105 154c-74 61 -105 109 -105 170c0 52 23 107 82 152c47 37 98 50 139 50c68 0 112 -36 112 -80c0 -21 -14 -54 -27 -70z" />
    <glyph glyph-name="T.swash" unicode="&#xe0ba;" horiz-adv-x="674" 
d="M732 706l28 -8c-7 -25 -19 -60 -31 -74c-14 -16 -33 -22 -66 -22c-37 0 -73 3 -150 5l-93 -468c-20 -98 -16 -103 81 -112l-6 -27h-282l6 27c89 9 97 13 118 113l99 472c-31 2 -58 3 -92 3c-147 -1 -203 -70 -200 -199c0 -21 2 -39 4 -54c1 -8 0 -13 -7 -13
c-18 0 -60 31 -61 95c0 68 51 123 98 157c50 35 116 57 218 57c58 0 105 -2 158 -5c54 -1 87 -4 109 -4c32 0 48 9 69 57z" />
    <glyph glyph-name="U.swash" unicode="&#xe0c9;" horiz-adv-x="880" 
d="M891 664l7 -22c-36 -15 -50 -41 -66 -110c-31 -131 -61 -273 -88 -423c-10 -53 -4 -57 79 -60l-4 -26c-68 -8 -111 -19 -175 -38l-6 9l48 214l-2 2c-148 -187 -253 -225 -333 -225c-81 0 -106 71 -78 182c44 182 83 306 111 409c11 39 1 47 -28 47
c-124 0 -216 -98 -216 -235c0 -19 1 -35 2 -47c1 -8 -2 -12 -11 -9c-23 5 -56 36 -56 93c0 46 19 95 66 141c55 53 151 98 274 98c64 0 72 -27 52 -90c-31 -103 -65 -223 -105 -388c-20 -82 -13 -136 45 -136c103 0 218 126 274 218c16 25 25 44 33 79l63 286
c34 9 71 20 114 31z" />
    <glyph glyph-name="V.swash" unicode="&#xe0df;" horiz-adv-x="813" 
d="M452 -15h-23c-15 225 -31 541 -39 630c-136 -9 -240 -81 -240 -220c0 -21 2 -36 4 -53c1 -9 -1 -14 -11 -12c-26 4 -63 43 -63 91c0 41 14 82 50 121c45 48 136 98 264 110c23 11 45 21 67 29l10 -1c5 -183 20 -380 30 -568c57 66 148 193 199 277c51 83 74 147 74 192
c0 17 -2 35 -7 49c-3 6 -5 12 -2 21c9 21 32 46 48 46c21 0 38 -26 38 -69c-1 -87 -56 -173 -100 -238c-54 -81 -147 -209 -299 -405z" />
    <glyph glyph-name="W.swash" unicode="&#xe0e1;" horiz-adv-x="1083" 
d="M758 623h26c9 -115 30 -361 40 -503c49 69 93 135 139 214c64 109 95 186 95 247c0 18 -2 35 -7 49c-3 6 -5 12 -2 21c8 21 32 46 48 46c20 0 38 -26 37 -69c-1 -85 -44 -160 -107 -262c-59 -96 -126 -198 -251 -381h-25c-6 123 -18 300 -33 483h-2
c-74 -129 -160 -277 -291 -483h-24c2 160 1 585 0 630c-160 -14 -251 -96 -251 -230c0 -20 2 -36 4 -50c2 -9 -1 -15 -11 -13c-24 7 -61 42 -61 92c0 42 12 86 52 129c43 46 134 95 274 109c22 9 46 17 68 25l9 -1c-1 -114 -6 -339 -6 -539h3c167 278 262 459 276 486z" />
    <glyph glyph-name="X.swash" unicode="&#xe0eb;" horiz-adv-x="680" 
d="M127 500l-17 22c71 94 143 142 181 142c47 0 69 -85 98 -199c5 -17 7 -27 11 -44c31 45 62 90 96 134c65 85 110 109 145 109c27 0 47 -19 47 -44c0 -19 -15 -39 -34 -48c-11 -5 -17 -1 -22 8c-6 11 -17 17 -29 16c-11 -1 -25 -7 -51 -33c-40 -40 -96 -117 -141 -186
c14 -56 34 -139 55 -213c28 -100 42 -111 55 -111c21 0 78 40 118 82l16 -22c-81 -106 -147 -127 -178 -127c-44 0 -66 71 -94 178c-13 48 -20 83 -32 126c-57 -92 -121 -185 -169 -238c-52 -58 -94 -71 -128 -71s-58 28 -58 56c0 27 17 48 32 57c9 5 15 3 17 -5
c9 -22 22 -34 43 -34c39 0 100 48 198 197c20 30 39 59 54 84c-8 36 -20 87 -38 154c-25 93 -40 108 -53 108c-16 0 -59 -28 -122 -98z" />
    <glyph glyph-name="Y.swash" unicode="&#xe0ed;" horiz-adv-x="660" 
d="M401 380h4c63 138 128 209 172 246c35 28 62 38 89 38c28 0 48 -21 48 -44c0 -22 -18 -44 -39 -51c-11 -4 -16 0 -22 10c-6 12 -15 17 -31 17c-70 -2 -169 -176 -192 -243c-8 -23 -18 -55 -25 -91l-26 -135c-16 -87 -10 -91 82 -100l-5 -27h-280l6 27
c93 8 100 13 117 100l27 143c9 50 14 81 11 134c-6 130 -44 200 -116 202c-43 1 -85 -20 -127 -52l-13 22c64 58 131 88 181 88c132 0 146 -153 139 -284z" />
    <glyph glyph-name="Z.swash" unicode="&#xe0f7;" horiz-adv-x="602" 
d="M116 461l-25 15c41 82 102 188 152 188c42 0 99 -8 199 -23c47 -8 72 -10 89 -10c26 0 52 24 78 56c6 6 8 9 12 9c4 -10 20 -26 -10 -62c-128 -159 -350 -392 -480 -528v-2c28 3 68 -5 118 -22c78 -26 133 -45 170 -45c43 0 102 62 148 133l25 -15
c-82 -161 -139 -197 -178 -197c-48 0 -103 23 -212 68c-48 20 -67 27 -86 27c-33 0 -57 -28 -73 -57c-4 -7 -9 -9 -14 -9c-6 0 -13 9 -13 23c1 27 33 66 63 98c204 216 323 341 441 476c-25 -7 -49 -8 -93 -4c-60 5 -116 14 -159 14c-48 0 -87 -36 -152 -133z" />
    <glyph glyph-name="Dcroat.swash" unicode="&#xe029;" horiz-adv-x="896" 
d="M387 357l63 270c-199 -11 -302 -117 -302 -262c0 -19 1 -38 4 -54c1 -8 -1 -14 -10 -12c-28 8 -66 45 -66 99s22 107 82 159c67 58 187 107 370 107c116 0 214 -29 273 -80c55 -48 82 -123 82 -201c0 -133 -64 -242 -169 -311c-81 -54 -184 -72 -288 -72h-206l7 27
c79 6 86 11 110 115l41 177h-109l11 38h107zM459 319l-44 -207c-10 -45 -9 -63 11 -69c16 -5 33 -7 56 -7c187 0 308 153 308 346c0 164 -94 241 -264 246l-59 -271h158l-10 -38h-156z" />
    <glyph glyph-name="Hbar.swash" unicode="&#xe053;" horiz-adv-x="840" 
d="M448 475h244c30 100 61 154 99 198c46 55 80 72 101 72c15 0 29 -11 28 -27c0 -9 -5 -29 -18 -44c-8 -9 -15 -11 -22 -7c-12 7 -22 10 -32 10c-9 0 -21 -7 -31 -26c-21 -39 -40 -102 -55 -176h87l-12 -37h-84c-13 -62 -24 -120 -32 -161c-14 -79 -24 -143 -31 -190
c-5 -30 2 -39 40 -43l45 -5l-10 -27c-75 -6 -154 -21 -202 -30l5 28c22 11 28 22 34 52c11 49 33 172 46 227c-36 -11 -94 -15 -245 -15c-42 -172 -104 -260 -189 -319c-52 -39 -91 -49 -122 -49c-28 0 -45 15 -55 30c-11 15 -21 48 -21 66l12 9c28 -25 78 -39 110 -39
c39 0 69 16 92 44c43 53 73 156 106 314c9 42 17 81 24 108h-87l13 37h82c17 79 29 120 38 137c-153 -4 -251 -81 -251 -230c0 -22 1 -37 4 -50c1 -9 -4 -13 -13 -11c-25 7 -62 41 -62 98c1 62 41 121 91 157c54 39 141 70 245 72c15 10 40 24 68 32l6 -4
c-8 -18 -27 -104 -46 -201zM682 438h-242c-9 -42 -17 -82 -23 -117h238c9 46 18 84 27 117z" />
    <glyph glyph-name="Oslash.swash" unicode="&#xe09e;" horiz-adv-x="642" 
d="M595 693l27 -22l-55 -76c41 -47 65 -116 65 -199c-1 -232 -152 -411 -339 -411c-52 0 -98 17 -134 47l-56 -78l-26 25l56 78c-42 47 -66 116 -66 201c0 217 158 406 346 406c49 0 91 -14 129 -44zM181 120l326 452c-23 39 -58 58 -105 58c-139 0 -244 -200 -244 -380
c0 -49 8 -94 23 -130zM523 535l-326 -451c22 -39 58 -65 107 -65c134 0 239 200 239 391c0 48 -6 91 -20 125z" />
    <glyph glyph-name="Tbar.swash" unicode="&#xe0c2;" horiz-adv-x="674" 
d="M733 706l26 -7c-6 -25 -19 -62 -30 -75c-14 -17 -33 -22 -66 -22c-37 0 -73 3 -150 5l-51 -257h112l-11 -37h-109l-34 -174c-20 -100 -13 -103 81 -112l-6 -27h-282l6 27c90 9 96 12 118 113l36 173h-102l11 37h99l55 262c-31 2 -59 3 -93 3c-147 -1 -201 -74 -199 -199
c0 -22 2 -39 4 -54c1 -8 -1 -13 -8 -13c-18 0 -59 32 -60 95c0 69 50 122 96 156c50 36 119 58 220 58c58 0 106 -2 158 -5c54 -2 88 -4 109 -4c32 0 49 9 70 57z" />
    <glyph glyph-name="Eng.swash" unicode="&#xe03d;" horiz-adv-x="870" 
d="M954 657l-7 -26c-74 -14 -86 -28 -101 -76c-10 -30 -23 -79 -41 -171l-63 -314c-19 -95 -35 -168 -68 -219c-30 -48 -67 -67 -101 -67c-24 0 -43 14 -43 32c0 20 20 47 32 47s22 -9 38 -9c34 0 68 45 89 151c-54 146 -152 354 -242 481h-2c-44 -272 -104 -391 -163 -458
c-48 -54 -104 -79 -151 -79c-27 0 -46 9 -57 21c-18 17 -31 52 -33 75c3 4 6 7 9 8c16 -10 49 -27 89 -27c44 0 106 25 161 122c57 101 101 273 114 373c-41 55 -93 96 -155 96c-74 0 -122 -49 -122 -170c0 -20 1 -34 3 -49c1 -7 -3 -11 -13 -8c-26 7 -52 44 -52 81
c0 30 12 71 50 111c53 56 115 82 182 82c113 0 197 -102 276 -245c62 -111 96 -186 134 -276h2l45 242c17 91 23 135 26 170c4 49 -11 60 -92 64l7 26z" />
    <glyph glyph-name="Eth.swash" unicode="&#xe041;" horiz-adv-x="896" 
d="M387 357l63 270c-199 -11 -302 -117 -302 -262c0 -19 1 -38 4 -54c1 -8 -1 -14 -10 -12c-28 8 -66 45 -66 99s22 107 82 159c67 58 187 107 370 107c116 0 214 -29 273 -80c55 -48 82 -123 82 -201c0 -133 -64 -242 -169 -311c-81 -54 -184 -72 -288 -72h-206l7 27
c79 6 86 11 110 115l41 177h-109l11 38h107zM459 319l-44 -207c-10 -45 -9 -63 11 -69c16 -5 33 -7 56 -7c187 0 308 153 308 346c0 164 -94 241 -264 246l-59 -271h158l-10 -38h-156z" />
    <glyph glyph-name="uni25B7" unicode="&#x25b7;" horiz-adv-x="606" 
d="M130 405l1 -295l311 150zM75 26c0 0 2 465 1 465h1l486 -230v-2l-486 -235z" />
    <glyph glyph-name="T_h.swash" unicode="&#xe0c0;" horiz-adv-x="1097" 
d="M1048 108l13 -24c-54 -60 -117 -96 -145 -96c-25 0 -31 29 -15 96l53 234c12 51 9 69 -8 69c-42 0 -153 -110 -203 -193c-10 -43 -30 -134 -39 -187c-21 -4 -52 -11 -72 -18l-7 8c43 193 91 407 131 617c-27 -7 -54 -10 -79 -10c-48 0 -88 3 -161 6l-99 -467
c-23 -105 -14 -108 79 -116l-5 -27h-282l5 27c91 8 97 11 121 117l104 472c-33 3 -72 5 -113 5c-123 0 -182 -64 -180 -173c0 -38 9 -73 16 -91c3 -8 4 -14 -6 -14c-19 0 -76 29 -76 106c0 72 54 127 98 158c49 34 126 57 218 57c56 0 109 -4 160 -6c50 -3 94 -7 163 -7
c56 0 89 27 105 58h28c-35 -145 -65 -290 -98 -446h3c71 93 142 145 182 166c22 12 48 20 64 20c28 0 51 -19 30 -110l-56 -241c-7 -28 -5 -35 2 -36c10 0 40 19 69 46z" />
    <glyph glyph-name="zero.oldstyle" unicode="&#xf730;" horiz-adv-x="484" 
d="M204 -12c-124 0 -168 124 -143 240c23 111 112 224 232 224c123 0 171 -110 145 -243c-21 -106 -108 -221 -234 -221zM212 22c77 0 125 114 141 194c15 76 16 203 -66 203c-80 0 -127 -118 -143 -195c-14 -76 -16 -202 68 -202z" />
    <glyph glyph-name="one.oldstyle" unicode="&#xf731;" horiz-adv-x="337" 
d="M283 26l-6 -26h-261l6 26l51 7c33 5 41 11 50 61l46 237c9 46 4 52 -30 54l-58 3l4 24c69 10 127 23 183 40l-68 -358c-9 -50 -5 -57 27 -61z" />
    <glyph glyph-name="two.oldstyle" unicode="&#xf732;" horiz-adv-x="429" 
d="M391 115l-41 -115h-347l4 23c116 76 285 176 285 284c0 50 -29 82 -80 82c-55 0 -99 -55 -123 -82l-21 22l60 73c39 35 77 50 122 50c66 0 127 -44 127 -127c0 -51 -29 -91 -74 -131c-40 -34 -93 -73 -171 -127v-2h147c46 0 59 11 75 37l11 19z" />
    <glyph glyph-name="three.oldstyle" unicode="&#xf733;" horiz-adv-x="397" 
d="M62 346l49 61c29 27 67 45 109 45c64 0 115 -40 115 -111c0 -68 -54 -98 -108 -133v-2c58 -14 105 -58 105 -130c0 -92 -68 -154 -141 -197c-56 -31 -106 -42 -134 -42c-40 0 -70 17 -83 33c-11 12 -12 25 -6 36c5 12 14 21 23 28c9 6 17 5 24 -2c19 -18 53 -42 99 -42
c82 0 133 71 133 155c0 76 -43 108 -101 108c-18 0 -39 -4 -56 -11l-7 28c72 26 175 64 175 153c0 48 -32 72 -71 72c-47 0 -84 -42 -105 -69z" />
    <glyph glyph-name="four.oldstyle" unicode="&#xf734;" horiz-adv-x="478" 
d="M437 93l-18 -50h-84l-39 -200h-76l40 200h-256l7 35c117 126 243 257 365 374h37l-69 -359h93zM325 355h-3c-84 -85 -161 -169 -245 -262h192z" />
    <glyph glyph-name="five.oldstyle" unicode="&#xf735;" horiz-adv-x="390" 
d="M369 452l-29 -74l-188 -18l-37 -112c96 -17 208 -55 208 -178c0 -83 -56 -150 -135 -193c-55 -30 -95 -40 -126 -40c-36 0 -68 18 -82 33c-12 13 -14 24 -8 36c4 10 13 22 23 28c8 5 15 5 23 -3c20 -18 50 -41 98 -41c71 0 127 60 127 145c0 110 -98 135 -186 146l75 247
z" />
    <glyph glyph-name="six.oldstyle" unicode="&#xf736;" horiz-adv-x="483" 
d="M498 606l4 -30c-135 -28 -268 -120 -324 -234h2c57 27 94 40 113 40c84 0 143 -65 143 -164c0 -132 -106 -230 -218 -230c-100 0 -162 75 -162 192c0 109 56 227 160 309c82 64 186 104 282 117zM243 329c-21 0 -47 -8 -77 -23c-13 -30 -25 -80 -25 -137
c0 -65 24 -146 98 -146c75 0 114 88 114 168c0 81 -31 138 -110 138z" />
    <glyph glyph-name="seven.oldstyle" unicode="&#xf737;" horiz-adv-x="424" 
d="M451 441l7 -12c-55 -84 -216 -320 -397 -579l-78 -15l-7 16c154 176 273 330 400 518h-308l14 72h369z" />
    <glyph glyph-name="eight.oldstyle" unicode="&#xf738;" horiz-adv-x="464" 
d="M304 606c71 0 134 -44 134 -130c0 -34 -20 -67 -46 -90c-16 -13 -36 -29 -81 -60c59 -42 101 -81 101 -156c0 -96 -99 -182 -215 -182c-84 0 -157 53 -157 142c0 42 18 73 54 107c22 19 64 47 104 73c-39 31 -78 70 -78 133c0 91 83 163 184 163zM281 574
c-44 0 -89 -37 -89 -104c0 -65 53 -100 94 -126c47 33 80 78 80 131c0 62 -38 99 -85 99zM221 22c59 0 111 49 111 122c0 69 -48 106 -110 148c-62 -40 -104 -95 -104 -155c0 -70 44 -115 103 -115z" />
    <glyph glyph-name="nine.oldstyle" unicode="&#xf739;" horiz-adv-x="471" 
d="M430 256c0 -178 -126 -324 -304 -389c-38 -14 -101 -30 -127 -31l-6 28c93 22 245 90 321 242l-2 2c-60 -28 -90 -37 -112 -37c-73 0 -140 61 -140 158c0 114 95 223 212 223c101 0 158 -82 158 -196zM346 270c0 71 -22 149 -88 149h-1c-72 0 -113 -93 -113 -167
c0 -79 38 -130 107 -130c27 0 55 11 74 24c12 29 21 78 21 124z" />
    <glyph glyph-name="dollar.oldstyle" unicode="&#xf724;" horiz-adv-x="455" 
d="M400 318l-27 -5c-7 51 -24 100 -86 110l-31 -160l18 -8c67 -28 116 -60 116 -125c0 -97 -96 -137 -186 -140l-14 -73h-33l14 73c-63 3 -114 31 -130 41c-2 17 -6 64 -4 119l27 5c10 -60 42 -122 113 -134l34 176l-16 8c-57 25 -105 55 -105 116c0 92 83 134 171 135
l13 63h32l-12 -64c22 -1 48 -8 69 -15c16 -6 26 -10 36 -13c0 -29 3 -68 1 -109zM226 273l28 152c-46 0 -95 -27 -95 -75c0 -39 26 -59 67 -77zM241 187l-31 -167c43 0 104 23 104 79c0 41 -19 63 -73 88z" />
    <glyph glyph-name="cent.oldstyle" unicode="&#xf7a2;" horiz-adv-x="462" 
d="M342 508l-15 -73c40 0 73 -9 94 -23c8 -8 11 -15 11 -24c0 -20 -19 -40 -35 -40c-6 0 -11 3 -16 9c-20 24 -38 38 -61 41l-61 -319c39 -1 80 12 128 50l13 -22c-47 -51 -102 -77 -150 -81l-17 -88h-34l17 88c-86 8 -154 68 -154 167c0 141 119 224 232 239l14 76h34z
M227 84l60 316c-103 -7 -144 -102 -144 -184c0 -72 34 -117 84 -132z" />
    <glyph glyph-name="Euro.oldstyle" unicode="&#xe043;" horiz-adv-x="539" 
d="M59 340h50c45 124 159 201 290 201c60 0 109 -17 132 -27c-2 -41 -3 -87 -7 -113l-25 -3c-8 76 -44 110 -111 110c-87 0 -161 -68 -192 -168h282l-15 -36h-276c-5 -20 -9 -41 -9 -62h270l-16 -36h-254c4 -97 54 -184 140 -184c66 0 112 49 152 104l21 -15
c-11 -27 -39 -81 -58 -105c-27 -6 -79 -18 -127 -18c-129 0 -211 86 -217 218h-67l13 36h54c1 21 4 45 10 62h-53z" />
    <glyph glyph-name="florin.oldstyle" unicode="&#xe119;" horiz-adv-x="432" 
d="M178 305l9 38c18 73 48 124 96 165c49 42 83 49 106 49c25 0 53 -15 53 -36c0 -23 -27 -47 -40 -46c-15 8 -40 32 -63 32c-12 0 -21 -7 -30 -22c-13 -20 -27 -71 -46 -180h106l-11 -36h-103l-27 -129c-24 -119 -63 -196 -134 -248c-37 -28 -62 -35 -84 -35
c-26 0 -53 21 -53 39c1 16 27 46 39 46c9 0 36 -32 61 -32c16 0 27 10 34 21c16 24 33 91 49 177l30 161h-81l12 36h77z" />
    <glyph glyph-name="sterling.oldstyle" unicode="&#xe157;" horiz-adv-x="484" 
d="M63 283h69c8 92 33 166 110 220c34 23 73 39 104 39c45 0 73 -24 82 -40c5 -9 3 -21 -2 -30c-4 -6 -12 -15 -22 -21c-9 -6 -17 -5 -24 2c-22 25 -48 39 -81 39c-46 0 -67 -38 -73 -85c-4 -32 -7 -80 -8 -124h149l-8 -35h-144c-14 -71 -46 -118 -107 -162
c32 3 67 -4 111 -23c31 -15 67 -31 101 -31c33 0 52 18 53 41c1 11 -1 23 -3 31c-1 5 1 12 6 18c11 15 26 26 37 26c12 0 19 -15 19 -33c0 -38 -37 -82 -79 -110c-27 -17 -56 -30 -90 -30c-36 0 -80 23 -119 44c-25 15 -45 23 -65 23c-14 0 -28 -11 -42 -36
c-6 -9 -12 -12 -18 -12c-11 1 -23 17 -5 42c11 14 33 36 51 52c47 43 59 99 65 160h-75z" />
    <glyph glyph-name="yen.oldstyle" unicode="&#xe17d;" horiz-adv-x="482" 
d="M518 533l-5 -27c-45 -6 -60 -14 -93 -56c-25 -31 -63 -81 -123 -167h125l-8 -33h-132l-14 -75h134l-8 -33h-133l-9 -53c-10 -50 -4 -58 74 -62l-6 -27h-239l6 27c71 4 78 13 88 63l11 52h-128l8 33h126l15 75h-128l8 33h118c-14 48 -32 106 -54 169c-17 46 -30 49 -71 54
l5 27h195l-6 -28l-27 -3c-24 -4 -29 -8 -24 -27c9 -40 34 -120 49 -174c32 46 89 129 109 164c13 23 14 32 -9 36l-27 4l5 28h168z" />
    <glyph glyph-name="colonmonetary.oldstyle" unicode="&#xe105;" horiz-adv-x="525" 
d="M509 598l-24 -65c26 -5 47 -11 62 -14c-4 -44 -7 -81 -12 -122l-26 -2c0 51 -13 81 -38 99l-178 -472h10c68 1 115 42 166 117l24 -14c-14 -31 -45 -88 -64 -112c-23 -7 -78 -23 -136 -23c-4 0 -9 0 -13 1l-23 -60h-32l23 62c-20 2 -35 6 -51 13l-29 -75h-33l34 86
c-67 35 -102 108 -102 195c0 179 136 307 301 325l23 61h32l-22 -59c8 1 15 1 22 1c11 0 22 -1 32 -2l22 60h32zM261 26l182 477c-13 4 -26 5 -40 5h-13l-178 -463c13 -9 28 -16 49 -19zM187 67l168 438c-117 -21 -199 -158 -199 -306c0 -54 9 -101 31 -132z" />
    <glyph glyph-name="franc.oldstyle" unicode="&#xe11b;" horiz-adv-x="474" 
d="M122 529h363c-5 -29 -12 -84 -16 -129l-27 -2c-2 35 -6 58 -15 73c-10 17 -26 24 -87 24h-48c-24 0 -29 -3 -33 -25l-32 -172c74 0 139 2 195 8l-10 -52c-55 6 -120 6 -192 8l-18 -94h150l-7 -34h-150l-6 -30c-15 -68 -6 -73 70 -78l-6 -26h-231l6 26c65 4 71 11 85 78
l6 30h-82l7 34h82l49 254c13 67 7 76 -58 81z" />
    <glyph glyph-name="lira.oldstyle" unicode="&#xe121;" horiz-adv-x="481" 
d="M352 196h-151c-14 -37 -46 -77 -87 -108c36 3 68 -2 110 -23c37 -18 69 -33 100 -33s47 20 48 44c1 9 0 19 -1 25c-2 6 0 13 5 19c13 16 29 26 40 26s17 -15 16 -30c-2 -40 -36 -87 -80 -114c-28 -17 -60 -28 -89 -28c-34 0 -74 24 -114 48c-26 14 -42 22 -59 22
s-31 -12 -47 -39c-5 -8 -10 -11 -16 -11c-11 1 -25 17 -4 44c10 16 28 34 46 51c31 31 46 72 53 107h-81l9 34h77c2 14 5 35 6 56h-79l9 34h72c6 78 39 137 103 182c33 25 76 40 107 40c39 0 71 -20 79 -36c7 -12 4 -23 -1 -32c-4 -6 -12 -15 -21 -21s-17 -6 -25 1
c-20 22 -45 41 -77 41c-53 0 -73 -49 -78 -90c-4 -31 -5 -69 -5 -85h160l-9 -34h-152c0 -26 -3 -44 -6 -56h151z" />
    <glyph glyph-name="numbersign.oldstyle" unicode="&#xe12e;" horiz-adv-x="481" 
d="M467 366l-14 -59h-93l-40 -135h87l-14 -59h-91l-52 -174h-38l51 174h-108l-52 -174h-38l52 174h-98l15 59h102l40 135h-96l14 59h100l46 154h38l-46 -154h107l46 154h39l-45 -154h88zM322 307h-108l-39 -135h107z" />
    <glyph glyph-name="percent.oldstyle" unicode="&#xf642;" horiz-adv-x="702" 
d="M590 531l-420 -556l-28 25l421 555zM348 415c0 -81 -61 -184 -160 -184c-73 0 -105 54 -105 120c0 83 60 188 161 188c74 0 104 -56 104 -124zM281 445c0 35 -7 67 -41 67c-63 0 -89 -127 -89 -180c0 -33 7 -74 41 -74c64 0 89 135 89 187zM648 172
c0 -83 -61 -184 -160 -184c-73 0 -105 55 -105 121c0 81 61 187 161 187c74 0 104 -56 104 -124zM581 202c0 33 -7 67 -41 67c-62 0 -89 -126 -89 -181c0 -33 7 -73 41 -73c66 0 89 137 89 187z" />
    <glyph glyph-name="perthousand.oldstyle" unicode="&#xf628;" horiz-adv-x="990" 
d="M589 531l-419 -556l-28 25l420 555zM348 415c0 -81 -61 -184 -160 -184c-73 0 -105 55 -105 120c0 83 61 188 162 188c73 0 103 -56 103 -124zM281 445c0 35 -7 67 -41 67c-63 0 -89 -127 -89 -180c0 -33 6 -74 40 -74c65 0 90 136 90 187zM648 172
c0 -83 -61 -184 -160 -184c-73 0 -105 55 -105 121c0 81 61 187 161 187c74 0 104 -56 104 -124zM941 172c0 -83 -61 -184 -160 -184c-73 0 -105 55 -105 121c0 81 61 187 161 187c74 0 104 -56 104 -124zM581 201c0 35 -7 68 -41 68c-62 0 -89 -126 -89 -181
c0 -33 6 -73 40 -73c66 0 90 137 90 186zM874 202c0 34 -7 67 -41 67c-62 0 -89 -126 -89 -181c0 -33 6 -73 40 -73c66 0 90 137 90 187z" />
    <glyph glyph-name="estimated.oldstyle" unicode="&#xe10b;" horiz-adv-x="703" 
d="M669 257h-496c-2 0 -4 -1 -4 -4v-149c0 -6 3 -12 7 -17c47 -50 114 -81 188 -81c79 0 149 35 197 91h44c-55 -65 -143 -108 -242 -108c-169 0 -306 123 -306 275c0 153 137 276 306 276s306 -123 306 -276v-7zM557 276v151c0 7 -3 13 -8 18c-47 48 -113 78 -185 78
c-73 0 -140 -31 -187 -80c-5 -5 -8 -12 -8 -19v-148c0 -2 2 -4 4 -4h381c2 0 3 2 3 4z" />
    <glyph glyph-name="zero.fitted" unicode="&#xf639;" horiz-adv-x="489" 
d="M326 635c118 0 154 -115 151 -226c-3 -159 -84 -421 -267 -421c-118 0 -156 112 -154 233c2 148 86 414 270 414zM319 603c-123 0 -177 -267 -179 -408c-2 -87 12 -175 78 -175c124 0 173 297 176 419c3 76 -6 164 -75 164z" />
    <glyph glyph-name="one.fitted" unicode="&#xf6dc;" horiz-adv-x="336" 
d="M303 635l-98 -507c-17 -88 -9 -93 80 -102l-6 -26h-268l6 26c87 9 93 14 110 102l71 362c12 61 7 65 -47 67l-40 1l5 25c65 9 129 26 187 52z" />
    <glyph glyph-name="two.fitted" unicode="&#xf63a;" horiz-adv-x="467" 
d="M110 500l64 81c37 33 81 54 130 54c97 0 156 -60 156 -156c0 -101 -79 -170 -190 -268l-157 -139h178c55 0 73 4 113 61l23 -10c-21 -42 -37 -82 -56 -123h-370l1 20c64 55 133 114 200 178c98 95 173 179 173 266c0 60 -30 108 -106 108c-63 0 -109 -53 -138 -91z" />
    <glyph glyph-name="three.fitted" unicode="&#xf63b;" horiz-adv-x="462" 
d="M118 521l48 62c32 29 75 52 129 52c85 0 129 -58 129 -121c0 -41 -21 -69 -47 -90c-18 -15 -41 -32 -76 -53l-1 -2c73 -20 119 -73 119 -146c0 -61 -35 -123 -108 -174c-60 -42 -134 -61 -178 -61c-37 0 -77 16 -97 35c-15 15 -21 28 -19 41c2 11 12 24 26 33
c8 6 13 6 20 -1c27 -28 64 -58 122 -58c79 0 146 50 146 164c0 80 -54 119 -114 119c-24 0 -47 -5 -60 -9l-6 26c117 33 191 81 191 159c0 52 -30 82 -84 82c-56 1 -94 -42 -121 -77z" />
    <glyph glyph-name="four.fitted" unicode="&#xf63c;" horiz-adv-x="487" 
d="M463 222l-9 -43h-95l-12 -68c-14 -75 -8 -78 69 -85l-6 -26h-253l6 26c88 7 92 10 107 85l13 68h-259l6 27c120 148 242 290 374 423h42l-78 -407h95zM355 532h-2c-92 -99 -179 -204 -260 -310h197z" />
    <glyph glyph-name="five.fitted" unicode="&#xf63d;" horiz-adv-x="460" 
d="M459 623l-30 -72h-233l-54 -183c50 15 84 24 105 24c114 0 171 -79 171 -160c0 -76 -46 -146 -125 -195c-50 -32 -109 -49 -153 -49c-47 0 -91 21 -109 40c-12 13 -17 24 -15 37c2 12 12 26 26 33c8 5 13 5 21 -2c24 -26 65 -59 127 -59c82 0 142 56 142 165
c0 79 -39 138 -139 138c-39 0 -78 -12 -91 -16l-6 6l81 293h282z" />
    <glyph glyph-name="six.fitted" unicode="&#xf63e;" horiz-adv-x="489" 
d="M501 640l5 -29c-33 -6 -69 -16 -110 -33c-74 -30 -175 -94 -228 -227l1 -1l68 32c20 9 42 16 60 16c98 0 156 -74 156 -175c0 -132 -106 -235 -224 -235c-109 0 -177 86 -177 205c0 204 137 359 324 418c46 15 86 23 125 29zM253 347c-35 0 -74 -18 -97 -33
c-9 -25 -18 -63 -18 -121c0 -88 31 -173 104 -173c76 0 126 84 126 191c0 61 -22 136 -115 136z" />
    <glyph glyph-name="seven.fitted" unicode="&#xf63f;" horiz-adv-x="465" 
d="M510 623l8 -12c-124 -203 -256 -408 -382 -613l-80 -10l-7 12c149 182 282 368 391 551h-211c-63 0 -74 -7 -110 -75l-26 8c18 43 31 93 43 139h374z" />
    <glyph glyph-name="eight.fitted" unicode="&#xf640;" horiz-adv-x="477" 
d="M311 635c74 0 146 -50 146 -136c0 -34 -16 -70 -43 -93c-14 -11 -38 -29 -94 -65c63 -47 111 -92 111 -165c0 -106 -104 -188 -220 -188c-92 0 -175 54 -175 153c0 45 18 79 54 109c26 22 73 52 113 77c-42 33 -83 73 -83 138c0 92 85 170 191 170zM294 603
c-59 0 -99 -51 -99 -110c0 -72 59 -105 100 -135c56 35 87 84 87 142c0 62 -35 103 -88 103zM227 20c69 0 120 53 120 133c0 67 -48 109 -117 155c-65 -38 -112 -94 -112 -165c0 -72 40 -123 109 -123z" />
    <glyph glyph-name="nine.fitted" unicode="&#xf641;" horiz-adv-x="482" 
d="M310 635c121 0 168 -108 168 -205c0 -207 -140 -357 -302 -416c-50 -18 -109 -29 -132 -29l-3 27c133 24 269 122 327 278l-75 -36c-22 -11 -39 -14 -54 -14c-81 0 -149 67 -149 162c0 126 103 233 220 233zM295 603c-76 0 -120 -88 -120 -175c0 -77 35 -132 111 -132
c30 0 70 13 91 29c9 30 17 68 17 118c0 45 -4 160 -99 160z" />
    <glyph glyph-name="zero.slashfitted" unicode="&#xe307;" horiz-adv-x="489" 
d="M461 663l26 -18l-46 -71c28 -41 38 -100 38 -158c-1 -160 -83 -428 -269 -428c-40 0 -71 13 -95 35l-39 -60l-26 21l43 65c-27 42 -38 100 -38 163c0 153 85 423 271 423c40 0 71 -13 94 -36zM140 122l246 425c-11 32 -30 56 -67 56c-123 0 -182 -259 -184 -409
c0 -24 1 -52 5 -72zM397 502l-247 -425c13 -35 31 -57 66 -57c122 0 181 279 183 411c1 27 -1 52 -2 71z" />
    <glyph glyph-name="dollar.fitted" unicode="&#xe107;" horiz-adv-x="477" 
d="M458 453l-29 -3c-2 60 -20 120 -90 136l-44 -228l22 -15c63 -40 113 -84 113 -161c0 -110 -97 -174 -204 -178l-16 -85h-35l16 85c-79 5 -134 39 -150 59c0 17 0 69 -2 137l28 3c9 -65 41 -154 131 -165l48 251l-22 14c-61 37 -110 84 -110 152c0 105 93 164 196 165
l15 76h36l-15 -77c41 -2 86 -22 118 -39c-3 -35 -4 -73 -6 -127zM263 375l41 213c-82 -2 -117 -55 -117 -107c0 -44 26 -75 76 -106zM277 272l-43 -235c77 6 116 57 116 118c0 52 -22 81 -73 117z" />
    <glyph glyph-name="cent.fitted" unicode="&#xe103;" horiz-adv-x="477" 
d="M369 620l-16 -80c52 0 86 -17 104 -31c9 -7 13 -16 13 -27c0 -20 -22 -40 -37 -40c-5 0 -10 2 -15 9c-20 26 -43 41 -74 45l-66 -346c5 0 9 -1 13 -1c38 0 82 12 131 53l15 -22c-53 -56 -116 -84 -170 -88l-19 -97h-35l19 98c-87 7 -160 71 -160 183
c0 138 118 244 245 262l16 82h36zM243 156l66 343c-102 -2 -155 -94 -155 -200c0 -83 42 -131 89 -143z" />
    <glyph glyph-name="Euro.fitted" unicode="&#xe042;" horiz-adv-x="578" 
d="M73 391h48c52 153 183 244 327 244c63 0 112 -20 139 -30c-4 -49 -6 -94 -10 -130l-27 -2c-6 92 -41 129 -116 129c-96 0 -187 -84 -224 -211h322l-18 -37h-314c-7 -19 -11 -43 -11 -63h298l-16 -37h-283c-3 -124 51 -232 146 -232c79 0 128 52 181 122l22 -16
c-14 -29 -51 -92 -73 -119c-27 -9 -87 -21 -136 -21c-139 0 -229 102 -230 266h-76l18 37h59c1 19 6 46 12 63h-56z" />
    <glyph glyph-name="florin.fitted" unicode="&#xe118;" horiz-adv-x="477" 
d="M206 370l11 53c16 75 47 131 99 174c53 45 90 55 117 55c28 0 57 -21 57 -42c0 -14 -10 -29 -21 -37c-8 -7 -16 -5 -21 0c-14 12 -38 29 -65 29c-20 0 -32 -11 -44 -27c-12 -18 -25 -52 -51 -205h121l-10 -36h-118l-36 -191c-29 -152 -79 -209 -125 -243
c-43 -32 -68 -38 -90 -38c-28 0 -54 22 -54 40c0 15 10 29 23 40c6 5 12 6 19 0c15 -13 38 -27 61 -27c19 0 34 14 44 37c10 27 23 71 39 171l36 211h-97l10 36h95z" />
    <glyph glyph-name="sterling.fitted" unicode="&#xe156;" horiz-adv-x="485" 
d="M383 297h-166c-13 -96 -55 -150 -115 -198c32 0 67 -12 107 -30c36 -17 81 -34 118 -34c39 0 60 16 64 44c2 12 0 25 -2 33c-2 7 0 15 6 23c13 15 27 26 39 26c14 0 21 -22 16 -47c-7 -39 -41 -84 -83 -110c-27 -17 -61 -31 -95 -31c-44 0 -92 29 -136 53
c-30 17 -47 24 -64 24c-12 0 -30 -9 -49 -42c-5 -8 -9 -12 -14 -12c-10 5 -27 18 -5 46c11 16 35 39 57 59c53 49 68 124 71 196h-89l8 35h82c1 27 3 56 7 82c10 69 40 129 105 178c35 26 79 44 108 44c47 0 84 -26 92 -41c6 -11 6 -21 0 -31c-4 -7 -13 -16 -20 -21
c-9 -6 -18 -5 -26 3c-22 21 -46 41 -84 41c-49 0 -78 -34 -88 -99c-7 -45 -7 -102 -8 -156h171z" />
    <glyph glyph-name="yen.fitted" unicode="&#xe17c;" horiz-adv-x="477" 
d="M553 623l-6 -26c-52 -6 -63 -15 -101 -66c-27 -37 -72 -102 -137 -204h124l-8 -34h-133l-17 -86h136l-7 -34h-136l-13 -70c-13 -66 -7 -69 77 -76l-6 -27h-251l6 27c80 6 85 12 98 76l14 70h-137l7 34h137l16 86h-136l6 34h126c-14 62 -34 132 -61 219
c-12 41 -21 47 -71 51l5 26h206l-6 -26l-33 -5c-25 -3 -32 -9 -25 -36c13 -58 37 -146 55 -211c36 53 100 155 127 207c16 29 11 37 -18 41l-31 4l7 26h186z" />
    <glyph glyph-name="colonmonetary.fitted" unicode="&#xe104;" horiz-adv-x="576" 
d="M552 688l-27 -73c36 -6 58 -12 72 -16c-3 -50 -7 -92 -12 -136l-27 -3c-2 59 -16 96 -48 113l-202 -539c5 -1 8 -1 12 -1c83 1 135 48 193 128l25 -13c-19 -37 -48 -92 -69 -122c-25 -7 -89 -26 -157 -26c-5 0 -12 0 -17 1l-27 -68h-31l27 71c-23 3 -41 8 -60 15l-33 -86
h-31l37 98c-74 38 -117 116 -117 219c0 207 152 349 339 370l26 68h31l-25 -66c10 1 19 1 27 1c12 0 25 -1 38 -2l25 67h31zM278 37l205 547c-16 4 -32 5 -48 5c-6 0 -11 0 -15 -1l-200 -526c16 -13 34 -21 58 -25zM197 82l189 502c-145 -24 -236 -171 -236 -338
c0 -69 15 -123 47 -164z" />
    <glyph glyph-name="franc.fitted" unicode="&#xe11a;" horiz-adv-x="482" 
d="M118 623h397c-6 -33 -13 -96 -18 -141l-28 -4c-2 38 -4 62 -13 82c-11 23 -26 29 -89 29h-65c-27 0 -31 -4 -36 -31l-42 -214c82 0 152 2 215 9l-10 -55c-63 7 -133 7 -212 9l-22 -116h161l-7 -36h-161l-7 -37c-16 -79 -8 -86 80 -92l-5 -26h-252l5 26c71 6 79 12 95 92
l7 37h-83l7 36h83l60 309c15 81 10 91 -65 97z" />
    <glyph glyph-name="lira.fitted" unicode="&#xe120;" horiz-adv-x="486" 
d="M382 244h-163c-17 -56 -52 -102 -106 -145c28 0 67 -10 103 -27c37 -18 81 -38 120 -38c35 0 61 18 61 51c0 9 -2 19 -4 27c-2 7 1 16 7 23c13 15 28 25 40 25c11 0 18 -18 18 -35c0 -49 -41 -93 -84 -120c-29 -18 -64 -32 -98 -32c-42 0 -82 28 -127 54
c-29 17 -47 25 -63 25c-18 0 -36 -10 -56 -45c-4 -8 -10 -12 -16 -12c-9 4 -26 19 -3 48c12 15 36 38 59 58c41 38 59 91 67 143h-92l8 33h89c2 22 2 43 5 67h-83l8 33h77c9 93 42 161 115 215c35 27 74 43 107 43c46 0 78 -26 86 -41c5 -10 6 -21 -1 -32
c-5 -8 -12 -14 -20 -20s-17 -6 -25 3c-21 23 -46 39 -81 39c-49 0 -75 -32 -87 -98c-6 -35 -7 -72 -8 -109h174l-8 -33h-167c-1 -23 -2 -46 -6 -67h162z" />
    <glyph glyph-name="numbersign.fitted" unicode="&#xe12d;" horiz-adv-x="475" 
d="M490 455l-12 -59h-97l-40 -138h88l-11 -59h-94l-52 -178h-40l51 178h-110l-51 -178h-41l51 178h-101l13 59h106l40 138h-98l13 59h102l46 157h40l-45 -157h109l46 157h40l-45 -157h92zM341 396h-110l-40 -138h109z" />
    <glyph glyph-name="zero.taboldstyle" unicode="&#xf643;" horiz-adv-x="467" 
d="M197 -12c-121 0 -167 121 -142 240c23 111 111 224 227 224c121 0 170 -110 144 -243c-20 -106 -107 -221 -229 -221zM205 22c75 0 120 113 136 194s14 202 -64 202c-76 0 -122 -113 -138 -194c-16 -79 -14 -202 66 -202z" />
    <glyph glyph-name="one.taboldstyle" unicode="&#xf644;" horiz-adv-x="467" 
d="M365 27l-6 -27h-300l5 27l63 6c41 4 49 10 59 61l46 236c9 47 4 53 -30 55l-72 4l4 23c83 10 141 23 197 40l-69 -358c-9 -51 2 -57 36 -61z" />
    <glyph glyph-name="two.taboldstyle" unicode="&#xf645;" horiz-adv-x="467" 
d="M405 115l-41 -115h-350l3 21c120 78 292 178 292 286c0 52 -26 84 -81 84c-56 0 -101 -55 -125 -83l-20 20l61 73c40 36 78 51 122 51c68 0 129 -43 129 -126c0 -51 -27 -89 -73 -129c-37 -31 -98 -78 -176 -130l-1 -2h149c48 0 59 12 75 37l11 17z" />
    <glyph glyph-name="three.taboldstyle" unicode="&#xf646;" horiz-adv-x="467" 
d="M96 347l49 61c30 27 67 44 109 44c64 0 116 -39 116 -112c0 -68 -60 -98 -110 -129v-2c62 -15 107 -64 107 -132c0 -91 -60 -151 -139 -197c-56 -32 -109 -44 -137 -44c-40 0 -71 18 -85 33c-10 12 -11 25 -5 36c5 12 13 20 21 26c10 7 17 6 24 -1c19 -19 55 -42 100 -42
c84 0 136 69 136 154c0 77 -43 115 -101 115c-18 0 -39 -4 -57 -11l-6 25c72 26 174 68 174 153c0 47 -32 73 -71 73c-47 0 -85 -43 -106 -70z" />
    <glyph glyph-name="four.taboldstyle" unicode="&#xf647;" horiz-adv-x="467" 
d="M425 93l-18 -50h-82l-39 -201h-77l40 201h-248l7 34c119 132 232 256 357 375h37l-68 -359h91zM314 355h-2c-84 -82 -155 -169 -239 -262h185z" />
    <glyph glyph-name="five.taboldstyle" unicode="&#xf648;" horiz-adv-x="467" 
d="M404 452l-29 -73l-192 -18l-37 -112c99 -16 213 -55 213 -180c0 -82 -55 -150 -135 -193c-56 -31 -102 -40 -132 -40c-36 0 -69 18 -83 34c-12 12 -14 24 -9 36c4 9 13 19 23 25c7 5 14 6 23 -2c20 -19 52 -43 99 -43c77 0 134 64 134 149c0 110 -99 136 -188 146l75 248
z" />
    <glyph glyph-name="six.taboldstyle" unicode="&#xf649;" horiz-adv-x="467" 
d="M487 606l3 -29c-128 -26 -263 -120 -320 -235h2c57 27 91 40 110 40c81 0 143 -62 143 -163c0 -134 -104 -231 -214 -231c-98 0 -162 75 -162 192c0 109 53 226 157 308c84 67 191 105 281 118zM231 331c-20 0 -44 -6 -73 -22c-15 -33 -25 -82 -25 -140
c0 -68 28 -147 99 -147c74 0 110 90 110 170s-30 139 -111 139z" />
    <glyph glyph-name="seven.taboldstyle" unicode="&#xf64a;" horiz-adv-x="467" 
d="M468 441l7 -12c-55 -84 -217 -320 -397 -579l-80 -15l-7 13c154 175 272 329 402 521h-310l14 72h371z" />
    <glyph glyph-name="eight.taboldstyle" unicode="&#xf64b;" horiz-adv-x="467" 
d="M305 606c68 0 135 -40 135 -127c0 -30 -15 -65 -42 -88c-14 -11 -36 -29 -86 -62c59 -43 103 -83 103 -158c0 -97 -99 -183 -216 -183c-84 0 -159 52 -159 142c0 42 18 73 54 107c22 19 66 47 104 72c-38 30 -78 70 -78 134c0 90 83 163 185 163zM287 575h-2
c-53 0 -92 -44 -92 -105c0 -65 54 -100 94 -125c49 33 80 82 80 134c0 60 -32 96 -80 96zM222 21c64 0 112 53 112 124c0 70 -47 108 -110 148c-62 -40 -106 -98 -106 -158c0 -67 40 -114 104 -114z" />
    <glyph glyph-name="nine.taboldstyle" unicode="&#xf64c;" horiz-adv-x="467" 
d="M425 256c0 -180 -127 -325 -298 -390c-37 -14 -103 -29 -128 -30l-4 27c91 22 240 91 314 243l-1 2c-61 -29 -87 -37 -108 -37c-70 0 -140 57 -140 155c0 114 94 226 207 226c99 0 158 -81 158 -196zM341 270c0 71 -23 150 -88 150h-1c-68 0 -108 -94 -108 -168
c0 -81 40 -131 105 -131c27 0 52 10 70 23c13 29 22 80 22 126z" />
    <glyph glyph-name="dollar.taboldstyle" unicode="&#xf653;" horiz-adv-x="467" 
d="M406 318l-27 -5c-7 51 -24 100 -86 110l-31 -160l17 -8c67 -28 116 -60 116 -126c0 -96 -96 -137 -186 -139l-13 -73h-33l14 73c-63 3 -114 31 -130 41c-2 17 -6 64 -4 119l27 5c10 -60 42 -121 113 -134l34 176l-16 8c-57 25 -105 55 -105 116c0 92 83 134 171 135
l13 63h32l-12 -64c22 -1 48 -8 69 -15c16 -6 26 -10 36 -13c0 -29 3 -68 1 -109zM232 273l28 152c-46 0 -95 -27 -95 -75c0 -39 26 -59 67 -77zM247 187l-32 -167c43 1 104 23 104 79c0 40 -19 63 -72 88z" />
    <glyph glyph-name="cent.taboldstyle" unicode="&#xf654;" horiz-adv-x="467" 
d="M345 507l-15 -72c40 -1 73 -9 94 -23c7 -8 11 -15 11 -24c0 -19 -19 -40 -36 -40c-5 0 -10 3 -15 9c-21 24 -38 39 -61 42l-62 -320c39 -1 80 12 128 50l14 -22c-47 -51 -102 -77 -150 -81l-17 -88h-34l17 88c-86 8 -154 68 -154 167c0 141 119 224 232 239l14 75h34z
M229 84l61 317c-103 -8 -144 -103 -144 -186c0 -71 34 -116 83 -131z" />
    <glyph glyph-name="Euro.taboldstyle" unicode="&#xf64e;" horiz-adv-x="467" 
d="M49 338h41c44 123 140 203 269 203c63 0 89 -16 114 -26c-2 -42 -4 -87 -7 -120l-27 -2c-6 84 -33 116 -86 116c-82 0 -146 -70 -176 -171h241l-19 -34h-231c-5 -20 -9 -38 -9 -60h225l-19 -35h-207c1 -88 24 -187 112 -187c51 0 90 44 132 105l23 -14
c-12 -30 -41 -85 -60 -108c-27 -6 -59 -17 -108 -17c-127 0 -184 87 -188 221h-65l15 35h51c1 23 5 42 10 60h-47z" />
    <glyph glyph-name="florin.taboldstyle" unicode="&#xf64f;" horiz-adv-x="467" 
d="M196 305l9 37c18 72 48 124 95 165c48 40 82 50 107 50c24 0 53 -16 53 -36c0 -23 -27 -47 -40 -46c-15 8 -40 33 -63 33c-12 0 -21 -7 -30 -22c-13 -20 -27 -72 -46 -181h106l-11 -36h-103l-27 -129c-24 -119 -63 -196 -133 -247c-38 -28 -63 -36 -85 -36
c-26 0 -53 21 -53 39c1 15 27 46 39 46c9 0 37 -33 62 -33c15 0 26 10 33 21c17 25 33 92 49 178l31 161h-81l11 36h77z" />
    <glyph glyph-name="sterling.taboldstyle" unicode="&#xf651;" horiz-adv-x="467" 
d="M56 283h69c8 92 33 166 110 219c33 24 70 40 101 40c45 0 71 -24 80 -40c4 -9 3 -21 -2 -30c-4 -6 -12 -15 -22 -21c-9 -6 -17 -4 -24 3c-22 25 -46 40 -79 40c-45 0 -64 -42 -70 -90c-4 -32 -7 -77 -8 -121h141l-7 -35h-137c-14 -71 -46 -118 -107 -162
c32 3 63 -4 107 -23c32 -15 67 -31 101 -31c32 0 51 18 52 40c1 11 -1 24 -3 32c-1 5 1 12 6 18c11 15 26 26 37 26c12 0 19 -15 19 -33c0 -38 -38 -84 -79 -112c-27 -17 -56 -28 -90 -28c-36 0 -78 23 -117 44c-26 15 -42 23 -62 23c-14 0 -28 -11 -42 -36
c-6 -9 -12 -12 -18 -12c-11 1 -23 17 -5 42c11 14 33 36 51 52c47 43 59 99 65 160h-75z" />
    <glyph glyph-name="yen.taboldstyle" unicode="&#xf652;" horiz-adv-x="467" 
d="M505 533l-5 -27c-45 -6 -60 -14 -93 -56c-25 -31 -64 -81 -123 -167h125l-8 -33h-132l-14 -73h134l-8 -33h-132l-11 -54c-9 -51 -3 -59 75 -63l-6 -27h-239l5 27c72 4 79 13 89 63l11 54h-128l8 33h126l15 73h-128l8 33h119c-12 51 -28 106 -47 169c-15 46 -31 49 -71 54
l5 27h195l-6 -28l-27 -3c-24 -4 -29 -8 -25 -27c10 -43 28 -117 42 -174c32 46 90 129 110 164c13 23 14 32 -8 36l-28 4l6 28h166z" />
    </font>
</defs>
</svg>
